<mxfile host="app.diagrams.net" modified="2022-02-18T22:00:11.068Z" agent="5.0 (Windows NT 10.0; Win64; x64) AppleWebKit/537.36 (KHTML, like Gecko) Chrome/98.0.4758.102 Safari/537.36 Edg/98.0.1108.55" etag="sct7fWFrBXMOH9zOwp4C" version="16.6.1" type="github">
  <diagram id="Ogb6epMq-7H_ChLhPp12" name="primera divisiÃ³n">
    <mxGraphModel dx="1038" dy="-4097" grid="1" gridSize="10" guides="1" tooltips="1" connect="1" arrows="1" fold="1" page="1" pageScale="1" pageWidth="827" pageHeight="1169" math="0" shadow="0">
      <root>
        <mxCell id="s1-uLHGH1qeWwjEYS3wL-0" />
        <mxCell id="s1-uLHGH1qeWwjEYS3wL-1" parent="s1-uLHGH1qeWwjEYS3wL-0" />
        <mxCell id="vQ7G1RI6OjXigHQ9-KWK-0" value="" style="group" parent="s1-uLHGH1qeWwjEYS3wL-1" vertex="1" connectable="0">
          <mxGeometry x="50" y="4777" width="1124" height="400" as="geometry" />
        </mxCell>
        <mxCell id="vQ7G1RI6OjXigHQ9-KWK-1" value="" style="rounded=0;whiteSpace=wrap;html=1;" parent="vQ7G1RI6OjXigHQ9-KWK-0" vertex="1">
          <mxGeometry width="1124" height="80" as="geometry" />
        </mxCell>
        <mxCell id="vQ7G1RI6OjXigHQ9-KWK-2" value="" style="rounded=0;whiteSpace=wrap;html=1;" parent="vQ7G1RI6OjXigHQ9-KWK-0" vertex="1">
          <mxGeometry y="80" width="1124" height="80" as="geometry" />
        </mxCell>
        <mxCell id="vQ7G1RI6OjXigHQ9-KWK-3" value="" style="rounded=0;whiteSpace=wrap;html=1;" parent="vQ7G1RI6OjXigHQ9-KWK-0" vertex="1">
          <mxGeometry y="160" width="1124" height="80" as="geometry" />
        </mxCell>
        <mxCell id="vQ7G1RI6OjXigHQ9-KWK-4" value="" style="rounded=0;whiteSpace=wrap;html=1;" parent="vQ7G1RI6OjXigHQ9-KWK-0" vertex="1">
          <mxGeometry y="240" width="1124" height="80" as="geometry" />
        </mxCell>
        <mxCell id="vQ7G1RI6OjXigHQ9-KWK-5" value="" style="rounded=0;whiteSpace=wrap;html=1;" parent="vQ7G1RI6OjXigHQ9-KWK-0" vertex="1">
          <mxGeometry y="320" width="1124" height="80" as="geometry" />
        </mxCell>
        <mxCell id="vQ7G1RI6OjXigHQ9-KWK-6" style="edgeStyle=none;rounded=0;orthogonalLoop=1;jettySize=auto;html=1;" parent="vQ7G1RI6OjXigHQ9-KWK-0" target="vQ7G1RI6OjXigHQ9-KWK-2" edge="1">
          <mxGeometry relative="1" as="geometry">
            <mxPoint x="553.9512195121952" y="164" as="sourcePoint" />
          </mxGeometry>
        </mxCell>
        <mxCell id="vQ7G1RI6OjXigHQ9-KWK-7" style="rounded=0;orthogonalLoop=1;jettySize=auto;html=1;" parent="vQ7G1RI6OjXigHQ9-KWK-0" source="vQ7G1RI6OjXigHQ9-KWK-9" target="vQ7G1RI6OjXigHQ9-KWK-11" edge="1">
          <mxGeometry relative="1" as="geometry" />
        </mxCell>
        <mxCell id="vQ7G1RI6OjXigHQ9-KWK-8" style="edgeStyle=none;rounded=0;orthogonalLoop=1;jettySize=auto;html=1;entryX=1;entryY=0.75;entryDx=0;entryDy=0;" parent="vQ7G1RI6OjXigHQ9-KWK-0" source="vQ7G1RI6OjXigHQ9-KWK-9" target="vQ7G1RI6OjXigHQ9-KWK-10" edge="1">
          <mxGeometry relative="1" as="geometry" />
        </mxCell>
        <mxCell id="tsqTvnH3BOsCTxECm0go-2" style="rounded=0;orthogonalLoop=1;jettySize=auto;html=1;entryX=0;entryY=0.75;entryDx=0;entryDy=0;" parent="vQ7G1RI6OjXigHQ9-KWK-0" source="vQ7G1RI6OjXigHQ9-KWK-9" target="tsqTvnH3BOsCTxECm0go-0" edge="1">
          <mxGeometry relative="1" as="geometry" />
        </mxCell>
        <mxCell id="tsqTvnH3BOsCTxECm0go-59" style="edgeStyle=none;rounded=0;orthogonalLoop=1;jettySize=auto;html=1;entryX=0;entryY=0;entryDx=0;entryDy=0;" parent="vQ7G1RI6OjXigHQ9-KWK-0" source="vQ7G1RI6OjXigHQ9-KWK-9" target="tsqTvnH3BOsCTxECm0go-58" edge="1">
          <mxGeometry relative="1" as="geometry" />
        </mxCell>
        <mxCell id="tsqTvnH3BOsCTxECm0go-68" style="edgeStyle=none;rounded=0;orthogonalLoop=1;jettySize=auto;html=1;entryX=0;entryY=0.5;entryDx=0;entryDy=0;" parent="vQ7G1RI6OjXigHQ9-KWK-0" source="vQ7G1RI6OjXigHQ9-KWK-9" target="tsqTvnH3BOsCTxECm0go-67" edge="1">
          <mxGeometry relative="1" as="geometry" />
        </mxCell>
        <mxCell id="vQ7G1RI6OjXigHQ9-KWK-9" value="" style="shape=image;verticalLabelPosition=bottom;verticalAlign=top;imageAspect=0;aspect=fixed;image=data:image/png,iVBORw0KGgoAAAANSUhEUgAAAEwAAABMCAIAAABI9cZ8AAAVJElEQVR42uWbB3wU1fbHz53Zmt1NAQKBYACFgCKREqqi0lTkUQQLUhQRREVAKQqCyKOICGIDfSCPIgLKE1FUBEJXQJDeBSG0BNOzm93pc+//3F2EbFASIEHf/93PfjYzs1Pud+6Zc37n3AlhjMH/90b+VyFxA8E/tPBuxZwGT0JIoT1Z+CF4EUIInlC4/DKl3hijhBS+0B9B6gyeOgHZOhUZwZ4IJvJSwAPx2ySKRh+uLJwtoLszmZUxWYJJza3JlYUR3yvHMqjNwC3stQ6OBevl7Gwq4qoPRvWOaJpkw6uPfD3/3AnDYjJDoiPHx8ydkufLoKLJgOlENCtUgSb3uzv1rhiClwL6s103SgGFCNgjgxLdaqN1ksr17N8osU7cxd5uWn980qiVdrsVl2VJnTzzocZNqxc/klk61N4PMqUxQMqLkCpRKyPMpIJO8FqaBjOThLF7DL/MQIdIBod62Qo00nCmxDRKFFbBBlM6O/p+6HeaQDQWyDGGPuwa8ZQ79bT+QNcsq07BzxLihBGjowd1zHQCtTC0GQ0/GigSKI2SnXM3NYyIsKxefrZ31zURwCioBqgU8EhFBskCdMm3fR7oUJffCFlLrv7mmcx8O+BpwAdyyupBre5LLB7yoAT1D3JzHVeFLMmETJVa8DYaVNeIqdG6LuhdWRiz1/DgMCrQNUGY3do2e5c+KkWNxnvpp08lW+2MzVmjeggQlak+s0Udy4IJMTPm+t//wBdpZXIWHTjYk3Pa/PJjnxsYkUAFVeQMSKLlQqD705UnzqnXv8PmdStPWYHqIFtsZkDzi2CaoAUg0CS52pqfB2EXB/RYvGjJzihwBq2f+UFdvXlg85Y3Fw95TIHXzkGSkybayBO/QiShhk5uskILN0gqbVNBWHqabs807QbzS7D8Puu9VcUHlsgHz5l2E+SAuaCHc8IyJT2Dr4LKWMCMcwvr55Tr+GT2qWO6TWdmAf14fuzo/tkFaYagULTjJg/aflqZLysyAV0BJbaKsGRvs3YJ3ymKgmPoiWHrTvRYOn//mKGr7EBxMBs3qbZ6+wtff7G35yML3OCgwCwgIIYC6qY9LyXVr1oMJHcOvzuezkfIei9EAPXKsPQ2oVMlvsM5idVfYyAA1WgFkRx41J6ab965QOFbFFrdRV5tY3t6TsDNiIiPksKIYmIv3nghcthreRaD0gJ2e01Lnz7uYb2zPSJoOUbLjhHTV1RO+TJvWLfjDtA1UGPjhV6vxI8bvMsJZgCkbn1unj6vzejBKbM+2GIHlgPeKW92fG7oPXWi/+mTNOxsUoPKx/dmmYypoG87Mrx2nUrFj2SondfoHfsIPhCMUheDg00EjwXR2VtH6YTDZhRAIECfrilMa26bukOf8qMWSUAqoENaWPPy6GdbtQiKtkoFlQkaFXWoWZEcPWjYKJUy6auvRB3aoab8x+8E4s8xpi+r1Kar+9BOqXvjA04w0HRr1rM7y9GfN6VbwMQHNTbeimc5dTZLBMMHBTWqRO5LG9Wr8ydfrzjgAEtsBdeQsfe8PPibCLDpYGw/NuKWWrElhfzwN/rSKRItQEClj1aAubcKwfFld280juSBnVJ0AmvbW+qXF1ssks/kUKsBumR++ljE8M+kfB/HK2+HupXEzTtUB95kiVl1YIopKDBrZvkX+2apOaaeT6NdZG1GgsUijO9/Ztmc8w4+dPI9D0XvXpfh8wUgOLDob0zumdADa41bxf17WfdVKw4/3XuRG5wKaHMW9cjNloYO+dIDDrS+XedGVomPLinkPYfo3gBxMCjQ6Ld1hdblcDchXWbJGwymAzGow4TtHW2bz5oDUjQPOlqZ3lFBGNDI8synMo6z5qft6lo7NrC+MNUbLRDQmCgzzW82xY3tna8+l1Mt3tIo2db+sYi6DRwL3sxe8HaGDVQd1Igo2r5v+QXvHLOCgasxcUL2bz6k9YJv0IimY99qez7d2yhhim6aNrDgI5J8V8KZEzm/nS8QQLBYyO60URUrekoE+YsMjQ9RO+OhsQKBg8nMKvDweqSAtdhoOCkGT4bPJN4xn8TQGjGS+Xzm4oed/9mlrtnHd/DlmbP7u2+tQtoNyfegC9UAIf055oTRkRtXKj+lyOU9xG3hTij/DEZN1QEGWqYflGlLEj//6NTOzRl4YxBy5AdJkwZtBe5UpXYdqi/8tvuDd87cujXVBdwJqGDEV4osX9F19EAm+nK7w7IvfWR0jKtEkJPSYHwajRJIQId+sfBeTRYSK36d3b7WCKjo0RhaEDN4oMY44fXTxxLFqe3sjab5mUIxPKLv3fZGlADkrgE5egGqAiAStRjso2nlBvbLhgK0Z0okBhIVNR4nMUJiFHl9YULT1lGt4zfgsgpytVqOT39od1eVhQZV8RbUSHR3fiLxn2NWokc1gHpcNrTzkVPuW75w77Ytp0UQIiNte9JedbvtxUNi/2vth5MKD4+GAVuTWPOoiyqJzkuFF/egJmA2kxEDDHzYKH2ytmVaW9u/tmlDliq4r+qnDyVZ5g9Es2H3Pp977BfDYTDVSx+82960nnXsK3lRIhHw+ZTQVBg6zGgPa97F9sw/46rWsL/50i9vv3vYBdQH/pEj6708uWEd+6zzWr4AOoYTDXiYwR67wLL9l1dqJaI8gsRy407m5eJIVrK5jnvHOR224iElA77yArdUAnYGncuDKIRpziP5bNlZdjrfZCbU9ggdq5M65fkOW07SM3mGDW1Th2a3iDUqBjfu189nmCKAqdCGSbbcTHr2lCECw0AlEuZ2i5WqCDclWp1OMXT2TSuzsn9TBAvVdb1t56rlKjhWfX3SlycRgXFVyShXX6YRnxBzTxuubFAvfb10vyxpuOz22Dp2q3+5YV5zFlL4qDLR2aXY/mdTrf937Qr5JBRKKUtukNdguizYjaJJYNlCntfg8ROAGk4w0dGSUD6JfeCrJhEws8MtQddKTJ5tEYPxjxbcwr+ZoGMUIUzHEIoBBlMYHmb4T/iNGxUMP3yVybRCRXHq0rhQvj15SOreH/KsdiOYeWFSoqPQATBMvhzaovHEEqPuH92nQIHa/8XmT/ZrXtKRvPcIbPFzaU4oQUJiEjCxrwSFDnAkvsC7rvMoH/zmH1G7QML1jRpEUri+wyRTCC3LTFCCqxLlC5Ipq+brM2IfGciF2JBOR1d9k27FK13QcWrwW0E2DB6Mf/PlcJ8Hv5scyjBzy66hdzSsWjJIgH0BaHkYbDyjRadNBTOYNHM2xowLC0HIIHkQEi5CapcgsZ+iilkm/wl7LiqAbJiaiJIp4HbJZAXMGcGWn60WGW0Z3//EZ3POOoOQBg+GF74pj5B4mB6CJH9UN8kHafCgeye/37mk5hpqL6TCnAyKsrNMIXGLX9W69veMmV3lgzFnPpx0IoLXWq4OEjOsmKiIPWkj3S7H1UHmaNBgP/WbxMa4uZYdJFMNGbQVqTU3r8x9feBR91VCMmD5IM/48JG+z7W4Csdzsb2fTkfwbKtsR5KoPL1qdn9Ex/6RLz580Mll5VVASqDVvS3ux0PD4M/blSDRrTfcR1Il6mRlC2mCirly68ddKUsy4ILLKREk+psAqN+tf7Zlq1rXCIknWZVLHjpMo4D72MshmUYlCWgIT71AiAshj0o0E90priIw5wx6WkyQbCa1Ii1u/B2SBrMq9KUyoAYN1eYUPVjXwvuEiaWV27B2OWQBKF26JH2y/Em4YitW8dBuB8maXIZpQRFIJMQs4/k6IoZNyiMnf3SJyVU0CS7zWqnJ98SfMKFxWkDymnt26ge2KWqeadXhcsg3l98SEyv6fKqqGPhRNJVSuvyTI1s2nrSAWQQSYwaqhx2pIxKql79eyF8CpMUuJjJqMcMg0axUBZa0trVJICUROht+VN591zdssCf1F/2tUbnRVgHkS5A4gIJNX5PdwOOxFjmwWfy8tPRcEYwikHkgjRzZZuzkfxR76ZJoV/bycTrzLItE9RNurppCE+zkp0cdwp8LMhyKL9aocxYFDu3V7k22LpoXSxn7R9P0zJOYZKIkuARpd+krzzd0eyyFD39t0ObZM3ZF8HmIsGcSw0bFWPees6/a7Zbi+l8iSFpgkPrbmE9lNhoGiYPp88OkZuLABtbLBpPpBvt8nTpnuXz6pO6g6HLoV/PL16rJ90z5VhraPTNSxMf1AiQ6nqhY+m1aA7v10g07fjS37a1LLVweqIUhscdekOcu7PVYr0bFEpYQknPOPccGHoIY4A9YYe9qqsRJ2Y7e9hjHxc4xWWULN2tzV8ppaaYbeJ1OyjWf6OQcOyzq4hn7d/pt92rJRUgIUgElrhr55lT9wjerV9tVG9elOoGFe1dAj5rc6Ka1O4eUhLDkkLzrd241j3rBzsIgQSf+AvrM7eLk1rzo4Fdh/o/a3PXK+QwT3ZLV4CUcw089BFIWVYh0X3x62dGDWs/GaU6TiDqHlEGpfpvli0NJF6+3fuW53h1Wu3jYDAshGDYkUNZtG9S4WY1Sh6Sbc6DDdtPNmGiGxUnKAxss62r/8YQxd6ualc1cjIeKUJzEp86fbUweEtn9HxFFzjjxhewvZ3o9fEqHF7Jub25bsPX2C3cUoM3NK06l5lqD6UhhSAwbPR5vNGtxjxISXhUkv3TPXea3adQd9EAXRlIjqoJbmBZgmsQiKLMYPC+5KAZ0H6sbLy5/v9zlZ/P5aJfqZ9Q8QwA9AEqTto5/pdwW+m32tKPjR/zs5rRhYkAHxWolu86OrFQpsowg6SmJNN9g4CNiNTkkVWlAgs4JQqyVLd5rOA1egC2seJhiynn0P29EJ9e1/mGYWfJ+/tQhmRFByHaPet76nNemcrPV1gmrFFnCZLIIZB74xo9/YNhr7UpOeLWQ/PaPP2xOPYIaCHAARQMmNLT0qC00nasU+KktlDT/DokeUc4zOjWxvVfI31x+wkdqnT7zq18BtVu/mLEf81m3UX33fD7v1wge/cNknQSB+HjnztOviOLV1RCuusYjm6zRaj3Vyxp7yEctLHXLCS9vVOftMTwURD1Mu5oStWp07Tvl4spdSS1s/T7w/IOpJij9R8UOfqPaoT3ebg03YdgAru8uQeKDkQfehV883rlb0tX095og0WgXpcKuHPp2I5EQOJpLW3+mWk1OWFigoxD355mjukU838VZ7BkHtz/93aqM16ZU7fNylR7Nt+/+KdMKZhGB7ofAnfdU+Wrj01dLeG2QECxwhQaH9fxeW3PS9OA5wrMQ00/jPWTD5GihBJZ1+rjaLnH/e4trRERBvw47XXxGOSwL0UBWQVq3r3/dpLjiT1dKkKHGfkinD32juYAPYxikwmSfuWCgq9Ud9hKea9Jzp2s1cHz69qnUYz4LTzjCINFQn+hXb/rHxcvUUobEoNx2hXYog0YwKJJP6n7a+Cbhg75uk2EmeqGyiVcKlaB44Q94+Y9v5NbARCvk5xrThqZu+T7LEvSohSFR1lodxva0Z2LKRVxbV68dMkOiycs0pgXDSTikIdFby5NGCeKClapNY3ZKQyklJpmiSonMBDlYxZP5KsO0EXWTRVHQKsPTZSP4xgeGjQlv3/3s0MbX1s/rgsQheHuPOXG7HiWAoBU1V8ln/vs5d3knGfSWN+2cGYn7qFRUwkuScjAL4bKOJ5MsHC/0rUCgek3XxuO9r5nwOiF5obfZ50p6Pp91Lup4ArRyBPlhahR6xtHvFXy5QnYwajeAD+ll5Y9g1s8PK1LC0kHzQsGi7x5s82BJZWrpQ+JgrvjV7LNKi2JBKRceQnx55thHIwZ05CFkw1b59cm+zDOGRwA+61wyyAKQ7r6/0sJVHa6H8PoheeuyTPnpjInup0ghC8VABIUN70ZFe/jcoz9Ax030frcsgKmTTQ8O6RUhDZDR5aQc73xzzZi/HJIdzKL3LZJtJrGGKx6UdYEc46n7HOP6h95U4Bl9yhp50ui8nFO6B6WEciVINNR+LyaOfafpdRKWzkhi74evURfsNqIZkHCBTlEEBmDNe9EJ8eJFZefz0vHDc1YtCfB82ghBooLTQrW54IKqguyKhE3pndwu2/X1rdQgIVdmzWcFMNWyGlCk7qrk0faNbTNGF363hg/p6uX+d4fl+tIMQTOVC1M6oRkeDClqAKTJ/2rYc0Cta+5S6UNiv2dt10d/r8YQnm0VhsRgqHjp0mkxDS/Ltsb0zfzhi8BTY6NadXGJIqiayfNnEnp7lt1S21NaE/WlONPMWs6UzmTwN+mKVNCVfNrgZsvnM8Ly5gM71T4t0+0ao5Qm3Sn0m1ChSauryIP/Msj1x43H50tRQApXBkLTBOiBPhwXc3/rS7NOvdumH9miRDDCTRoUzCfrJFn7jYu776HYUn/TopTfGeg1X9p4WOeSPRwSk5KbYsiqpRcAvlpSMKZfdpQVCnlXFTkxMNZv4Fi8ranNLv5tIdnxTNpuuh9jSdBtXoJEpRrIMscO8/Tu7g4EzI7NzxecN+36peJyyLvmgb//8KojpiZef1fKDpK3cV9LH6dokWJwSqfQrJbhNyNFsmV9pakTvQve80ZZSOFpAiP4enZ0Jfb9mSY2W2kOY1lAsgKV3T2+wO/lJZ+wqTvZ1PJpu5aOXZv+YMIHzdUL0pRPbunY+1rS4hsMyTk//VF7ZX4gCjWNFjY/Kchg+CimZlY+jRcG6Qe5brLt05/rlTphGUFyzgcm+I6fwnBCSzIJa/Dor3yyIzGpsef6r33jILceMbpP4f8sYNGKh/SB0qGXe+LC6mVBWHaQvD37QcHqLSrmVleGpChXrdpXZxMrVLKU0buIZQfJzmI4GZ4vatxi/wySz5So+gsTY54eHXv9l7zxkLxNXSLN+MwfJZA/gzS9LC6BLE+tRkpSuvx7Qio6a/1sbn5W8B9hLocMmJLPnL48rlUXd9n1ocwhsX21SX5xki/awidbi0Aq2Uby3fZZa+PLtAM3AhLbwy/lHjqgOxgtDAkS03zm4h3xtevZyvrd5xsAyXYf0R97PtcVDCcXIQNZ9NG+rjHvl6G/uZGQvA17w/vNCtkj8sFESOYzXVZYsadKZFTx7278t0CyrBza/rEsw09tejC9/M14dXJMzwFllSX/JZC8fTTPP/2d/GiLoHuNGvGW5Zur3Jjr3lBIw2APdM7KOq3rXjp7YYW77i1+3vK/DxJbylr5qSeyO7e3z/x3xRt20RsNiW34SznPPhdZM7GsZOrfATL0X/hl9c/3fxPIv6b9T0D+H/WAR1ml925BAAAAAElFTkSuQmCC" parent="vQ7G1RI6OjXigHQ9-KWK-0" vertex="1">
          <mxGeometry x="506" y="162" width="76" height="76" as="geometry" />
        </mxCell>
        <mxCell id="vQ7G1RI6OjXigHQ9-KWK-10" value="" style="shape=image;verticalLabelPosition=bottom;verticalAlign=top;imageAspect=0;aspect=fixed;image=data:image/png,iVBORw0KGgoAAAANSUhEUgAAAC4AAABMCAIAAACd5xIxAAAQ6klEQVR42sVaCVRV1f6+585MF0SLnP0nmmKICKKQOBQOiBOKKIIplpXG02WaFg5Pl0OOqbV6mmb6sl76QB8qoHAZFWRS4ckcKAgKagx3nof3nXPgeEEgpfS/1xLXPWefvb/9/aZv73MIs9nM+hPNZDLW1xZVV1WM8pxibSMiCKLbQxF/Ekrd/YKSgrj8/5YNGOQWvOQzgmD//0Cprsj5rSiBy+EXl91vam4a7Oy6aOlGLpf36qDgCdjhbum1ytJUDofH4XALS++pVVqdVtNvgHPIsi+EQptXAQW94Q5ldxLvV2RxuDw2h9PYIGtokiqUagyl06p7OfUNXbbJTtTj5UJBZzhmScHlB3dvcXgCguA8+b1ZJlfy+ByzkdUsUxj0RqNBZ+/QM2RZpGNPp5fLSkHe1ZL/JvR07MXjch//3iRXqvkcNC6HxzabTb83yFQqjUqltLXruWHzP8DZS4TyoKbi5LGt1lZWQwf3a2yUsbnAQej1RrVGazKYG5uldfW/K5WKyX5zPvzki7+YFdoo9F/6yk8nttdU/+bk1MvewVat1MhkSpVGR9003699rFapWWbTjr2n+/b/v3aD/AWslJeXv/XWW8zPksKs6H8d4QutB/V7/eHjBvgHm83GTGqV5n7tI/jKsBGjN24+zPSvrKx0dnb+C1gpKCj4aOXK5IQEO5GIvmI06P9xZJ1CJrG1tcHjGo3OaDQ2SxVymdJgMGjUqrUb94/2fIcZYZq//5qIiBkBAX8KislkmhMYWHjnzle7doUsXsxcv55yIVUcJbQS2lgL5QqNvb2NrbWwrKLm4cPHTk59vjr0L3arObKys8PCwvr06RN7+bK9vX33oezes+fMmTNwUox1+dIl5rpC1nz0m/UGvYHP5yFwyFxjMlXXPm5uagoNXzNjZgjTc+WqVRkZGVjS1KlTD339dTehYEEfLF9ua2sLP5DL5cd/+GG8jw9z92L00aKC6zy+EHcx092qB3qd3srKev/hX23sWlZfW1s7c9YsHo+HPjKZbP++fbNnz35hKDeysjZ8/rlarebx+fipUqnGjRt3/PvvmQ4PaytPf78Nd8lppIq6Rw16nWbylDnhKzYwffbt33/q5Ek7yi4GvR6YduzYAXpeAMrO3bt/OXPGxtqay+OxqA5GJHW9/uJ//jNo0CCm2z+Pb6t7eJfL5dc+eKRSqZFot+85NWDAYPquRqOZMnWqUqEgBzGZULfg1Eqlcv78+Tt37kTQ/QEUYF/x8cdZmZlwMTPVG/8oX4B/yOC5mzdvZjoXFmTE/Ps7oZX1/Zo6hVw5zGXUF1u/Ye5Gnz8fGRkpEongwuQcVHZCrMHW7u7up0+ftrKy6gpK6JIl+bdu4XlyepOJvkcGA5ut1+v5fH6SWAzvacWtO3pknUopr33wWNIsXbvhKw+vicxQgfPmVVVV8Xk8TA9nAiX4zwytZTIBjZeXF7DyLCpDGyhr1627GhdH5w9MbzKb4SuoIwKBgEURKpFIwMqSsDDmkWvJ59NTo+vqGmxsHfce+pXDaaE979at4PnzbWxsDGaSClRJo15PFgkul54PaGbNnn3CwvmeQvnl11+3/f3vPRwcMKmJasCxdcuW4tLSC9HRNhQTcJfevXvHx8Uxz8ulTd9/s6GopCwoZOXM2aHM9U9WrrwUG2tDmQDjTJs+PTgoKGL1ap1WK8TCKOdDTH21ezeCtA2UJ0+e+Pv7w5rAjSvAAac7fPiwn58f0vacOXOQWgg2aq9ZJpefPHly/DtPk+mFc98mJcbu+fqsyL5Fozx69Gi8ry8606PJFYqos2d9J0zIz89fvHgxkMFqpH0NBp5AkJaW1vuNN55C+fLLLy9dukQ7Aa7AEPv27Zs7d26LA4WFIU3RXoao9h437ty5cwyUe5WF19Pil364kbmyffv2vXv3wuHMFJEuw4dnZmTQt65fv744LAwCg83lIqwUCkVISAid+sjs9PDhw4CZM4GUDjCpVDo/KGjXzp3M0MXFxXFxcQKKWPRHtxUrVlhbW9N3jQaDWqOytRUx/U+dOtXQ0MDFZICi03l7e0+YMIG5e/DAgX0HDtjZ2cEIcCEsPS09vX+/fmSsHzh48McffxQhEcG9jUasXpyYaG3zvPq0nQDoUA/QC2B+wljV1dV8KnnCf9esWfPFxo0EvGThokWS5mbEFbrLJJL1n3++4sMPnxNH99q/o6IiIiLs7eyAGjmib9++MTExRGZmZvgHH4ioQgPsWJM4OdnRweGlQtFotSgjUokEHEJhqFWqSxcvEkePHv360CHEMHKatLl5/PjxMNZLxUG31atXn/n5Z9rhENW7d+8mVq9Zk5qSAkMixhqbmr45cmSxhS55eS02NhZlBM7LohJPcHAwMTcwsLioyETleFyCw44YMeIVQIHbeo0di8QDFhBlnp6exNhx4548eoTUBjRwlxs3brzh9GL7l+41GMVt1CgUaqBB2KLgEx6enrALsKFKId+RUKjc97KbXCYbSUFB+gGUfsgrgNLU0IDcR4dP1quCIgUr7u5KuRxQkNv6DxhAeHh4NDQ1salIhoFeHRSpFAZC4qcNNABQRnt4NAEKVY3BSnZW1quD4u6uoFhB6ejXAqWhgUVBASsvFYpl+geUkW5ubVhxHz0absulWWGx2kG5W1mZnZs7MyCg6y3MH7asrKy6+vr58+ZZskJDoX2lBQrttmCJZCU72xIKygLyL/q9++67oaGhKLB0DXvOBq0THR194cIFiLrFISG//PyzJRTXkSPbQBnl7t5Iuy0qqtmcm5vrZJFXcnJyJk2ezBcIULSAFdE/fdo0YBrj5dXFZhzSCern7Llz+bdvq9RqqAskMewRfzhxog0UV1e5pYEApcVtDQaI8nZQMm7cmDhhggOlMuHUgK/VanF9qLMzJM5nn33Wq1cvSxCXL18+ceJEdk4OxBcQYJdE7usJAj9DFi366aefmJ4yqXSEq2tbVkaNamhsZLe6bU5ubm8LKOi6aOHCq2Kxna0t43HABJLg/NBTM2bMsISC0YqKi1FZLNUJhB+Wd+7s2bFjx7aDArFCszIQUBDctNsaAAUWyc6GkG5H+KbIyIMHDwqsrHg8HoMG6TIuPn6Kn59lTx8fn8KiIlrv0d2Q4D09PKKiopBPLXviusuIEW1YcXNza2psJBhWcnKehYJ2/vz5jz/5BNqbcVuMcjU+/t333rPsBhUCVug+JFy5fEFQEOzCrKEdlKesDBxIQWFSHPYvOTlvdAQFraysLHDu3If19RiXnuZqQsJ7kydb9hnr5YXNClhBB3jV2jVrdu7a1eFogDLcxaUNKwhuMoKoRaDdvHmzixT3/vvvn4uKsqakP0aBopg0aZJlB08vr9KSErCChXEIorSszKmTOk9DacPKyJEjYSBs2rAIOGNRUVEXUBaGhFyMiYH0AugOoaCilf/2G6BgdJi78M6d/v37dzgUyuHw4cPbsII8AwMhJ8uUSijtkpISp871yoLgYCQMK6hAsxlFNSk1daKvr2UH7MvLKypIVoxGCI/CwsJ23voUilQKKHReMUCvkFBcXRHM0G/knpbPL+0SSlBQEDIHDASvwihpKSm+FhscFhXMFYCCLTvKDYcDfQg13xmUt4YNg4H42C4RxAAYCPKx9sEDFlWrsGkrLS3tAkpgYCACmGYF3KanpaEsWHZwdXND2eJRrGCzXlJc3LtPnw6HQtJDxACxtVCInz0cHYmhQ4ciKLjYqJlMXB4PULoQlHPmzr0SH0+yAigq1bX09HcsNs9ob7/99r1792hWMFpxSUmfTjyvWSLx8fY2UrUaBurZowfhPGRIfX097cbwoDJA6dxtZ8+efSUhgYaiVCiwAfaxOJ1DA8f3qqpot0XMl3XOMaB4+/igroE8/HUAK87OzijfsKup9eEuoAQEBCSIxVYUFLVSibqNnMbcxUVkraqqKtpAANQVlOZmQIFXAIreaMRGjBjs7FxfV0fLbFBaXlbWBRT/GTOSEhNpKEq1GurTsqygtru4uFS3njTxhUKM9vrrr3cBhUV5NzpDDxGDBw9+ygqfX1Fe3tnDaNOmT09OThbSrKhU0FleXl5PoZhMw4cNq66p4VEGshIIysvLX3vttc7cFsY1ms1k+TMYSChvDh5Ms0LWIA4HlHaWCdCmTpmSkppqJRQCikqjyc3O9hwzhrmL6QHlPqDweBgd5EE69ezZs8OhGhoaAIXekuFBkUhEvPnmmzQruK1VqZAnEhISOpNq7/n5paWlkaxQx1J5ublIr8xdTD902LAHNTV4HGjsRCJIpw6h4PF5CxYU3LqFvMCmWEFnUq8gJ9LnY2ZKWwBNkljcIRrIyvT0dLBCnhhqtbfy8kaPHm0JxWX48EaJBGxzKb0Cv+7AQGbzvKAgqBEHBLDZDIWv0Wr79+1LQHhCIOr0ej4tMign8PX1TUpKehbNpIkTr2VmCmEgsKJW3759G5meuYsqhjQjlUjY1BEci1LX7VjB1eCgoMwbNxwdHcmQo9QjHjx8+DB50oL0AHWo02oFtM6g9vHgJjkpqZ3OgMzOyMgAFPi4VqfLz88HqZZQYH6JVEqeiKIcstnwa3JKi7Zw4cLrGRmOPXqwqJMpEAkWThw7NnHSpJZjwdTU1Bn+/jqDgeEGi4aqTQQ3FmjG+/oigKEXBZTwxlNI3sxdeI+3tzdd98nfbHZWZqYlFNAPV+vRigNVT63RHDt2bPr06SzLc9uklJQAf3/AhF3MVL7SUYQjehmB6OfnBwFFn89g9XApaAxmJnAJKKhNPCqvwB9hIHLiVhyA3oIMS9UiSFTQ5AGtr6zanGanpKT4+/sjqmECJEFkPCwUnMfGxtKWmjptGrIWTyDAY1K5PFksRmFvB0WlVLLRmTIQoDhQZ2nLli0Ti8WABYi0UTAy9iKzZs1iHm9/xg8OQkJCoKgFVO2mdTLChEYDVioqKwUQlNTJorgjKEroHmzwWCyU2LybN0Hh8uXLL8fFOYhE8DDy/YfRqFGpjh0/Hth6LtwxFDRMELpkiRWfz8Euhroikck83N2Rb8AZSjfNCiAmwkDPQMFfLnVEAlLz8vJW/+1vkPstZsJmymiUK5VHv/tuwYIF7ebt+H1QYmLi0qVLMSWfwyGoDIGJUW4aGxux88NMNFvo1s5XYE2wgkcMOh0yIeILCyAzKe2nBgMq13fffhu8cOGzk3b6liwBaJYsEVpbQ2WaqQ0WMj3GsgfPlMhAEWkHBW6IkgSIwEq+61Wr0dPGxqbl5ZbJBOH37ZEji0NDO5yxq3eHV65cgZnhwqTPUuui333TdwFF3DaCAGXMmDH0OQWLxWo506byKbwV+ubAgQMgu7Pp/uCNKuiF85MBRb25o1+KmKkiIpPL01JTO4RCh5uJ2m6yKPkBqg7u2xfe+r6lO1DQ4uPjsRSkFvr1QctjBIHdQxdQ6L0mDQiKeu+ePSs++qjriZ7rQwBs02lu6JrOat0Mp3YChfxiAjhAIfU+Z9euXatWrfrDWZ73Sw2gCQ8PF8BvqPAhqD0VtItbR1BI/oCDICRNTTt27IiIiHieKV7goxFkuaXh4TbUeQJNe7saZAkFHbDT27Zt29q1a59z/Bf7fgVowpctg96BCbqAAiMCx9atW9etW/f8g7/wpzSxsBTQWFlhymehQNThL/xjy5Yt69evf6GRu/MF2MWLF5FvUNWuXbv2LJSamprIyMhNmza96LDd/C4uJiYGRSQ7O9tS2yLlDxw48NNPP92+fXs3xuwmFFACvxkyZIjlG5snT54gQWOLj2rcjS8Y/wcEuprmLkBr9QAAAABJRU5ErkJggg==" parent="vQ7G1RI6OjXigHQ9-KWK-0" vertex="1">
          <mxGeometry x="318" y="82" width="46" height="76" as="geometry" />
        </mxCell>
        <mxCell id="vQ7G1RI6OjXigHQ9-KWK-11" value="" style="shape=image;verticalLabelPosition=bottom;verticalAlign=top;imageAspect=0;aspect=fixed;image=data:image/png,iVBORw0KGgoAAAANSUhEUgAAAFYAAABMCAIAAAB4edddAAAOJ0lEQVR42uWbCXRV1bnHf3dOKEnAB0IYgihDMIAIyAxlnmSQMTEhIQxqa21Ln5RVO9jV9/re0mVrXx9q7QPCdAkkYXhRxkAYyjwbYwgQVEZRqQxhSu7N0PPte5PcwD03hOSaAN9yuY65d+97vt/Z+//t/z5bQ3FxMY9aSMo3KczGmYbzI8MjhEBL1ABF3+BYTf4iCg/IHw08AgjcmefiXItjAc7tmIsI0P5C8S0MDz+C4nycW3DMp2AjhjzJ3MyVCySn8uU53voD5D2sCLSknDtxJOBMxXAVG9o/t78lbQfzF5O2FUc+vXqyexdce5gQuPIoPEr+YgpSKPpKMg+k6Cr/2MOCZXy0ntxrZV8fOID0LQ8HAtdULzyJw05+IkWfu545tzl4hEWJrErlm2+8tHvwEbgzP48zRR57UYY2ybVnjpPsLJYlk5jCl6d9dfDAInDL+2WZ5NpUL9iFCRE5OJtDUipLE8nM0m0dFMT16w8oAnfmt3BuUCK3GZNTRruFf55mzXoWJrJ3n27rgAAGD+LVGTz+OF373IHAULsRuDIvLsC5DcdCKeyG6/LMLVz/mg3pLFjK1h0UOHU76NeX6TGMGU79ZmjjJSeDNp0eCATuzJEFXH6CLOa4JM88AOdl0nezYDEb0rh5U7eDZzsRP4WJz9Oklernlvq3ieM5tOtSyxG4C1sWzqXkJ1F8Gqua6jfYfZCFdv5/Ld99p9u6RQtmxhE5jtZPS8KSeVFJn8iiqBYjcMv7afKXU7BMEFiUvOeTkcHSJJJXc+6cbuvwcG7f4sxZkhYxeao4IK0ucHdatRFBmW9ZIwO+6KAUtgD5++fHSVzJsiROnNRt3aAh40fLVO8+kPg4Fi9l2Tyi4xQCr+EdgbEmELgzv4ZznZL3beJbbDJ0L37Byo9YvJzDR3Rb163LyOHMjGVAb8z1ZaRo4yVqMkkp2OcRU6sRuEVO8y3p4lucmzDcktFu4ep51qYxfyn/2Ine7ZjNDBoomQ8fSN1QlXleyWivX8sRlMn7LvLml/mWAPIusXk785awaTMOh24HtgDe+xPjR/FYcyiQla+InGfUXgSevsWZTPFFV+aF19ixh0XLSF1Hbm7F3Wg6f/qUeuZ69b/WIXDL+wkcK8i3U3RKClsdKVGHlG9ZncrFryvRX7Mwzn4qXd758GsdgjLfsor8hWW+pYATWdhTxLd88YV+ns05f073o7OZ/kNgqjICt7z/E+fHsoYt2Hmnb1lBZqZua62wjRvFtGh69uV3v+ePbz9ACNyZ35BNWK2wFW7G4HD5lkunSd1AwjJfvsVkorCQieNIsStemrwXStvho9i0pZYjKPMt21VJX4ch19O3JCwlXd+3mMwM7MfPfsSJU8z+Na+9wtwP4UrJx1ZuXefpbpwpPyNqDQK3vO8jfwmOVfCtS94dl9m6kwQ7GzZz47pu6+7PiW8ZN5JGLYTX/Pd46af8eCYf/B9c9fheINmZtO9BkUe2NY3A9WFBFgV25Vu+dPuWm+zZz6Ll4lsuXdJtHdGOmCjxLU+2AaMa8Fph/wEffsCPZ3lDoEUIyXYip35vCMw6CMp8SxIFSz19y6efisIl+fQtYc15cTKxk4joKMPbXdJLf6euTwTa7wbzxhze+nONICjnWxZRtL/Mt2SzYjX2ZI4fp8I4e4zm7ZRXdXhzbL4RoMZLAMOeJy1dIQjjXKbqx48Iyt63rFcitxVzodu3fMmqj1mcyKHDFWdeGuey5L51F3MVIkDGzs3rhD/H+fM0acKFk6pkFPoJQeEZmeqOeRRskgfn8i0XxLckLGG7vm/xEWcyCXuiagiQeXcsk4hucvnOH5n9hmx1+gfB1QhBEKB8y3ekbZfCtnEL+Xne+9FKets2HMv2PwJEGlcs5cV4uUxLZcgI2T7yA4LLVqyOAweYO491G7iif0MdOxAbRVwUFy/RqYeA0GbPcW9bGtWGwCAU5vw77/wPgXXIOUTTFqqsVD+CYEevvuzd673hk08SPYkpk2gbIb1omnRwL936y+bsor/R6hmK7pqi94jg1Zm87xsBagvQypDn2bKV9hF8uhuDUVXWakYQ4hg8mPRt5b4f2pgJLzD1Rbp2Vj7vdklhs7L/ID0G0KWzaGTyknI1vFIIfvoK/+u5OtQLKzdyaddNpDEmErtdJelZHaodwYRxvPYSP+yBoV5J5kXlbsiFoHNnDu+XAjZnNu/85X4QNG1C9kGCQlTt9B11+OwoHXrK5V/eYtac8mOnSggsXhCcPU7z1pDrraTfgWCvmpkWho1y1/BKIdCiT092pqtv6hW80ghm+RKip8vltvX0HwKl6/FqR5B9mPDWd803PQS3BIE2ULXqdfZ8pRFo8erLvP83feKloUljEL98nT/9leBgjh8itGmJNFYZgYUQZzkEhwhvUxkExTJQszJkoBarKXPxJI1D7xWBFvPmMvMnFekiShotDB5J+nY6d+LwdrWOLKglCJBHtGKZu4Yv+pCpL+mvZO5CoMWOjfTrp9yE79Ck8Rptn+Orr5gWS0KCSjikliBQA3XOL93SmLGbjl3Up/eGoG8ftn2EyVDRdEBGXMYROvWSy/fe5Sc/l7FwTwiCOZdDWLs7EFirDwHuGu6SxtBQThwgqL43tfdA0Kgxk18gLpqu7dWo1jNCdyWTuJiYGXK5K43eQ/QRGJRVtckfDxzh/XksSfQrAvXpzVzCVQ0f+EPSN3hT+xIEkRNk7sgt3l16fYcy1K/P4t251H+Mb3OYOUteqJUhMODevHWQpbn7FJJWcvpMuT48EZgJKag2BKgarkljd7mc/TNZ24ooeH6nBMFrLzP37/ewNPIaShoHjZDzBcOGEFyPlBT1TnGG+85PnyBpDfYVfHbMewc9erB3l1aJ/IGActK4fBFRMR41nMp4BN9h4Xoubbty8aK8bisoYKWdEYNkUyPBLjepF7YABg/gF6/KGzry/YRA2Ztfvc7bSho/26+2j25XNwJkOpzKpFMf93GLVq1kAubplBWDif59mD6FUUOp10ytKbSbNz/tHwSUszfNm4s0BgaVSKNvBEalDhZ1A3k6nRvUPNcK5Nfs2M3Pf8Xnn/sC1bULU6OZMJrQlkqYpNtAzEOxzcDY0W8IKCeNwwazca367SIdBEaVdgDF19m5Txxks6b8+V21QVDav9Et787LbNslb6LXb/J13CY8nCmTiZ5IS9fmrTYMCw2Y+2OdjmU0xhDXdpk/ESDSeCyDCCWNb8zmv99WC2HPHeR5SsAD5f6OHmXxClau4cJX7tYJHzDtFaUjio52sXO/VLU1Po/bhIURNZHYybTvoMrhLZWLsRu2qVjHY2zs3igsHVL3jUAbXQf3lX9KXsPD3qyyMz5KBoILwS9ek6qWc5TEVSQmcfKUl9ZHd8n2zCd7pbAlr5YBpRcNH5d3c/HR9HxOKLu3rY3tME/B9iKmlndkXg0ItGGWnaF+ybfJ89j5MZo4fpDWz/L3v/KjWbLOr1OHXXt8tW7YkMaNyPxM9wtBwYwY6nHoJE/pnKEFtkjMsZjbu+/Bxw3eNwIt/vAb3vyPezB5HtLYsiVfZLFgofJFVQirjSEDRN6HDqBuI/XAReQaYh2HLR5Tzwoz90RgIqTw/hBokZrEmPHly75Oq1JpjJrE8CHEv3yfyWtuYloMo4fRwHXoRHvmxUGYRyiRG4jBojfg/YVAW2Zk7eOpNvdg8jx2fiKeJutYRd8vH88+Q2w0k0bTrJUqK/Iy2oJ5MNZpWEZi/EFlM682BFq0fkooWAL0NwhKI5gkO1Hxlbi/Nq2IjiRqPG3bqWV/nkve+xAQj2UMxob3nXl1ItBi/BhWpXg7CFX2O6qw1ZGLyEkkr6zgtpo2YdJ44iLlKK2UQ1fmho5S2CwTMYVVPfNqRqDFf77Jb39/lzS6HFuAVI1T2ar4JZOTQ5GOfGq274WRTI+ld3cMQYqptqA0PIktBms0pvBqzNwTgZGQoqoj0GLdSkaOLZFGo1rwGOU0ZUqqvJU88onuTQTW4flhIu+D+mBtUHKm0BiKeQK2aZg6u4/tVXfy1Y8gwCZtn2gvz/zKBdZukndzO3bpvpU0mRjQX0q6Zu+CQ0sLW4hMcpH3fvLaxG+Z+wWBFu0j+K83WbBE3ko68tGLHt2Jj5FDJ48/oVZW2oAvtmEeLr7FNARjwPeQub8Q+I4OEVLYJo+lRWv133mevmUUxnrfZ+ZVQnDgEN37V+I3Wj4hy6G4SYR3UOp421XYusgyTnxLkxrJ3BOBgZDie0Lgkve6ZOwX61JhNGrEhLFyWL5LZ/fpU9VnOLYpSt5b1mzmlUTgOk1p5OxJVqYyfwnZ+sdtQuoxZoRk3q+XDG155i7fYpmELRZTRzfNWhM+EbgKm1lOU36s5H33Xt2OtJXy0EEi75pvCfg3Vc9l9d6gxLf08mthq2YEJ4/S+hm53ZvfymnC+XbSt8rmpPf2BjlooGU+ahj1mpQcltfGvXm0ErkB9+Fbah7BJ3u5dpX3F7B+Izdu6Lbs2kUc2/hRNHZtyMmZQqvkbJ2JZURVfMv3j0C2NDwRaKvUK5d1G4SHy3GbyBd4qp3K8LbK39hbyfvYavEtNY/Aa7QII9JzQ871/sfoF99SuxA0bMC4MbKS69m1ZEPO7VuisU7B1PbBzbwCBKX/F1j/3lhKN+SMjTBPxhaHqWutlff7R9CnL7v3YLHKhtyMOIYPoE4j9cDdvmWs2pxRvuWhC4UgkDd+I+98osbyWFjpaxwbxqEEvuT2LQ9vCALNzBoC1RLQtTlj6a+e+Zia8i01gMC9z2PSfMt0r+9bHu4wFF/rLSsZaxSmpx6pzD0QFF7BEKIyf/SyV/EvSlZazxgUb20AAAAASUVORK5CYII=" parent="vQ7G1RI6OjXigHQ9-KWK-0" vertex="1">
          <mxGeometry x="200" y="240" width="86" height="76" as="geometry" />
        </mxCell>
        <mxCell id="tsqTvnH3BOsCTxECm0go-0" value="" style="shape=image;verticalLabelPosition=bottom;verticalAlign=top;imageAspect=0;aspect=fixed;image=data:image/png,iVBORw0KGgoAAAANSUhEUgAAADYAAABMCAIAAACpntMtAAAOOUlEQVR42u2aeVxU5RrH33NmHwZnYIbtAjMBCuKCXgFFAjVD0cqtTDOt6zIgiIoEaqUOm6FZertCIoum5ppr1i3LXFPUNDFMARcQZlhHGWD25Zxz3zMDxJYMikX33veP+YjnnOf9vu/zPs/ze895EYIgQO9uyP8Rexni5Rt3ohOzXx7jvzZuVq9DVDSoE9bt2L7ne4BjwGjyHOi5JSUyPHRob0HM3PP9yg27lDV1gMNCURQaJPRGYDJNnTw6I1ns6mT/ZyJeK7gXuSYr/9KvwIaJUCkIgrRcwnECqDU0Lic1btbKhdP+BMR6pXp52q7cvd8CjEBYjBY4aAtpdRtuwoBa6+3XNzMlcuzIwX8c4rYDP8Sv29lQ/QjYsFAKaiEjMAQYUAB/ISMdQ6iEBbvJ7xg2Y/oL6RKxI5/7bBGv3bwfLcm6lvcrYDNaPItDCzpKH3v97ODyoR6K2nrmwctuBXf4gGlEENQCiuM4nE6mPTctflbc/MnPBLFRpVm+flf25ycAlQI7hHwAQQi44GDfNFbQgMqvl53nO+EAA4ACgAGkHu4nORgI9DqyD8iJIKTTURRodAP8+matXRgS4NuTiDsOnY5bt6NeKgc8zraRQwrrGj4uvA9XIeByJjjx5yiMY8fWuIi/I5QqBDc/wAF4YeipD/p/zed83qhU1NYBEzbc3Vni4ZpQKisqqYCsb818cdOqeQK7Pk+LeOP2g6g1W69cKAAwJmgUwmiKDx7iQBDv3ysPF9gta9D4FJQa1RodwuXN4rqtOg50akAHyqvjH0SzGISKYdDW9ffY7+m8vb7ek8FIGug16dRPmMFImlbr2ALehpVzYuZMfEJE2O+KDZ9v+exrgOGWmCUXPoZvDRt+t1E9qbBcVCTVG5QGQCXIAIHTx+27F+MM/p7AXO7MCNPeuUshL2FUgDEBzejmuGOQR4CP++If86sbVE3pE7peoxs6YlB26sLAIX27h7jzyJn4tJ2PpDWAw7bErKXB9cSwYazw85639ztE6G6sqDXBiOBzUReurkjhFOfoOH+7rjiwdPFQoK6kCZ0MPxdTqBSmg72xqup+WFCMUX+/rLp1BiVBdXqIMX92+Mb35vK4Nl0jFhSXRa3JunQu3+xZaptsTBBw4U8Y7BWnNvrLGy6H+Z+Q1kwROve9KxX4ico/OcEYMVi0sezRUd+H/8rn+rvz/T0uSOtkfNsije7d6oZH8rrN7oJ99yvkdY2thw0s8a7S9nHmb3rvHwtmhv0uokqjfX/jvvRtx4ERQ9iM1nDNU2gKHeD5RX/Pz+6Vf2Uw5MM5BiB9iE+pGqN7SBNnnQM0G0CjAz0DMB6cOjt498lh47k2W6VV58sq/Tzc/Vj0FQL+eR5r8bGzCJXazn6z3/UjQoZkpkT8faBne8S6etWgicuqSmSAY9NuiL8NFKYYCspkM3RKLZmtYQaBj1IQYMSBCYwfIVv+yq1+zhqVnrr3oijtWH+goQEWhRQWKAUuaDI9sRgwI2FaPXwWoaAdZ4EEhVdN+N6cd2dNCm2DWFZR+1zIQvhk53wYbmtnS+ewTBjeoGiETkHptBaj5l/IynZzcWxUyhvr9YBlC+gmoNfCsEVotKbsjeECBy6XQ642AhDlMjmGYR0pyTsVyrVJEatiXmuDKK2Si0ZFETjoiGgOZGzXlDEjztzQGI21fp5xisbbxWVk9obPWwqMwRgW4Pu1GltgxxKwWW8/qNaqtfXPuaxqqP+lsOlOwmhMnxDyZp2SPfelis2Hxhi0sgdVqPlSe8QG1fqUhSsXTu0OIgD7AgYGfXuVlzpfuTzz0vTQmXkFAE4khsGcTM4hBQ0d1v/fV+5EjvD2RdH5Ry/ablqsWpObFxYw42oBXNzkIkGRD4OHvn23wubd2RXvZ4d5OFaUVvYk4h7/AaMKy91+2VEinF7g3/dLhz7TYZDyOCvLKgY52EVDucPnDfvmcmywrzdAIn4qEhxJK5+YQEuL/FZWTaXTqULHhh8LRvV15+88wV/9dsXq3HFCfk8jBgwMvf1AT6NTOExe1vK6F2Pt33hRc+R86eQQ3vVie6WGOrSfbs/JFdOe9yZA5NVidOooxa4TjrGvEdfusof350ROLvWaKch4p+qjPc5r5j4bRP+Bo+5IDc72DA9Xp5Vv3hK95LBojlFeLwjyrUrb7bRPYjtuuMxxUsJoP28EiC/cFlYeVZ6+LpvyLnOQB3viSH7MtELhq67p7zzcuN9Z8o+KVbnjRIIeRjwcOGhsYTnvbHqJw8vuu9bIN+yl93enKnVlCyfhWV86XSum+LjTrxQtmxbsgyDivafxUUOxojJFoA8mcrE/eAbtJ0R0OudUcfWKTJdksfT9zBB3vrSkBxExLGLscF82kz5mqB6KRZRCFTmyz+Y3MOkpt0tdHbgRTgIVi8Fl0Hbflzn3YY9hMo16o4aC7Kl+CBOMxNWRXa+uCvUj2AxTkZT2nJP6rmz91VsNdcrOc1x3EZsooTyBUQl/YSDDR+C/WQwyG8OkQ1ogSG0G8w+Zz1tVVMufML1TqFDSkgmcak7jNKgxqJ32ZRViUyHpurXdqMC0j7YSBxjeeojmrpAu7ME9BUqWnC4Q4X0sFgO6lAS1usFyptJo9AYMdkGYmx2PgxBkFbHSAkmGg/pGJVRORKP6sYgabZpE/F70q1pSI1nbWEzG60s2Hjp2DmUxcAzrY8su+j6db2cLS5yVFmhUSqm01jc8FoOkSs1jEVWajWnR7yzo3g4ItlnL/rn/0GmUzYSakmPLqrq0jcNmdstCpVzhFiy2MHSB+NHaqISIKd1FfCN204HDZ5oQOSzZxRyuLbtbFqTVj0QhkSTOfyHipfziBqWGgrZJECYMc3MRDPYWWoMIH8/7uZACZWwrC7BXuOxGBQywYTOeFnHA+KWFV28DBr3NkNXaGXNfOZAebw3i+Su3Ro9bClj0NnkH5jXM9Eterp+P6GkRh01dkX+9GGHQWhMSat1bc8J3bVhiDeKl60XBr8QDNqs1Idmv0XTrVMaAvu5Pi+g/dcX1/GK07Sziau3bs8N3Wo84KR4hEVu/OsP/Cogm0+1TGb5eTYiy6kfC3oeIlV3MFboKLP9T36gWBMzFYOXsJYgWARUyYqAtmwVx4Q5dpzecvXyLfO3RRQH8oxBBawHVxILAoLRCRvyBiL/X/mREcubgKuxUAFkrxp4lIjAXFa4NEyeFJtEODycIlVpjhRh7lohQ5zoIuLdOfMJmMTGsjR6l0SgPZLWDJr6D41jXYuxZImICAa8qL4dKpXb085OLsR5G5PNkF7IY7Sq+ufWK6gIRHQR2tT9ta/t1plch4rgdz/ZQRgKLSYdrEceJQD8vuKnoRYhkdzAa9AaAkxUQYFjBxZwW0dkrEM15EVjSDfnNxtT7lc5fQIz1FOLACbG3fy1B2+44ewDRLLpuns8a5PPUa3HTZ18lpO0kVFryu2nzK5GnQTQLHBMMmgkvBx/cHM+xYXUb8eMPouPFTVt9eBXaLa+QRyfmfPPNBVinELpZLz0pIo7B+qZ17eeeniSeNm54a8/Iasyqu+vqotZuWhcdN28S6NC+OnVtSUpuWVEZnE44B91FBCwm0OgBi7EyalpK3Ew6ldbOvvxRo1PQfJKn8xpdKReOijJ/+sadHOw+kSx44+XnO1KacDw1/Yu1GYfwWsVbkVN2fbTUGsS8n4uenxALUHTchJGfJkf0e86lo+V7ZZVRkpxT5/IRGpVUOsmRcCRtEMsr5aLAeYBGRWg0wmQCWv2YsMCtKZE+nq4dzZVIa95K2OzqZP/FZqv20acv35wS+eG29YtmvBTc0RqGYZJPDqRtOQx0eoTNJHlq6tZ+GLNq0fQ2iLBt3HZ89cZ9OkUD6Ue4rtU6wKYvj5iWumxmp1X/fnm1l9DZGsQ6hRIatOdxOhr58uSVxcnbZffKYadQz5qPpmCTJ4dmpUY6O9i1R4StRl4PV9vBQ2cBjQK3EaQ8Vmmcvdw+TRK/Oj4IPLZ1950OVIdRidnffZMH6GQIkq9M1RoPX48tyZETRv+99Z2dfOz94dLNGEn2nYJ75MgoKJkgDMbx4UFbUsReQpff69J6RAzH1qYfTt1yCGtUA0vGUWsptjarl7wmWTwD7bC/+d1P5h/lHFv9z/2GukbAIcs/0GhhSL4X/Vpq3AwKpRNBaiXiv89cj0nKtqQF8/iNQG98ZXLIp4kRQleHTkked/CgslaxNCX38NFzgNLsd6XWzVsI/T45LLC7iNKqRxDuq+MXAJ3a7FmtyFuUniKe9ELAY5ZE18c3frh4E5pu5XcjMBrDJwZnJok93K0KF1iMUjOOpGQcMDVomjyr0SIc9upFpGepVPTxANYeglm39XDivw4YFaoWv6M2LNiBZOnrlrLWHjEvh8shEU9euBGVmFNy8z7gsJtGaDCNCw/KTBZ7iVys6bobR4lkVXWxH2w70uL35hjMSIp4acwwmCl37z9pQbTtw268sbtarohJyj1yrNU6UWvd+gk3r543LTzIyk67h9js94JFidl3od9bZsVomv1GeI1c8cP5fJRBgxKGx7VZPGfix9uP6x42kLNuybIs+sroV1NjZ8H9aLd6fJIzY/CBdZlHkjbvN9argI15wen0ZGVqOaIFJxiqf5jw4BiMJnh17PgRmcmR3h5/625fT4hoaRXVdUuSc49+eQ5QqZZ3uO1ffEHpr1I7ebqmS8SvTxz5ZL08FaKlnfjxxiJJdumtEvJET/NnUfKgm0YHZzFOPGV9wpv0zurnH4cIfvP7AbPfmeRRBL1hzNiAT1MiB3i5PaXxnkG0NFn1wxhJ7vGjZ+xFLumJC95sPsLSixAt7cyVXwd7iwR2tj1o83/sXPczav8Bk/vzDmc69cEAAAAASUVORK5CYII=" parent="vQ7G1RI6OjXigHQ9-KWK-0" vertex="1">
          <mxGeometry x="820" y="82" width="54" height="76" as="geometry" />
        </mxCell>
        <mxCell id="tsqTvnH3BOsCTxECm0go-58" value="" style="shape=image;verticalLabelPosition=bottom;verticalAlign=top;imageAspect=0;aspect=fixed;image=data:image/png,iVBORw0KGgoAAAANSUhEUgAAAEwAAAAUCAIAAACoKEzmAAAHTklEQVR42sWXeVBPbxTG+5ooIYqyTdJuKfuaPQmVpTHSgrGGGPtW1DCk1DB2stUUoVUlbZMwYexkF8OYJjP2fS8+OjN3mtvXj8mvcf9ozvft3vc9zznPec55Nd+/f9f5F8+zZ88ePXrUoUOHGjVqVPdZmtLS0j85hlhoNJoqHPCrDz99+hQYGOjv729tbV2tCMvKyjTjxo378OGDsoQ9Z86coqKi7OxsPT09Vr58+WJvb79mzZp79+7NnTuXRZzmtcmTJ48aNer+/fuzZ8/W19d///790qVL+/fvDyo/Pz8SRfjat2+/atUqZfOXL1+GhISkp6fXqlVryJAheXl5zs7O4eHhBQUFvFavXj0lKIMHD546derjx49nzJjBYt26dfft2xcQEHDz5s2aNWuK6/Xr1+fojh075uTkrF+/nnUXFxcbG5tNmzYZGBgoh9auXVtDGvmgInQ+uHDhQlxcnLLSunVrdk9NTR05cqSyOGnSpD179pw7d6579+6ysnDhwoiICJAYGxvLSrdu3c6ePat88uLFCy8vr9zcXPnJ0YaGhux84sQJb29vVQZwY8yYMc2bN8fW1dX9+vVrp06dLl++rHrt9evX8fHxRATb09OzZ8+e8+bNU72jIaLUBicJ6DZt2qxcufLQoUOxsbGswKWGDRtSOTt27Ni1axcpUr708PBITk6+ePFily5dZIVAkv9Lly517txZVvr27QsA5ZP9+/ePHTtW5cHu3bubNGni7u6ODSRbW9v8/HwJ0OHDh5s1a4ZNkt+8eePo6HjmzBk56MqVK0+ePMFOS0t79+6dj48PNpHCWLFiBXA+fvzICnDMzMw0/OBLJycnlmAXH2PAQwBg7N27d+LEieLN4sWLSRRcIgNQsWvXrqSxIiRLS0vYe+DAATmyMkje5H0M4gJZZJGjqYLhw4djw9J169ZRHdjkDWJLJlUgT548GRkZSciwExISvn37JkQYMWIEccEgK1evXsWAyX369NFQA5mZma6uriyx+7Vr1yqC3L59+/Tp08UbXAcAVKQYHjx4QJIpXfiDN/IClfb58+cFCxbANK0gKRgK28jIiNhBBFmMiYlp0KCBgAQwJSrUICJkSStI+BIVFXXw4EHsxMREmCwg2YSawnBwcLh+/brkediwYT9BHj161M3NTSvIbdu2Senz9OvXjxCSfShEpQH11atXZJ7SV2DA/GnTphE1rSDbtWsn+x8/ftzExGTKlCk4PXTo0PHjx4uXfw6SMFFTvwXJTxZ/A5I6xBVxsW3btnAdJtjZ2XEAakbRk0xIrsBISUmhMdy6dUsrSGi5ceNGjEaNGgkAc3NzBBah/pcgqUPsxo0b442pqenTp0/JJwnZvHmz5A2c7ChSiUrT9ygSXtMKkvfZR2zE5vz58/B/0aJFODp69GgBSU0KNf4DJERA2EUak5KSqBFRgSqClGf+/PmcTTNkO94EJ+BZp7gRdzIsOky9weSSkpIWLVrQLRA9FUie6OhoRclgBNJFF6Fd+fr6sjJw4ECIwF9soB45ckQrSBommiQwOPT06dMQ/m9BcjByQi/Bhlp0HQl8RkYGikoXFWFEMJ8/fy4JQZBomJVB8mzYsEFpZVZWVngJ8eif/NQrf8CDDSSy1LRp08oglScsLGzJkiU0IemTVQQZGhoKqjp16lB7VCMrDBmAFDVG4nr16kVnw8ZL1AjVxQYDEs9UpBUkj5I6KWOojvqr3oGNlKtWkCg8EcRzcRg3mEyqDhJfZQCAOWgxBoCZGZjasIOCgiZMmEA2sNEn9ObUqVM65Y0HjYHbKpAPHz5EeGF47969ERioyyLDIK9J1IgX86NOeROHIERWIqgCSa2SPf5iHzt2jAKRGaOKIJUWsnPnTnqDKtjED5wWFhbYM2fOfPv2LU0POysriw0ZGFQgFVrCDlBxCjbCA71pJNjwgjlWef/u3bvUbWWQDIaoK6KFzUzHQX+lrgpIqE/sxT9QLV++XOpwy5YttHjsWbNmQa1ly5aRalyhr7CzCiR7CjAignoxaqpA9ujRo2LV/Qrk/9xCyAzXFAz4IGMUeshAx3DD1qg8lwMRHvLM/AmlkSKAMTNUbiEKSMgMSBl6/j1IXGGRtCB0bM0KL9AzOJW7VcuWLTlDejcZxt1WrVpRb1SLXERUIFkXgeFgQrN27VrhCBe0agepiAo73r59W6d80pWylgcY8F6uOSg+SsNQhvagQARowIABkmpuKlz8yPzWrVvpftIGRIrkuXHjhgzfFR9Kiw4sWYUayuDOc+fOHaKmU95auGTDIPkvhzIMEHepSW68IjzUOV0Ng6/4VqSb6+FPkFxeg4ODmVcYZWhi7MhthfldudEjcfSD4uJiJmmqlNGHizUe85PODiQZEhBYChjSkkBKFB3idkcrg9uyD5usXr2aUVHEmastYWbM4L4mogoMLjpyWZeg0LH4impnHiTzvKlTPgzQrnBbiMAthE2wBw0ahOckFvcKCwvpTPxk8QeFq6f4z9oNGAAAAABJRU5ErkJggg==" parent="vQ7G1RI6OjXigHQ9-KWK-0" vertex="1">
          <mxGeometry x="730" y="193" width="76" height="20" as="geometry" />
        </mxCell>
        <mxCell id="tsqTvnH3BOsCTxECm0go-67" value="" style="shape=image;verticalLabelPosition=bottom;verticalAlign=top;imageAspect=0;aspect=fixed;image=data:image/png,iVBORw0KGgoAAAANSUhEUgAAAEwAAABMCAIAAABI9cZ8AAASLUlEQVR42tVceVyM2xuffWmWNpQlu7iUiFRIZausKVLKkpLKkq7IkvUWEdearWxx0SqEUkgoe2StrvVyuZTSLO/s/Z7pdadpZpqm/f6ef/J555zznu959vM8L2xlZSWmxYnN4S5auY3JoDnYWw007d1WXxePx2Gx2GZ6HbaZQIrEovJyVht9XZW/fispM7Z2Lf9egSXienUzmjDWxsPZYdDAX5oJZdODfPbq9ZmzmadTMizN+506GK5yTHbuI/spAQwaFV4Ox8FD+AQivnePrpMdR7i7OJj+0uM/CrLozfuUtOzEc5lPX74RCgRYPA7k8GHWCZWDt+//IyTsd6YOU/ZEIpGIRGIewiOQCCZ9erpNHu06YaRxj87/FZCxJ1MPnUgteFbE5/HJVAqRSMDhcCKxmEqhFOYm6utpK0/xDtoYF3+JTqMq/wRohUIRH+GRqOQBJr1nuIx1HmfXpVP7Vga5ZPX2XXviaPo6eByueq+VlQiXdz11v43VQOUpTu5BV3PuU6lkZYQ8vpBAwBIJRNiYQCgSIDwagz7EvK+789jJjrYG7fRaB+Sfb/4ys/cE2wgWUvYQlmWxOJvXLFyxeLbyFGunuY+eFlLIJAWEbA6yfX3Q1VsPrmTf0aJS0HUkEkArBBXQ1mYOteg/Y6qjo51lbSat4SBLv5e///jFvH+f2gZM8V5+/nKOgvhxEZ6DvWXaHzsVBosllaY27m8/fCKRiHIIK9lsdsiCWVHrF+c/K7Qc600mE3G4GqcGp8AH5gqFbdrojrAaOMPFabSdhTaD3iiQfL4w527+HwmXL13L5SLI05wz3Yw6qByZfeuh/dQAOlULh6v2AkKRSE+bWZiXRKsJXiSWmAx3e//pC4lIrGZ7BWuu15TDO8PQJyMmzbv76IUCq2WDxWJAKxCLxIYG+mPtLb1cx9kOHUgikTC1kAqQcGC37xacTr1y+ert9x8+Y7BYKoXERfhg31PjttW20NBxPg+evKRSqtUM1JLLQW6mHRpqYaawTzM7r8LX78lVnKxCyHadNDrpSKRsxLqomI1bDzGZ6rhUhVaM8ATwr85Ghk6jhoL7sRliJs9/FSDv5r84nXL5clZu8eu/4CnsmEDAo4EI7JjN4sRFb5jpNk7lK89evO4yexmDSZcFLrAC8GdNiN/GUD+FwSNd/OEcKRQyitBh9LD0MyDV1VJwISNn0oxghjZDkzAIFgH3g/D4MLZnV6OJDjYerg6DzX5RDfLYmQve3iuJekwymYRTWh20n0mnPcyK69TBQOXLBo2e+ezla4ocM3l8gZmJ8b30owojnecsu3jlFhwii821sTS7mryPKKefUpBXbk1yD2LoaARSXnZEImloAV66d88uzk62M1wcOhq2VRTXiB1HwsKj6UyGvHbJiMXmjLKxyEyKVvmOc+k5zp41jh+UB875+e14BUe3MiI6cucxUISBJsY302JpWhSFpdZHxWyoS1zVoZVUoeXx8AQiHKIKnZwfsvnQsSQGU8UpotIVvjpwdfBclatbOXk/KiiUaSZqUfZvW+U/x1V+WML5rOkeQb0H9MtNi9XTZSqvM2y8L2i4SsNTT7QSUFHV1tVj3uozZzPkFUxGoOsCgSgzea+ttbnyxMzsu2OnLaDT6TJBAFUZOsQs++x++WEvCt+M9wzOOXfQqKOh8iK59wtGTPKDk1I2IQ0j1SArMZVTvVekXLjGYNKUcYKmGejrPLx2qq2+ipDN0T0IoMp8JkisBCN5cTO+q5z7EQgEJd8rOhi2Ubkni7GznzwvljfUzQISpalzQ5PPXWVoq+BnBYtjP8z82tkDyrMKnhfDLolEIgRAsDgEoryv33/ftSbY30OTDQUs33LgaCKDQW/C9LKOiMczYM2phIt0JlPBDqHKFuAzfd+W5cqzFoZujT6coEWjcrlI184dgwM8Zk0bp6PNxNRFAcsiD8TG03W0VZq95gL582hj42lMhnxoikEDsQrWjk0hS+Yrsqj8B6uXlQsPEawK9v410ItMJGi4m8jdxzdsiwHmQ+DacpxEadPOo6s37YPUiVhzu2jAcfpgOKR/ClOu3bwPRqVXd6P6bujVn+9mBq5/8OgpjU5XONaGg7zz4KnlIJM6x8WnZvoGh0N8TCGT5Y8YTh0Clctndqk0tg2mVZv2bdtzAoPDghdpPEuxfYZO/XW+57xZznUOvf/4pZvPivcf/6bTaphcPl9Ao2llJe0daNq7CXHezHs8b2lEYfE7Ol2rkb4Ey+xuV1HBch5nvz9qhWE7ffWjv5Z+9/Jfl3k9V0GWOFwEUp78ayc7dzLENB1B6rMkbEfsyXMkEgFSlgazVAoSQj4Oh9NWXy9iZYDvzLpZGrZpX+SuOAIJD9kNVpofSjgc7gIft53hvxLw+CYEidL5jJsLQrd8/PsrnabVMKsrBYmRugQMBHsIgoywHrQjItjctI/6aZCF+SwJ//KlBPwEh4OELfX9bcX8Jocno7LyCv9lkQmpGVSqFlFjW60IEiWwtJDO43D4uTMmbgidZ9BGnfSWfC+fs2jDxdTM5aHzt6xd1HwIZXQi4XJQ2LaychaDrlUv0a0BEiUIxDhcji5Te5Gf29KAmUyGlpr5GdfvONhbtQBClD7/UzJ/2eaMq3nk+lhdFSAxVdILPpDL5rZrr79knsdCHzc4vBZDUifN8A9LPH8VvelqOMh/oVZl3FzEsEPb+V4uAXNcDOoyv01IX0u+v373yXqwqfJPY6YtuJGbr3kErw5kDagIoqur7T7FYYH3tH59urUMzmETfG2tzDeFBSo8Nx/l9aLoLZmkabaJ7WDq9PfnbxQqmYAnqDHQ6B0ZwkPIJLLVYJOY7at71j9kqy8dO5PmPTvEws4q/tCmbl2qMzXzkV4viusDMuvGvUtZty9k3nz99qNELCFTIJyWXl6pVGvQVQThdTYyyL9+iklrdi0ViESmNu5F+S+69Ot559JRQ4OfymI72S/vwbN6iCsaoINA3st/npJ2PfPGnaI3H3gcHoFMIhII0rKhHH8lUr/Py0jcPcbWsrkRopR3/+mKiL1sNhLo7erjORl9uDpi36YdR1ReXKgDKU8A8trNB+nXcvMLij59+Sbm83EkCKqkgIGNE8banD+xvWUQ1kafv5aYjvBAED5woYEgZSQUCl8Vv7ub//xm7uOCl8XvP36pYHEfZcX179erdUECQeonZWZdFwiADo/H16Pg8620vKS07BfjFjKt6ul7WUXf4W4VbA7olHqQIIXNVU6vk+C9WKkhwzY4t5BeEUfsU6+ZEkklnUZtNZBAt+8VWJr3JRDqHXCjxOZye1tNg9hdTcgOllJPh9maIPceSVg4160xK6BleTUlEwhOOxi2xRa/+QCZrqyKpoakAtakXSgByyOjI5c3Juvn8wW9rF2/lZTVtn9wjV07t8eOcgksfP1BH5IOJl1fT5tKoZJIOC0qla5FhcAA3KREJPnB4hh1bLc00KsJEcKZWTrOvXh6Rxs9ncYsszsmPih0a22lIQDZvWtH7PAJvnkPnoJiSAu5lShhfv6R3qRXFdQq2Bsilq5d6tuEGMUicXtTp8QjW2ytBzZmHaFI1Nva9fOXUhJJBTMFQqFZP2PsOI8lWTn31JRWADvCEzzIPD7AxLgJQYqkIB3dJ4/ZE7m8kUvFxKX6/fqbygoVjy+wHzYIO3Vu6Ln0HDVxIBwViHFxXgqF0tgakwLI7hbOYBje3E8lN656BZlDPxu3d399Vg7ZER5/4lgb7OxF608mpitXCGXERXh2Q81rq0k2Zme9rFzfFr89sv83b4+JjVwtLuHS7MB1yuUp2Ly78xhsYOiWA8eS6XIpBaqQ0jqmtEonBH8UEuoXtW5x04IE6mczHcLGbkYdnt06QyE3toY1YKTny6J3CnrH5iB+M52xYZv3h2+LpdG14GjFEgkIJ0ZcSSAR9HW0u3frZDGgr42VGeQc2g0t+qohx+mLIBMQisSB3lP3RIZAvtOY1RLOZU6ft4pBr8FMiPtCF87C7jhwKnjZFl1D/fbt2nbq0Kavcff+Jr0G9DXu2qW9rgZ1qMbQ4pXb9hxJYNC0EAQx6tQe5Arktlf3hvfTWYyZ9eTFn/L2peIHa8v6IOzrdx/ZbG57w7Zt9RvlrxpAqZeyp8xcCvEKRmrexDwuQtGi2FqbL5g7bfyYYQ0IEs6n50yeFSItK1QxEy3+R0etaM2wrqS0HGwPuDL03h32IanqQhIJBD26dfZwcQj299DT1a5tOhgVIgFHJNZQwuHj593NfyZrWYNs++zxra0JEiMt8q49lZzOZNDkH0rr0yIR7/uPyS4OatqjOBxu0KrtURuD5NXqSvYdx+lBNC0qDmI1SSWXz8tOOaARyCaPWmX0vPCN+SivqnsWxRy/qmNSkHvpMBi/2qaH/35k8+5jm1YFTnIc0dWoA7rHMdMW5uTlg5kFJwwe+NaFmDpAgnU6e/G6l+s4PKFp6qHKFLpxz9adx1QGnyw213WCfeLhyNrmlpZV7Ik5Q6fTenTtOH7UMBKZ+PmfkhGT5n/6/BXyL6FQ1N6gze2LsbWC/PKtNPbE+egj8QQ84a8nac2EEKUJM5ZczLhFZ9IV7kSlnSMSyYOs42DzMVUF3x8sVhu9WptAQZ9tJs57+OQV6vYh3BluOeDCye0qQD5+VhR9OOHsxRulZWV4ArFHt46FuUnNChI0cGbg2vjkDDKVIr2tkOvOY1ew/ea4HohagT5Zu/Wgvg4zyE91I4mb74rEc1myix8QBP85U3ZvWlYN8kcF51zGjZgTqXcfPhUKxWCg8HgcRJiG7fSL7ybh8Q3M3zWnP5LTQceKXr8HsyHDCRugUcmFd5J1qxrWf7DY3QY5d+rYbudvS0cOHyQ/ffnGPVG7j8tuQ9D+lCN7NsxxHy8F+aOCvXBl1JXreV//KSVCfEWq7qaFdzDp1Jd5yTrNEPGoJP+QzQePJsuah9C9xuxa6/vvpevZy9ku7osxZPJkJ7staxf27tEFHh44nhywNJLOqC68ox3Aj7LiTH7pKQUJstt90OTS8grlLgQwUKCTRXeS2rVtSPN3w2gYpLj3n8rqaFLVGmJ2Ta5xbZrPyqRzmVg8nkwiLPKdPtSiv7vfarDP8tewoMAGbfRe5SWRyf/e1nn6rzmTmqnc3l/VF859fiseVf2WoS9fvg0YPbO8nIWmYHDQ4GM+PLnI+Hd75T9Y/W09wLQCS+AI8DgsaLKCE+JwEbDM8TGbMbLL5cQLV93mLFe4EZK2I7FYZiZ9slKiG3lJUV+6evO+0/TFRJL03h52yBMIfD0mjbazopCJXB5fIhJHH0289+gFYEP3ryCAUiH/UXE6NtJ9ythqkOUVrF6WrlwuT8ZxYDfCQ2ZNn3Bo+yrN60dNSFujT4au3wU+EG3lBM6AWFUhwGKwGNAslfcdKIEpoVDIRXmJ+lW8qbauILGnU69ATiAN+biIDp2+/bcgb49JLQ9PRjP8w04nX2EwtGRGSPaT+ggMVMx1wsiE2M0/B8tm3rr72GaitMsU4SJ2wwfF7FzTs2unVkSIqTI5Vk7ez1+9Aaei+Sy0XT479aDtMHNFkEBDxsx6+LRwc9ii5Qub9PaxEfSq+J2lkzdkJiSNO1vgaAaYGN/LOCZ7UvNrgofPCETCoP59NFyuZSgl7bqrTygwE69Bhln1EQ03PWGXg721apD/WVojvaOJYWgz60yGIJRzHGV16dQu+Yf/HyCBxnsuuZR5m0Gnq4EJMTAkH48yT/ToVsOaaARSLBJH7Dq2dqlPK4KE2HPgSM+Pn7/VdkVc5dXZ0VErA71dFX7SCKTfrxEnk9I/FaTp6mjXObj5CLy/rbMfDotTrqJXfeTHnjl9fNzeDcoT6waJfg6DweOuJu0bOcKiFUFiflYEwukMmsIHeSwWZ6TN4CsJe/GqugjqALn3cPyildtoWloQcAT7e/y+Mbh1QWKkzfibD0CaIp9SsThDh5hmJUsbyFVOqQOko9uiDMjZ9bRBp427dy64caq1MUpL8JD+594vgDQFbfYfZWeZdmqnmppV3eLqGxx+OO4sRYsqqZTcyzhu9h9o/fj0+evgMbO+lZaLBcLZnpOO7V6nfrxGhudgXErIup3sr2Xr1y9et2xea2OUEqT4LnNXbAlbsMCn7oK8pn7yReHb2QvXlZazXt9Lab7/2qFe9M+37waapfKagoRhX0vKUtKuWVuYDjBpyq8GWoD+Bx2DyBDGVynBAAAAAElFTkSuQmCC" parent="vQ7G1RI6OjXigHQ9-KWK-0" vertex="1">
          <mxGeometry x="670" width="76" height="76" as="geometry" />
        </mxCell>
        <mxCell id="vQ7G1RI6OjXigHQ9-KWK-12" value="DPC / BISTLER&amp;nbsp; / PROSERIES - TEAM TUNDRA" style="text;html=1;strokeColor=none;fillColor=none;align=left;verticalAlign=middle;whiteSpace=wrap;rounded=0;fontSize=16;fontStyle=1" parent="s1-uLHGH1qeWwjEYS3wL-1" vertex="1">
          <mxGeometry x="50" y="4747" width="1124" height="30" as="geometry" />
        </mxCell>
        <mxCell id="tsqTvnH3BOsCTxECm0go-3" value="" style="group" parent="s1-uLHGH1qeWwjEYS3wL-1" vertex="1" connectable="0">
          <mxGeometry x="50" y="5270" width="1124" height="400" as="geometry" />
        </mxCell>
        <mxCell id="tsqTvnH3BOsCTxECm0go-4" value="" style="rounded=0;whiteSpace=wrap;html=1;" parent="tsqTvnH3BOsCTxECm0go-3" vertex="1">
          <mxGeometry width="1124" height="80" as="geometry" />
        </mxCell>
        <mxCell id="tsqTvnH3BOsCTxECm0go-5" value="" style="rounded=0;whiteSpace=wrap;html=1;" parent="tsqTvnH3BOsCTxECm0go-3" vertex="1">
          <mxGeometry y="80" width="1124" height="80" as="geometry" />
        </mxCell>
        <mxCell id="tsqTvnH3BOsCTxECm0go-6" value="" style="rounded=0;whiteSpace=wrap;html=1;" parent="tsqTvnH3BOsCTxECm0go-3" vertex="1">
          <mxGeometry y="160" width="1124" height="80" as="geometry" />
        </mxCell>
        <mxCell id="tsqTvnH3BOsCTxECm0go-7" value="" style="rounded=0;whiteSpace=wrap;html=1;" parent="tsqTvnH3BOsCTxECm0go-3" vertex="1">
          <mxGeometry y="240" width="1124" height="80" as="geometry" />
        </mxCell>
        <mxCell id="tsqTvnH3BOsCTxECm0go-8" value="" style="rounded=0;whiteSpace=wrap;html=1;" parent="tsqTvnH3BOsCTxECm0go-3" vertex="1">
          <mxGeometry y="320" width="1124" height="80" as="geometry" />
        </mxCell>
        <mxCell id="tsqTvnH3BOsCTxECm0go-9" style="edgeStyle=none;rounded=0;orthogonalLoop=1;jettySize=auto;html=1;" parent="tsqTvnH3BOsCTxECm0go-3" target="tsqTvnH3BOsCTxECm0go-5" edge="1">
          <mxGeometry relative="1" as="geometry">
            <mxPoint x="553.9512195121952" y="164" as="sourcePoint" />
          </mxGeometry>
        </mxCell>
        <mxCell id="tsqTvnH3BOsCTxECm0go-57" style="edgeStyle=none;rounded=0;orthogonalLoop=1;jettySize=auto;html=1;entryX=1;entryY=0.5;entryDx=0;entryDy=0;" parent="tsqTvnH3BOsCTxECm0go-3" source="tsqTvnH3BOsCTxECm0go-48" target="tsqTvnH3BOsCTxECm0go-56" edge="1">
          <mxGeometry relative="1" as="geometry" />
        </mxCell>
        <mxCell id="tsqTvnH3BOsCTxECm0go-64" style="edgeStyle=none;rounded=0;orthogonalLoop=1;jettySize=auto;html=1;entryX=1;entryY=0.75;entryDx=0;entryDy=0;" parent="tsqTvnH3BOsCTxECm0go-3" source="tsqTvnH3BOsCTxECm0go-48" target="tsqTvnH3BOsCTxECm0go-63" edge="1">
          <mxGeometry relative="1" as="geometry" />
        </mxCell>
        <mxCell id="eHTsa13YEd-6tjRE6p7o-2" style="rounded=0;orthogonalLoop=1;jettySize=auto;html=1;" parent="tsqTvnH3BOsCTxECm0go-3" source="tsqTvnH3BOsCTxECm0go-48" target="QayPw9rXNkPnkpLyEU6B-0" edge="1">
          <mxGeometry relative="1" as="geometry" />
        </mxCell>
        <mxCell id="tsqTvnH3BOsCTxECm0go-48" value="" style="shape=image;verticalLabelPosition=bottom;verticalAlign=top;imageAspect=0;aspect=fixed;image=data:image/png,iVBORw0KGgoAAAANSUhEUgAAADYAAABMCAIAAACpntMtAAAOOUlEQVR42u2aeVxU5RrH33NmHwZnYIbtAjMBCuKCXgFFAjVD0cqtTDOt6zIgiIoEaqUOm6FZertCIoum5ppr1i3LXFPUNDFMARcQZlhHGWD25Zxz3zMDxJYMikX33veP+YjnnOf9vu/zPs/ze895EYIgQO9uyP8Rexni5Rt3ohOzXx7jvzZuVq9DVDSoE9bt2L7ne4BjwGjyHOi5JSUyPHRob0HM3PP9yg27lDV1gMNCURQaJPRGYDJNnTw6I1ns6mT/ZyJeK7gXuSYr/9KvwIaJUCkIgrRcwnECqDU0Lic1btbKhdP+BMR6pXp52q7cvd8CjEBYjBY4aAtpdRtuwoBa6+3XNzMlcuzIwX8c4rYDP8Sv29lQ/QjYsFAKaiEjMAQYUAB/ISMdQ6iEBbvJ7xg2Y/oL6RKxI5/7bBGv3bwfLcm6lvcrYDNaPItDCzpKH3v97ODyoR6K2nrmwctuBXf4gGlEENQCiuM4nE6mPTctflbc/MnPBLFRpVm+flf25ycAlQI7hHwAQQi44GDfNFbQgMqvl53nO+EAA4ACgAGkHu4nORgI9DqyD8iJIKTTURRodAP8+matXRgS4NuTiDsOnY5bt6NeKgc8zraRQwrrGj4uvA9XIeByJjjx5yiMY8fWuIi/I5QqBDc/wAF4YeipD/p/zed83qhU1NYBEzbc3Vni4ZpQKisqqYCsb818cdOqeQK7Pk+LeOP2g6g1W69cKAAwJmgUwmiKDx7iQBDv3ysPF9gta9D4FJQa1RodwuXN4rqtOg50akAHyqvjH0SzGISKYdDW9ffY7+m8vb7ek8FIGug16dRPmMFImlbr2ALehpVzYuZMfEJE2O+KDZ9v+exrgOGWmCUXPoZvDRt+t1E9qbBcVCTVG5QGQCXIAIHTx+27F+MM/p7AXO7MCNPeuUshL2FUgDEBzejmuGOQR4CP++If86sbVE3pE7peoxs6YlB26sLAIX27h7jzyJn4tJ2PpDWAw7bErKXB9cSwYazw85639ztE6G6sqDXBiOBzUReurkjhFOfoOH+7rjiwdPFQoK6kCZ0MPxdTqBSmg72xqup+WFCMUX+/rLp1BiVBdXqIMX92+Mb35vK4Nl0jFhSXRa3JunQu3+xZaptsTBBw4U8Y7BWnNvrLGy6H+Z+Q1kwROve9KxX4ico/OcEYMVi0sezRUd+H/8rn+rvz/T0uSOtkfNsije7d6oZH8rrN7oJ99yvkdY2thw0s8a7S9nHmb3rvHwtmhv0uokqjfX/jvvRtx4ERQ9iM1nDNU2gKHeD5RX/Pz+6Vf2Uw5MM5BiB9iE+pGqN7SBNnnQM0G0CjAz0DMB6cOjt498lh47k2W6VV58sq/Tzc/Vj0FQL+eR5r8bGzCJXazn6z3/UjQoZkpkT8faBne8S6etWgicuqSmSAY9NuiL8NFKYYCspkM3RKLZmtYQaBj1IQYMSBCYwfIVv+yq1+zhqVnrr3oijtWH+goQEWhRQWKAUuaDI9sRgwI2FaPXwWoaAdZ4EEhVdN+N6cd2dNCm2DWFZR+1zIQvhk53wYbmtnS+ewTBjeoGiETkHptBaj5l/IynZzcWxUyhvr9YBlC+gmoNfCsEVotKbsjeECBy6XQ642AhDlMjmGYR0pyTsVyrVJEatiXmuDKK2Si0ZFETjoiGgOZGzXlDEjztzQGI21fp5xisbbxWVk9obPWwqMwRgW4Pu1GltgxxKwWW8/qNaqtfXPuaxqqP+lsOlOwmhMnxDyZp2SPfelis2Hxhi0sgdVqPlSe8QG1fqUhSsXTu0OIgD7AgYGfXuVlzpfuTzz0vTQmXkFAE4khsGcTM4hBQ0d1v/fV+5EjvD2RdH5Ry/ablqsWpObFxYw42oBXNzkIkGRD4OHvn23wubd2RXvZ4d5OFaUVvYk4h7/AaMKy91+2VEinF7g3/dLhz7TYZDyOCvLKgY52EVDucPnDfvmcmywrzdAIn4qEhxJK5+YQEuL/FZWTaXTqULHhh8LRvV15+88wV/9dsXq3HFCfk8jBgwMvf1AT6NTOExe1vK6F2Pt33hRc+R86eQQ3vVie6WGOrSfbs/JFdOe9yZA5NVidOooxa4TjrGvEdfusof350ROLvWaKch4p+qjPc5r5j4bRP+Bo+5IDc72DA9Xp5Vv3hK95LBojlFeLwjyrUrb7bRPYjtuuMxxUsJoP28EiC/cFlYeVZ6+LpvyLnOQB3viSH7MtELhq67p7zzcuN9Z8o+KVbnjRIIeRjwcOGhsYTnvbHqJw8vuu9bIN+yl93enKnVlCyfhWV86XSum+LjTrxQtmxbsgyDivafxUUOxojJFoA8mcrE/eAbtJ0R0OudUcfWKTJdksfT9zBB3vrSkBxExLGLscF82kz5mqB6KRZRCFTmyz+Y3MOkpt0tdHbgRTgIVi8Fl0Hbflzn3YY9hMo16o4aC7Kl+CBOMxNWRXa+uCvUj2AxTkZT2nJP6rmz91VsNdcrOc1x3EZsooTyBUQl/YSDDR+C/WQwyG8OkQ1ogSG0G8w+Zz1tVVMufML1TqFDSkgmcak7jNKgxqJ32ZRViUyHpurXdqMC0j7YSBxjeeojmrpAu7ME9BUqWnC4Q4X0sFgO6lAS1usFyptJo9AYMdkGYmx2PgxBkFbHSAkmGg/pGJVRORKP6sYgabZpE/F70q1pSI1nbWEzG60s2Hjp2DmUxcAzrY8su+j6db2cLS5yVFmhUSqm01jc8FoOkSs1jEVWajWnR7yzo3g4ItlnL/rn/0GmUzYSakmPLqrq0jcNmdstCpVzhFiy2MHSB+NHaqISIKd1FfCN204HDZ5oQOSzZxRyuLbtbFqTVj0QhkSTOfyHipfziBqWGgrZJECYMc3MRDPYWWoMIH8/7uZACZWwrC7BXuOxGBQywYTOeFnHA+KWFV28DBr3NkNXaGXNfOZAebw3i+Su3Ro9bClj0NnkH5jXM9Eterp+P6GkRh01dkX+9GGHQWhMSat1bc8J3bVhiDeKl60XBr8QDNqs1Idmv0XTrVMaAvu5Pi+g/dcX1/GK07Sziau3bs8N3Wo84KR4hEVu/OsP/Cogm0+1TGb5eTYiy6kfC3oeIlV3MFboKLP9T36gWBMzFYOXsJYgWARUyYqAtmwVx4Q5dpzecvXyLfO3RRQH8oxBBawHVxILAoLRCRvyBiL/X/mREcubgKuxUAFkrxp4lIjAXFa4NEyeFJtEODycIlVpjhRh7lohQ5zoIuLdOfMJmMTGsjR6l0SgPZLWDJr6D41jXYuxZImICAa8qL4dKpXb085OLsR5G5PNkF7IY7Sq+ufWK6gIRHQR2tT9ta/t1plch4rgdz/ZQRgKLSYdrEceJQD8vuKnoRYhkdzAa9AaAkxUQYFjBxZwW0dkrEM15EVjSDfnNxtT7lc5fQIz1FOLACbG3fy1B2+44ewDRLLpuns8a5PPUa3HTZ18lpO0kVFryu2nzK5GnQTQLHBMMmgkvBx/cHM+xYXUb8eMPouPFTVt9eBXaLa+QRyfmfPPNBVinELpZLz0pIo7B+qZ17eeeniSeNm54a8/Iasyqu+vqotZuWhcdN28S6NC+OnVtSUpuWVEZnE44B91FBCwm0OgBi7EyalpK3Ew6ldbOvvxRo1PQfJKn8xpdKReOijJ/+sadHOw+kSx44+XnO1KacDw1/Yu1GYfwWsVbkVN2fbTUGsS8n4uenxALUHTchJGfJkf0e86lo+V7ZZVRkpxT5/IRGpVUOsmRcCRtEMsr5aLAeYBGRWg0wmQCWv2YsMCtKZE+nq4dzZVIa95K2OzqZP/FZqv20acv35wS+eG29YtmvBTc0RqGYZJPDqRtOQx0eoTNJHlq6tZ+GLNq0fQ2iLBt3HZ89cZ9OkUD6Ue4rtU6wKYvj5iWumxmp1X/fnm1l9DZGsQ6hRIatOdxOhr58uSVxcnbZffKYadQz5qPpmCTJ4dmpUY6O9i1R4StRl4PV9vBQ2cBjQK3EaQ8Vmmcvdw+TRK/Oj4IPLZ1950OVIdRidnffZMH6GQIkq9M1RoPX48tyZETRv+99Z2dfOz94dLNGEn2nYJ75MgoKJkgDMbx4UFbUsReQpff69J6RAzH1qYfTt1yCGtUA0vGUWsptjarl7wmWTwD7bC/+d1P5h/lHFv9z/2GukbAIcs/0GhhSL4X/Vpq3AwKpRNBaiXiv89cj0nKtqQF8/iNQG98ZXLIp4kRQleHTkked/CgslaxNCX38NFzgNLsd6XWzVsI/T45LLC7iNKqRxDuq+MXAJ3a7FmtyFuUniKe9ELAY5ZE18c3frh4E5pu5XcjMBrDJwZnJok93K0KF1iMUjOOpGQcMDVomjyr0SIc9upFpGepVPTxANYeglm39XDivw4YFaoWv6M2LNiBZOnrlrLWHjEvh8shEU9euBGVmFNy8z7gsJtGaDCNCw/KTBZ7iVys6bobR4lkVXWxH2w70uL35hjMSIp4acwwmCl37z9pQbTtw268sbtarohJyj1yrNU6UWvd+gk3r543LTzIyk67h9js94JFidl3od9bZsVomv1GeI1c8cP5fJRBgxKGx7VZPGfix9uP6x42kLNuybIs+sroV1NjZ8H9aLd6fJIzY/CBdZlHkjbvN9argI15wen0ZGVqOaIFJxiqf5jw4BiMJnh17PgRmcmR3h5/625fT4hoaRXVdUuSc49+eQ5QqZZ3uO1ffEHpr1I7ebqmS8SvTxz5ZL08FaKlnfjxxiJJdumtEvJET/NnUfKgm0YHZzFOPGV9wpv0zurnH4cIfvP7AbPfmeRRBL1hzNiAT1MiB3i5PaXxnkG0NFn1wxhJ7vGjZ+xFLumJC95sPsLSixAt7cyVXwd7iwR2tj1o83/sXPczav8Bk/vzDmc69cEAAAAASUVORK5CYII=" parent="tsqTvnH3BOsCTxECm0go-3" vertex="1">
          <mxGeometry x="530" y="160" width="54" height="76" as="geometry" />
        </mxCell>
        <mxCell id="tsqTvnH3BOsCTxECm0go-56" value="" style="shape=image;verticalLabelPosition=bottom;verticalAlign=top;imageAspect=0;aspect=fixed;image=data:image/png,iVBORw0KGgoAAAANSUhEUgAAAEwAAABMCAIAAABI9cZ8AAAVJElEQVR42uWbB3wU1fbHz53Zmt1NAQKBYACFgCKREqqi0lTkUQQLUhQRREVAKQqCyKOICGIDfSCPIgLKE1FUBEJXQJDeBSG0BNOzm93pc+//3F2EbFASIEHf/93PfjYzs1Pud+6Zc37n3AlhjMH/90b+VyFxA8E/tPBuxZwGT0JIoT1Z+CF4EUIInlC4/DKl3hijhBS+0B9B6gyeOgHZOhUZwZ4IJvJSwAPx2ySKRh+uLJwtoLszmZUxWYJJza3JlYUR3yvHMqjNwC3stQ6OBevl7Gwq4qoPRvWOaJpkw6uPfD3/3AnDYjJDoiPHx8ydkufLoKLJgOlENCtUgSb3uzv1rhiClwL6s103SgGFCNgjgxLdaqN1ksr17N8osU7cxd5uWn980qiVdrsVl2VJnTzzocZNqxc/klk61N4PMqUxQMqLkCpRKyPMpIJO8FqaBjOThLF7DL/MQIdIBod62Qo00nCmxDRKFFbBBlM6O/p+6HeaQDQWyDGGPuwa8ZQ79bT+QNcsq07BzxLihBGjowd1zHQCtTC0GQ0/GigSKI2SnXM3NYyIsKxefrZ31zURwCioBqgU8EhFBskCdMm3fR7oUJffCFlLrv7mmcx8O+BpwAdyyupBre5LLB7yoAT1D3JzHVeFLMmETJVa8DYaVNeIqdG6LuhdWRiz1/DgMCrQNUGY3do2e5c+KkWNxnvpp08lW+2MzVmjeggQlak+s0Udy4IJMTPm+t//wBdpZXIWHTjYk3Pa/PJjnxsYkUAFVeQMSKLlQqD705UnzqnXv8PmdStPWYHqIFtsZkDzi2CaoAUg0CS52pqfB2EXB/RYvGjJzihwBq2f+UFdvXlg85Y3Fw95TIHXzkGSkybayBO/QiShhk5uskILN0gqbVNBWHqabs807QbzS7D8Puu9VcUHlsgHz5l2E+SAuaCHc8IyJT2Dr4LKWMCMcwvr55Tr+GT2qWO6TWdmAf14fuzo/tkFaYagULTjJg/aflqZLysyAV0BJbaKsGRvs3YJ3ymKgmPoiWHrTvRYOn//mKGr7EBxMBs3qbZ6+wtff7G35yML3OCgwCwgIIYC6qY9LyXVr1oMJHcOvzuezkfIei9EAPXKsPQ2oVMlvsM5idVfYyAA1WgFkRx41J6ab965QOFbFFrdRV5tY3t6TsDNiIiPksKIYmIv3nghcthreRaD0gJ2e01Lnz7uYb2zPSJoOUbLjhHTV1RO+TJvWLfjDtA1UGPjhV6vxI8bvMsJZgCkbn1unj6vzejBKbM+2GIHlgPeKW92fG7oPXWi/+mTNOxsUoPKx/dmmYypoG87Mrx2nUrFj2SondfoHfsIPhCMUheDg00EjwXR2VtH6YTDZhRAIECfrilMa26bukOf8qMWSUAqoENaWPPy6GdbtQiKtkoFlQkaFXWoWZEcPWjYKJUy6auvRB3aoab8x+8E4s8xpi+r1Kar+9BOqXvjA04w0HRr1rM7y9GfN6VbwMQHNTbeimc5dTZLBMMHBTWqRO5LG9Wr8ydfrzjgAEtsBdeQsfe8PPibCLDpYGw/NuKWWrElhfzwN/rSKRItQEClj1aAubcKwfFld280juSBnVJ0AmvbW+qXF1ssks/kUKsBumR++ljE8M+kfB/HK2+HupXEzTtUB95kiVl1YIopKDBrZvkX+2apOaaeT6NdZG1GgsUijO9/Ztmc8w4+dPI9D0XvXpfh8wUgOLDob0zumdADa41bxf17WfdVKw4/3XuRG5wKaHMW9cjNloYO+dIDDrS+XedGVomPLinkPYfo3gBxMCjQ6Ld1hdblcDchXWbJGwymAzGow4TtHW2bz5oDUjQPOlqZ3lFBGNDI8synMo6z5qft6lo7NrC+MNUbLRDQmCgzzW82xY3tna8+l1Mt3tIo2db+sYi6DRwL3sxe8HaGDVQd1Igo2r5v+QXvHLOCgasxcUL2bz6k9YJv0IimY99qez7d2yhhim6aNrDgI5J8V8KZEzm/nS8QQLBYyO60URUrekoE+YsMjQ9RO+OhsQKBg8nMKvDweqSAtdhoOCkGT4bPJN4xn8TQGjGS+Xzm4oed/9mlrtnHd/DlmbP7u2+tQtoNyfegC9UAIf055oTRkRtXKj+lyOU9xG3hTij/DEZN1QEGWqYflGlLEj//6NTOzRl4YxBy5AdJkwZtBe5UpXYdqi/8tvuDd87cujXVBdwJqGDEV4osX9F19EAm+nK7w7IvfWR0jKtEkJPSYHwajRJIQId+sfBeTRYSK36d3b7WCKjo0RhaEDN4oMY44fXTxxLFqe3sjab5mUIxPKLv3fZGlADkrgE5egGqAiAStRjso2nlBvbLhgK0Z0okBhIVNR4nMUJiFHl9YULT1lGt4zfgsgpytVqOT39od1eVhQZV8RbUSHR3fiLxn2NWokc1gHpcNrTzkVPuW75w77Ytp0UQIiNte9JedbvtxUNi/2vth5MKD4+GAVuTWPOoiyqJzkuFF/egJmA2kxEDDHzYKH2ytmVaW9u/tmlDliq4r+qnDyVZ5g9Es2H3Pp977BfDYTDVSx+82960nnXsK3lRIhHw+ZTQVBg6zGgPa97F9sw/46rWsL/50i9vv3vYBdQH/pEj6708uWEd+6zzWr4AOoYTDXiYwR67wLL9l1dqJaI8gsRy407m5eJIVrK5jnvHOR224iElA77yArdUAnYGncuDKIRpziP5bNlZdjrfZCbU9ggdq5M65fkOW07SM3mGDW1Th2a3iDUqBjfu189nmCKAqdCGSbbcTHr2lCECw0AlEuZ2i5WqCDclWp1OMXT2TSuzsn9TBAvVdb1t56rlKjhWfX3SlycRgXFVyShXX6YRnxBzTxuubFAvfb10vyxpuOz22Dp2q3+5YV5zFlL4qDLR2aXY/mdTrf937Qr5JBRKKUtukNdguizYjaJJYNlCntfg8ROAGk4w0dGSUD6JfeCrJhEws8MtQddKTJ5tEYPxjxbcwr+ZoGMUIUzHEIoBBlMYHmb4T/iNGxUMP3yVybRCRXHq0rhQvj15SOreH/KsdiOYeWFSoqPQATBMvhzaovHEEqPuH92nQIHa/8XmT/ZrXtKRvPcIbPFzaU4oQUJiEjCxrwSFDnAkvsC7rvMoH/zmH1G7QML1jRpEUri+wyRTCC3LTFCCqxLlC5Ipq+brM2IfGciF2JBOR1d9k27FK13QcWrwW0E2DB6Mf/PlcJ8Hv5scyjBzy66hdzSsWjJIgH0BaHkYbDyjRadNBTOYNHM2xowLC0HIIHkQEi5CapcgsZ+iilkm/wl7LiqAbJiaiJIp4HbJZAXMGcGWn60WGW0Z3//EZ3POOoOQBg+GF74pj5B4mB6CJH9UN8kHafCgeye/37mk5hpqL6TCnAyKsrNMIXGLX9W69veMmV3lgzFnPpx0IoLXWq4OEjOsmKiIPWkj3S7H1UHmaNBgP/WbxMa4uZYdJFMNGbQVqTU3r8x9feBR91VCMmD5IM/48JG+z7W4Csdzsb2fTkfwbKtsR5KoPL1qdn9Ex/6RLz580Mll5VVASqDVvS3ux0PD4M/blSDRrTfcR1Il6mRlC2mCirly68ddKUsy4ILLKREk+psAqN+tf7Zlq1rXCIknWZVLHjpMo4D72MshmUYlCWgIT71AiAshj0o0E90priIw5wx6WkyQbCa1Ii1u/B2SBrMq9KUyoAYN1eYUPVjXwvuEiaWV27B2OWQBKF26JH2y/Em4YitW8dBuB8maXIZpQRFIJMQs4/k6IoZNyiMnf3SJyVU0CS7zWqnJ98SfMKFxWkDymnt26ge2KWqeadXhcsg3l98SEyv6fKqqGPhRNJVSuvyTI1s2nrSAWQQSYwaqhx2pIxKql79eyF8CpMUuJjJqMcMg0axUBZa0trVJICUROht+VN591zdssCf1F/2tUbnRVgHkS5A4gIJNX5PdwOOxFjmwWfy8tPRcEYwikHkgjRzZZuzkfxR76ZJoV/bycTrzLItE9RNurppCE+zkp0cdwp8LMhyKL9aocxYFDu3V7k22LpoXSxn7R9P0zJOYZKIkuARpd+krzzd0eyyFD39t0ObZM3ZF8HmIsGcSw0bFWPees6/a7Zbi+l8iSFpgkPrbmE9lNhoGiYPp88OkZuLABtbLBpPpBvt8nTpnuXz6pO6g6HLoV/PL16rJ90z5VhraPTNSxMf1AiQ6nqhY+m1aA7v10g07fjS37a1LLVweqIUhscdekOcu7PVYr0bFEpYQknPOPccGHoIY4A9YYe9qqsRJ2Y7e9hjHxc4xWWULN2tzV8ppaaYbeJ1OyjWf6OQcOyzq4hn7d/pt92rJRUgIUgElrhr55lT9wjerV9tVG9elOoGFe1dAj5rc6Ka1O4eUhLDkkLzrd241j3rBzsIgQSf+AvrM7eLk1rzo4Fdh/o/a3PXK+QwT3ZLV4CUcw089BFIWVYh0X3x62dGDWs/GaU6TiDqHlEGpfpvli0NJF6+3fuW53h1Wu3jYDAshGDYkUNZtG9S4WY1Sh6Sbc6DDdtPNmGiGxUnKAxss62r/8YQxd6ualc1cjIeKUJzEp86fbUweEtn9HxFFzjjxhewvZ3o9fEqHF7Jub25bsPX2C3cUoM3NK06l5lqD6UhhSAwbPR5vNGtxjxISXhUkv3TPXea3adQd9EAXRlIjqoJbmBZgmsQiKLMYPC+5KAZ0H6sbLy5/v9zlZ/P5aJfqZ9Q8QwA9AEqTto5/pdwW+m32tKPjR/zs5rRhYkAHxWolu86OrFQpsowg6SmJNN9g4CNiNTkkVWlAgs4JQqyVLd5rOA1egC2seJhiynn0P29EJ9e1/mGYWfJ+/tQhmRFByHaPet76nNemcrPV1gmrFFnCZLIIZB74xo9/YNhr7UpOeLWQ/PaPP2xOPYIaCHAARQMmNLT0qC00nasU+KktlDT/DokeUc4zOjWxvVfI31x+wkdqnT7zq18BtVu/mLEf81m3UX33fD7v1wge/cNknQSB+HjnztOviOLV1RCuusYjm6zRaj3Vyxp7yEctLHXLCS9vVOftMTwURD1Mu5oStWp07Tvl4spdSS1s/T7w/IOpJij9R8UOfqPaoT3ebg03YdgAru8uQeKDkQfehV883rlb0tX095og0WgXpcKuHPp2I5EQOJpLW3+mWk1OWFigoxD355mjukU838VZ7BkHtz/93aqM16ZU7fNylR7Nt+/+KdMKZhGB7ofAnfdU+Wrj01dLeG2QECxwhQaH9fxeW3PS9OA5wrMQ00/jPWTD5GihBJZ1+rjaLnH/e4trRERBvw47XXxGOSwL0UBWQVq3r3/dpLjiT1dKkKHGfkinD32juYAPYxikwmSfuWCgq9Ud9hKea9Jzp2s1cHz69qnUYz4LTzjCINFQn+hXb/rHxcvUUobEoNx2hXYog0YwKJJP6n7a+Cbhg75uk2EmeqGyiVcKlaB44Q94+Y9v5NbARCvk5xrThqZu+T7LEvSohSFR1lodxva0Z2LKRVxbV68dMkOiycs0pgXDSTikIdFby5NGCeKClapNY3ZKQyklJpmiSonMBDlYxZP5KsO0EXWTRVHQKsPTZSP4xgeGjQlv3/3s0MbX1s/rgsQheHuPOXG7HiWAoBU1V8ln/vs5d3knGfSWN+2cGYn7qFRUwkuScjAL4bKOJ5MsHC/0rUCgek3XxuO9r5nwOiF5obfZ50p6Pp91Lup4ArRyBPlhahR6xtHvFXy5QnYwajeAD+ll5Y9g1s8PK1LC0kHzQsGi7x5s82BJZWrpQ+JgrvjV7LNKi2JBKRceQnx55thHIwZ05CFkw1b59cm+zDOGRwA+61wyyAKQ7r6/0sJVHa6H8PoheeuyTPnpjInup0ghC8VABIUN70ZFe/jcoz9Ax030frcsgKmTTQ8O6RUhDZDR5aQc73xzzZi/HJIdzKL3LZJtJrGGKx6UdYEc46n7HOP6h95U4Bl9yhp50ui8nFO6B6WEciVINNR+LyaOfafpdRKWzkhi74evURfsNqIZkHCBTlEEBmDNe9EJ8eJFZefz0vHDc1YtCfB82ghBooLTQrW54IKqguyKhE3pndwu2/X1rdQgIVdmzWcFMNWyGlCk7qrk0faNbTNGF363hg/p6uX+d4fl+tIMQTOVC1M6oRkeDClqAKTJ/2rYc0Cta+5S6UNiv2dt10d/r8YQnm0VhsRgqHjp0mkxDS/Ltsb0zfzhi8BTY6NadXGJIqiayfNnEnp7lt1S21NaE/WlONPMWs6UzmTwN+mKVNCVfNrgZsvnM8Ly5gM71T4t0+0ao5Qm3Sn0m1ChSauryIP/Msj1x43H50tRQApXBkLTBOiBPhwXc3/rS7NOvdumH9miRDDCTRoUzCfrJFn7jYu776HYUn/TopTfGeg1X9p4WOeSPRwSk5KbYsiqpRcAvlpSMKZfdpQVCnlXFTkxMNZv4Fi8ranNLv5tIdnxTNpuuh9jSdBtXoJEpRrIMscO8/Tu7g4EzI7NzxecN+36peJyyLvmgb//8KojpiZef1fKDpK3cV9LH6dokWJwSqfQrJbhNyNFsmV9pakTvQve80ZZSOFpAiP4enZ0Jfb9mSY2W2kOY1lAsgKV3T2+wO/lJZ+wqTvZ1PJpu5aOXZv+YMIHzdUL0pRPbunY+1rS4hsMyTk//VF7ZX4gCjWNFjY/Kchg+CimZlY+jRcG6Qe5brLt05/rlTphGUFyzgcm+I6fwnBCSzIJa/Dor3yyIzGpsef6r33jILceMbpP4f8sYNGKh/SB0qGXe+LC6mVBWHaQvD37QcHqLSrmVleGpChXrdpXZxMrVLKU0buIZQfJzmI4GZ4vatxi/wySz5So+gsTY54eHXv9l7zxkLxNXSLN+MwfJZA/gzS9LC6BLE+tRkpSuvx7Qio6a/1sbn5W8B9hLocMmJLPnL48rlUXd9n1ocwhsX21SX5xki/awidbi0Aq2Uby3fZZa+PLtAM3AhLbwy/lHjqgOxgtDAkS03zm4h3xtevZyvrd5xsAyXYf0R97PtcVDCcXIQNZ9NG+rjHvl6G/uZGQvA17w/vNCtkj8sFESOYzXVZYsadKZFTx7278t0CyrBza/rEsw09tejC9/M14dXJMzwFllSX/JZC8fTTPP/2d/GiLoHuNGvGW5Zur3Jjr3lBIw2APdM7KOq3rXjp7YYW77i1+3vK/DxJbylr5qSeyO7e3z/x3xRt20RsNiW34SznPPhdZM7GsZOrfATL0X/hl9c/3fxPIv6b9T0D+H/WAR1ml925BAAAAAElFTkSuQmCC" parent="tsqTvnH3BOsCTxECm0go-3" vertex="1">
          <mxGeometry x="340" y="242" width="76" height="76" as="geometry" />
        </mxCell>
        <mxCell id="tsqTvnH3BOsCTxECm0go-63" value="" style="shape=image;verticalLabelPosition=bottom;verticalAlign=top;imageAspect=0;aspect=fixed;image=data:image/png,iVBORw0KGgoAAAANSUhEUgAAAEwAAABMCAIAAABI9cZ8AAASLUlEQVR42tVceVyM2xuffWmWNpQlu7iUiFRIZausKVLKkpLKkq7IkvUWEdearWxx0SqEUkgoe2StrvVyuZTSLO/s/Z7pdadpZpqm/f6ef/J555zznu959vM8L2xlZSWmxYnN4S5auY3JoDnYWw007d1WXxePx2Gx2GZ6HbaZQIrEovJyVht9XZW/fispM7Z2Lf9egSXienUzmjDWxsPZYdDAX5oJZdODfPbq9ZmzmadTMizN+506GK5yTHbuI/spAQwaFV4Ox8FD+AQivnePrpMdR7i7OJj+0uM/CrLozfuUtOzEc5lPX74RCgRYPA7k8GHWCZWDt+//IyTsd6YOU/ZEIpGIRGIewiOQCCZ9erpNHu06YaRxj87/FZCxJ1MPnUgteFbE5/HJVAqRSMDhcCKxmEqhFOYm6utpK0/xDtoYF3+JTqMq/wRohUIRH+GRqOQBJr1nuIx1HmfXpVP7Vga5ZPX2XXviaPo6eByueq+VlQiXdz11v43VQOUpTu5BV3PuU6lkZYQ8vpBAwBIJRNiYQCgSIDwagz7EvK+789jJjrYG7fRaB+Sfb/4ys/cE2wgWUvYQlmWxOJvXLFyxeLbyFGunuY+eFlLIJAWEbA6yfX3Q1VsPrmTf0aJS0HUkEkArBBXQ1mYOteg/Y6qjo51lbSat4SBLv5e///jFvH+f2gZM8V5+/nKOgvhxEZ6DvWXaHzsVBosllaY27m8/fCKRiHIIK9lsdsiCWVHrF+c/K7Qc600mE3G4GqcGp8AH5gqFbdrojrAaOMPFabSdhTaD3iiQfL4w527+HwmXL13L5SLI05wz3Yw6qByZfeuh/dQAOlULh6v2AkKRSE+bWZiXRKsJXiSWmAx3e//pC4lIrGZ7BWuu15TDO8PQJyMmzbv76IUCq2WDxWJAKxCLxIYG+mPtLb1cx9kOHUgikTC1kAqQcGC37xacTr1y+ert9x8+Y7BYKoXERfhg31PjttW20NBxPg+evKRSqtUM1JLLQW6mHRpqYaawTzM7r8LX78lVnKxCyHadNDrpSKRsxLqomI1bDzGZ6rhUhVaM8ATwr85Ghk6jhoL7sRliJs9/FSDv5r84nXL5clZu8eu/4CnsmEDAo4EI7JjN4sRFb5jpNk7lK89evO4yexmDSZcFLrAC8GdNiN/GUD+FwSNd/OEcKRQyitBh9LD0MyDV1VJwISNn0oxghjZDkzAIFgH3g/D4MLZnV6OJDjYerg6DzX5RDfLYmQve3iuJekwymYRTWh20n0mnPcyK69TBQOXLBo2e+ezla4ocM3l8gZmJ8b30owojnecsu3jlFhwii821sTS7mryPKKefUpBXbk1yD2LoaARSXnZEImloAV66d88uzk62M1wcOhq2VRTXiB1HwsKj6UyGvHbJiMXmjLKxyEyKVvmOc+k5zp41jh+UB875+e14BUe3MiI6cucxUISBJsY302JpWhSFpdZHxWyoS1zVoZVUoeXx8AQiHKIKnZwfsvnQsSQGU8UpotIVvjpwdfBclatbOXk/KiiUaSZqUfZvW+U/x1V+WML5rOkeQb0H9MtNi9XTZSqvM2y8L2i4SsNTT7QSUFHV1tVj3uozZzPkFUxGoOsCgSgzea+ttbnyxMzsu2OnLaDT6TJBAFUZOsQs++x++WEvCt+M9wzOOXfQqKOh8iK59wtGTPKDk1I2IQ0j1SArMZVTvVekXLjGYNKUcYKmGejrPLx2qq2+ipDN0T0IoMp8JkisBCN5cTO+q5z7EQgEJd8rOhi2Ubkni7GznzwvljfUzQISpalzQ5PPXWVoq+BnBYtjP8z82tkDyrMKnhfDLolEIgRAsDgEoryv33/ftSbY30OTDQUs33LgaCKDQW/C9LKOiMczYM2phIt0JlPBDqHKFuAzfd+W5cqzFoZujT6coEWjcrlI184dgwM8Zk0bp6PNxNRFAcsiD8TG03W0VZq95gL582hj42lMhnxoikEDsQrWjk0hS+Yrsqj8B6uXlQsPEawK9v410ItMJGi4m8jdxzdsiwHmQ+DacpxEadPOo6s37YPUiVhzu2jAcfpgOKR/ClOu3bwPRqVXd6P6bujVn+9mBq5/8OgpjU5XONaGg7zz4KnlIJM6x8WnZvoGh0N8TCGT5Y8YTh0Clctndqk0tg2mVZv2bdtzAoPDghdpPEuxfYZO/XW+57xZznUOvf/4pZvPivcf/6bTaphcPl9Ao2llJe0daNq7CXHezHs8b2lEYfE7Ol2rkb4Ey+xuV1HBch5nvz9qhWE7ffWjv5Z+9/Jfl3k9V0GWOFwEUp78ayc7dzLENB1B6rMkbEfsyXMkEgFSlgazVAoSQj4Oh9NWXy9iZYDvzLpZGrZpX+SuOAIJD9kNVpofSjgc7gIft53hvxLw+CYEidL5jJsLQrd8/PsrnabVMKsrBYmRugQMBHsIgoywHrQjItjctI/6aZCF+SwJ//KlBPwEh4OELfX9bcX8Jocno7LyCv9lkQmpGVSqFlFjW60IEiWwtJDO43D4uTMmbgidZ9BGnfSWfC+fs2jDxdTM5aHzt6xd1HwIZXQi4XJQ2LaychaDrlUv0a0BEiUIxDhcji5Te5Gf29KAmUyGlpr5GdfvONhbtQBClD7/UzJ/2eaMq3nk+lhdFSAxVdILPpDL5rZrr79knsdCHzc4vBZDUifN8A9LPH8VvelqOMh/oVZl3FzEsEPb+V4uAXNcDOoyv01IX0u+v373yXqwqfJPY6YtuJGbr3kErw5kDagIoqur7T7FYYH3tH59urUMzmETfG2tzDeFBSo8Nx/l9aLoLZmkabaJ7WDq9PfnbxQqmYAnqDHQ6B0ZwkPIJLLVYJOY7at71j9kqy8dO5PmPTvEws4q/tCmbl2qMzXzkV4viusDMuvGvUtZty9k3nz99qNELCFTIJyWXl6pVGvQVQThdTYyyL9+iklrdi0ViESmNu5F+S+69Ot559JRQ4OfymI72S/vwbN6iCsaoINA3st/npJ2PfPGnaI3H3gcHoFMIhII0rKhHH8lUr/Py0jcPcbWsrkRopR3/+mKiL1sNhLo7erjORl9uDpi36YdR1ReXKgDKU8A8trNB+nXcvMLij59+Sbm83EkCKqkgIGNE8banD+xvWUQ1kafv5aYjvBAED5woYEgZSQUCl8Vv7ub//xm7uOCl8XvP36pYHEfZcX179erdUECQeonZWZdFwiADo/H16Pg8620vKS07BfjFjKt6ul7WUXf4W4VbA7olHqQIIXNVU6vk+C9WKkhwzY4t5BeEUfsU6+ZEkklnUZtNZBAt+8VWJr3JRDqHXCjxOZye1tNg9hdTcgOllJPh9maIPceSVg4160xK6BleTUlEwhOOxi2xRa/+QCZrqyKpoakAtakXSgByyOjI5c3Juvn8wW9rF2/lZTVtn9wjV07t8eOcgksfP1BH5IOJl1fT5tKoZJIOC0qla5FhcAA3KREJPnB4hh1bLc00KsJEcKZWTrOvXh6Rxs9ncYsszsmPih0a22lIQDZvWtH7PAJvnkPnoJiSAu5lShhfv6R3qRXFdQq2Bsilq5d6tuEGMUicXtTp8QjW2ytBzZmHaFI1Nva9fOXUhJJBTMFQqFZP2PsOI8lWTn31JRWADvCEzzIPD7AxLgJQYqkIB3dJ4/ZE7m8kUvFxKX6/fqbygoVjy+wHzYIO3Vu6Ln0HDVxIBwViHFxXgqF0tgakwLI7hbOYBje3E8lN656BZlDPxu3d399Vg7ZER5/4lgb7OxF608mpitXCGXERXh2Q81rq0k2Zme9rFzfFr89sv83b4+JjVwtLuHS7MB1yuUp2Ly78xhsYOiWA8eS6XIpBaqQ0jqmtEonBH8UEuoXtW5x04IE6mczHcLGbkYdnt06QyE3toY1YKTny6J3CnrH5iB+M52xYZv3h2+LpdG14GjFEgkIJ0ZcSSAR9HW0u3frZDGgr42VGeQc2g0t+qohx+mLIBMQisSB3lP3RIZAvtOY1RLOZU6ft4pBr8FMiPtCF87C7jhwKnjZFl1D/fbt2nbq0Kavcff+Jr0G9DXu2qW9rgZ1qMbQ4pXb9hxJYNC0EAQx6tQe5Arktlf3hvfTWYyZ9eTFn/L2peIHa8v6IOzrdx/ZbG57w7Zt9RvlrxpAqZeyp8xcCvEKRmrexDwuQtGi2FqbL5g7bfyYYQ0IEs6n50yeFSItK1QxEy3+R0etaM2wrqS0HGwPuDL03h32IanqQhIJBD26dfZwcQj299DT1a5tOhgVIgFHJNZQwuHj593NfyZrWYNs++zxra0JEiMt8q49lZzOZNDkH0rr0yIR7/uPyS4OatqjOBxu0KrtURuD5NXqSvYdx+lBNC0qDmI1SSWXz8tOOaARyCaPWmX0vPCN+SivqnsWxRy/qmNSkHvpMBi/2qaH/35k8+5jm1YFTnIc0dWoA7rHMdMW5uTlg5kFJwwe+NaFmDpAgnU6e/G6l+s4PKFp6qHKFLpxz9adx1QGnyw213WCfeLhyNrmlpZV7Ik5Q6fTenTtOH7UMBKZ+PmfkhGT5n/6/BXyL6FQ1N6gze2LsbWC/PKtNPbE+egj8QQ84a8nac2EEKUJM5ZczLhFZ9IV7kSlnSMSyYOs42DzMVUF3x8sVhu9WptAQZ9tJs57+OQV6vYh3BluOeDCye0qQD5+VhR9OOHsxRulZWV4ArFHt46FuUnNChI0cGbg2vjkDDKVIr2tkOvOY1ew/ea4HohagT5Zu/Wgvg4zyE91I4mb74rEc1myix8QBP85U3ZvWlYN8kcF51zGjZgTqXcfPhUKxWCg8HgcRJiG7fSL7ybh8Q3M3zWnP5LTQceKXr8HsyHDCRugUcmFd5J1qxrWf7DY3QY5d+rYbudvS0cOHyQ/ffnGPVG7j8tuQ9D+lCN7NsxxHy8F+aOCvXBl1JXreV//KSVCfEWq7qaFdzDp1Jd5yTrNEPGoJP+QzQePJsuah9C9xuxa6/vvpevZy9ku7osxZPJkJ7staxf27tEFHh44nhywNJLOqC68ox3Aj7LiTH7pKQUJstt90OTS8grlLgQwUKCTRXeS2rVtSPN3w2gYpLj3n8rqaFLVGmJ2Ta5xbZrPyqRzmVg8nkwiLPKdPtSiv7vfarDP8tewoMAGbfRe5SWRyf/e1nn6rzmTmqnc3l/VF859fiseVf2WoS9fvg0YPbO8nIWmYHDQ4GM+PLnI+Hd75T9Y/W09wLQCS+AI8DgsaLKCE+JwEbDM8TGbMbLL5cQLV93mLFe4EZK2I7FYZiZ9slKiG3lJUV+6evO+0/TFRJL03h52yBMIfD0mjbazopCJXB5fIhJHH0289+gFYEP3ryCAUiH/UXE6NtJ9ythqkOUVrF6WrlwuT8ZxYDfCQ2ZNn3Bo+yrN60dNSFujT4au3wU+EG3lBM6AWFUhwGKwGNAslfcdKIEpoVDIRXmJ+lW8qbauILGnU69ATiAN+biIDp2+/bcgb49JLQ9PRjP8w04nX2EwtGRGSPaT+ggMVMx1wsiE2M0/B8tm3rr72GaitMsU4SJ2wwfF7FzTs2unVkSIqTI5Vk7ez1+9Aaei+Sy0XT479aDtMHNFkEBDxsx6+LRwc9ii5Qub9PaxEfSq+J2lkzdkJiSNO1vgaAaYGN/LOCZ7UvNrgofPCETCoP59NFyuZSgl7bqrTygwE69Bhln1EQ03PWGXg721apD/WVojvaOJYWgz60yGIJRzHGV16dQu+Yf/HyCBxnsuuZR5m0Gnq4EJMTAkH48yT/ToVsOaaARSLBJH7Dq2dqlPK4KE2HPgSM+Pn7/VdkVc5dXZ0VErA71dFX7SCKTfrxEnk9I/FaTp6mjXObj5CLy/rbMfDotTrqJXfeTHnjl9fNzeDcoT6waJfg6DweOuJu0bOcKiFUFiflYEwukMmsIHeSwWZ6TN4CsJe/GqugjqALn3cPyildtoWloQcAT7e/y+Mbh1QWKkzfibD0CaIp9SsThDh5hmJUsbyFVOqQOko9uiDMjZ9bRBp427dy64caq1MUpL8JD+594vgDQFbfYfZWeZdmqnmppV3eLqGxx+OO4sRYsqqZTcyzhu9h9o/fj0+evgMbO+lZaLBcLZnpOO7V6nfrxGhudgXErIup3sr2Xr1y9et2xea2OUEqT4LnNXbAlbsMCn7oK8pn7yReHb2QvXlZazXt9Lab7/2qFe9M+37waapfKagoRhX0vKUtKuWVuYDjBpyq8GWoD+Bx2DyBDGVynBAAAAAElFTkSuQmCC" parent="tsqTvnH3BOsCTxECm0go-3" vertex="1">
          <mxGeometry x="701" y="2" width="76" height="76" as="geometry" />
        </mxCell>
        <mxCell id="QayPw9rXNkPnkpLyEU6B-0" value="" style="shape=image;verticalLabelPosition=bottom;verticalAlign=top;imageAspect=0;aspect=fixed;image=data:image/png,iVBORw0KGgoAAAANSUhEUgAAAC4AAABMCAIAAACd5xIxAAAQ6klEQVR42sVaCVRV1f6+585MF0SLnP0nmmKICKKQOBQOiBOKKIIplpXG02WaFg5Pl0OOqbV6mmb6sl76QB8qoHAZFWRS4ckcKAgKagx3nof3nXPgeEEgpfS/1xLXPWefvb/9/aZv73MIs9nM+hPNZDLW1xZVV1WM8pxibSMiCKLbQxF/Ekrd/YKSgrj8/5YNGOQWvOQzgmD//0Cprsj5rSiBy+EXl91vam4a7Oy6aOlGLpf36qDgCdjhbum1ytJUDofH4XALS++pVVqdVtNvgHPIsi+EQptXAQW94Q5ldxLvV2RxuDw2h9PYIGtokiqUagyl06p7OfUNXbbJTtTj5UJBZzhmScHlB3dvcXgCguA8+b1ZJlfy+ByzkdUsUxj0RqNBZ+/QM2RZpGNPp5fLSkHe1ZL/JvR07MXjch//3iRXqvkcNC6HxzabTb83yFQqjUqltLXruWHzP8DZS4TyoKbi5LGt1lZWQwf3a2yUsbnAQej1RrVGazKYG5uldfW/K5WKyX5zPvzki7+YFdoo9F/6yk8nttdU/+bk1MvewVat1MhkSpVGR9003699rFapWWbTjr2n+/b/v3aD/AWslJeXv/XWW8zPksKs6H8d4QutB/V7/eHjBvgHm83GTGqV5n7tI/jKsBGjN24+zPSvrKx0dnb+C1gpKCj4aOXK5IQEO5GIvmI06P9xZJ1CJrG1tcHjGo3OaDQ2SxVymdJgMGjUqrUb94/2fIcZYZq//5qIiBkBAX8KislkmhMYWHjnzle7doUsXsxcv55yIVUcJbQS2lgL5QqNvb2NrbWwrKLm4cPHTk59vjr0L3arObKys8PCwvr06RN7+bK9vX33oezes+fMmTNwUox1+dIl5rpC1nz0m/UGvYHP5yFwyFxjMlXXPm5uagoNXzNjZgjTc+WqVRkZGVjS1KlTD339dTehYEEfLF9ua2sLP5DL5cd/+GG8jw9z92L00aKC6zy+EHcx092qB3qd3srKev/hX23sWlZfW1s7c9YsHo+HPjKZbP++fbNnz35hKDeysjZ8/rlarebx+fipUqnGjRt3/PvvmQ4PaytPf78Nd8lppIq6Rw16nWbylDnhKzYwffbt33/q5Ek7yi4GvR6YduzYAXpeAMrO3bt/OXPGxtqay+OxqA5GJHW9/uJ//jNo0CCm2z+Pb6t7eJfL5dc+eKRSqZFot+85NWDAYPquRqOZMnWqUqEgBzGZULfg1Eqlcv78+Tt37kTQ/QEUYF/x8cdZmZlwMTPVG/8oX4B/yOC5mzdvZjoXFmTE/Ps7oZX1/Zo6hVw5zGXUF1u/Ye5Gnz8fGRkpEongwuQcVHZCrMHW7u7up0+ftrKy6gpK6JIl+bdu4XlyepOJvkcGA5ut1+v5fH6SWAzvacWtO3pknUopr33wWNIsXbvhKw+vicxQgfPmVVVV8Xk8TA9nAiX4zwytZTIBjZeXF7DyLCpDGyhr1627GhdH5w9MbzKb4SuoIwKBgEURKpFIwMqSsDDmkWvJ59NTo+vqGmxsHfce+pXDaaE979at4PnzbWxsDGaSClRJo15PFgkul54PaGbNnn3CwvmeQvnl11+3/f3vPRwcMKmJasCxdcuW4tLSC9HRNhQTcJfevXvHx8Uxz8ulTd9/s6GopCwoZOXM2aHM9U9WrrwUG2tDmQDjTJs+PTgoKGL1ap1WK8TCKOdDTH21ezeCtA2UJ0+e+Pv7w5rAjSvAAac7fPiwn58f0vacOXOQWgg2aq9ZJpefPHly/DtPk+mFc98mJcbu+fqsyL5Fozx69Gi8ry8606PJFYqos2d9J0zIz89fvHgxkMFqpH0NBp5AkJaW1vuNN55C+fLLLy9dukQ7Aa7AEPv27Zs7d26LA4WFIU3RXoao9h437ty5cwyUe5WF19Pil364kbmyffv2vXv3wuHMFJEuw4dnZmTQt65fv744LAwCg83lIqwUCkVISAid+sjs9PDhw4CZM4GUDjCpVDo/KGjXzp3M0MXFxXFxcQKKWPRHtxUrVlhbW9N3jQaDWqOytRUx/U+dOtXQ0MDFZICi03l7e0+YMIG5e/DAgX0HDtjZ2cEIcCEsPS09vX+/fmSsHzh48McffxQhEcG9jUasXpyYaG3zvPq0nQDoUA/QC2B+wljV1dV8KnnCf9esWfPFxo0EvGThokWS5mbEFbrLJJL1n3++4sMPnxNH99q/o6IiIiLs7eyAGjmib9++MTExRGZmZvgHH4ioQgPsWJM4OdnRweGlQtFotSgjUokEHEJhqFWqSxcvEkePHv360CHEMHKatLl5/PjxMNZLxUG31atXn/n5Z9rhENW7d+8mVq9Zk5qSAkMixhqbmr45cmSxhS55eS02NhZlBM7LohJPcHAwMTcwsLioyETleFyCw44YMeIVQIHbeo0di8QDFhBlnp6exNhx4548eoTUBjRwlxs3brzh9GL7l+41GMVt1CgUaqBB2KLgEx6enrALsKFKId+RUKjc97KbXCYbSUFB+gGUfsgrgNLU0IDcR4dP1quCIgUr7u5KuRxQkNv6DxhAeHh4NDQ1salIhoFeHRSpFAZC4qcNNABQRnt4NAEKVY3BSnZW1quD4u6uoFhB6ejXAqWhgUVBASsvFYpl+geUkW5ubVhxHz0absulWWGx2kG5W1mZnZs7MyCg6y3MH7asrKy6+vr58+ZZskJDoX2lBQrttmCJZCU72xIKygLyL/q9++67oaGhKLB0DXvOBq0THR194cIFiLrFISG//PyzJRTXkSPbQBnl7t5Iuy0qqtmcm5vrZJFXcnJyJk2ezBcIULSAFdE/fdo0YBrj5dXFZhzSCern7Llz+bdvq9RqqAskMewRfzhxog0UV1e5pYEApcVtDQaI8nZQMm7cmDhhggOlMuHUgK/VanF9qLMzJM5nn33Wq1cvSxCXL18+ceJEdk4OxBcQYJdE7usJAj9DFi366aefmJ4yqXSEq2tbVkaNamhsZLe6bU5ubm8LKOi6aOHCq2Kxna0t43HABJLg/NBTM2bMsISC0YqKi1FZLNUJhB+Wd+7s2bFjx7aDArFCszIQUBDctNsaAAUWyc6GkG5H+KbIyIMHDwqsrHg8HoMG6TIuPn6Kn59lTx8fn8KiIlrv0d2Q4D09PKKiopBPLXviusuIEW1YcXNza2psJBhWcnKehYJ2/vz5jz/5BNqbcVuMcjU+/t333rPsBhUCVug+JFy5fEFQEOzCrKEdlKesDBxIQWFSHPYvOTlvdAQFraysLHDu3If19RiXnuZqQsJ7kydb9hnr5YXNClhBB3jV2jVrdu7a1eFogDLcxaUNKwhuMoKoRaDdvHmzixT3/vvvn4uKsqakP0aBopg0aZJlB08vr9KSErCChXEIorSszKmTOk9DacPKyJEjYSBs2rAIOGNRUVEXUBaGhFyMiYH0AugOoaCilf/2G6BgdJi78M6d/v37dzgUyuHw4cPbsII8AwMhJ8uUSijtkpISp871yoLgYCQMK6hAsxlFNSk1daKvr2UH7MvLKypIVoxGCI/CwsJ23voUilQKKHReMUCvkFBcXRHM0G/knpbPL+0SSlBQEDIHDASvwihpKSm+FhscFhXMFYCCLTvKDYcDfQg13xmUt4YNg4H42C4RxAAYCPKx9sEDFlWrsGkrLS3tAkpgYCACmGYF3KanpaEsWHZwdXND2eJRrGCzXlJc3LtPnw6HQtJDxACxtVCInz0cHYmhQ4ciKLjYqJlMXB4PULoQlHPmzr0SH0+yAigq1bX09HcsNs9ob7/99r1792hWMFpxSUmfTjyvWSLx8fY2UrUaBurZowfhPGRIfX097cbwoDJA6dxtZ8+efSUhgYaiVCiwAfaxOJ1DA8f3qqpot0XMl3XOMaB4+/igroE8/HUAK87OzijfsKup9eEuoAQEBCSIxVYUFLVSibqNnMbcxUVkraqqKtpAANQVlOZmQIFXAIreaMRGjBjs7FxfV0fLbFBaXlbWBRT/GTOSEhNpKEq1GurTsqygtru4uFS3njTxhUKM9vrrr3cBhUV5NzpDDxGDBw9+ygqfX1Fe3tnDaNOmT09OThbSrKhU0FleXl5PoZhMw4cNq66p4VEGshIIysvLX3vttc7cFsY1ms1k+TMYSChvDh5Ms0LWIA4HlHaWCdCmTpmSkppqJRQCikqjyc3O9hwzhrmL6QHlPqDweBgd5EE69ezZs8OhGhoaAIXekuFBkUhEvPnmmzQruK1VqZAnEhISOpNq7/n5paWlkaxQx1J5ublIr8xdTD902LAHNTV4HGjsRCJIpw6h4PF5CxYU3LqFvMCmWEFnUq8gJ9LnY2ZKWwBNkljcIRrIyvT0dLBCnhhqtbfy8kaPHm0JxWX48EaJBGxzKb0Cv+7AQGbzvKAgqBEHBLDZDIWv0Wr79+1LQHhCIOr0ej4tMign8PX1TUpKehbNpIkTr2VmCmEgsKJW3759G5meuYsqhjQjlUjY1BEci1LX7VjB1eCgoMwbNxwdHcmQo9QjHjx8+DB50oL0AHWo02oFtM6g9vHgJjkpqZ3OgMzOyMgAFPi4VqfLz88HqZZQYH6JVEqeiKIcstnwa3JKi7Zw4cLrGRmOPXqwqJMpEAkWThw7NnHSpJZjwdTU1Bn+/jqDgeEGi4aqTQQ3FmjG+/oigKEXBZTwxlNI3sxdeI+3tzdd98nfbHZWZqYlFNAPV+vRigNVT63RHDt2bPr06SzLc9uklJQAf3/AhF3MVL7SUYQjehmB6OfnBwFFn89g9XApaAxmJnAJKKhNPCqvwB9hIHLiVhyA3oIMS9UiSFTQ5AGtr6zanGanpKT4+/sjqmECJEFkPCwUnMfGxtKWmjptGrIWTyDAY1K5PFksRmFvB0WlVLLRmTIQoDhQZ2nLli0Ti8WABYi0UTAy9iKzZs1iHm9/xg8OQkJCoKgFVO2mdTLChEYDVioqKwUQlNTJorgjKEroHmzwWCyU2LybN0Hh8uXLL8fFOYhE8DDy/YfRqFGpjh0/Hth6LtwxFDRMELpkiRWfz8Euhroikck83N2Rb8AZSjfNCiAmwkDPQMFfLnVEAlLz8vJW/+1vkPstZsJmymiUK5VHv/tuwYIF7ebt+H1QYmLi0qVLMSWfwyGoDIGJUW4aGxux88NMNFvo1s5XYE2wgkcMOh0yIeILCyAzKe2nBgMq13fffhu8cOGzk3b6liwBaJYsEVpbQ2WaqQ0WMj3GsgfPlMhAEWkHBW6IkgSIwEq+61Wr0dPGxqbl5ZbJBOH37ZEji0NDO5yxq3eHV65cgZnhwqTPUuui333TdwFF3DaCAGXMmDH0OQWLxWo506byKbwV+ubAgQMgu7Pp/uCNKuiF85MBRb25o1+KmKkiIpPL01JTO4RCh5uJ2m6yKPkBqg7u2xfe+r6lO1DQ4uPjsRSkFvr1QctjBIHdQxdQ6L0mDQiKeu+ePSs++qjriZ7rQwBs02lu6JrOat0Mp3YChfxiAjhAIfU+Z9euXatWrfrDWZ73Sw2gCQ8PF8BvqPAhqD0VtItbR1BI/oCDICRNTTt27IiIiHieKV7goxFkuaXh4TbUeQJNe7saZAkFHbDT27Zt29q1a59z/Bf7fgVowpctg96BCbqAAiMCx9atW9etW/f8g7/wpzSxsBTQWFlhymehQNThL/xjy5Yt69evf6GRu/MF2MWLF5FvUNWuXbv2LJSamprIyMhNmza96LDd/C4uJiYGRSQ7O9tS2yLlDxw48NNPP92+fXs3xuwmFFACvxkyZIjlG5snT54gQWOLj2rcjS8Y/wcEuprmLkBr9QAAAABJRU5ErkJggg==" parent="tsqTvnH3BOsCTxECm0go-3" vertex="1">
          <mxGeometry x="320" y="2" width="46" height="76" as="geometry" />
        </mxCell>
        <mxCell id="tsqTvnH3BOsCTxECm0go-17" value="DPC / BISTLER&amp;nbsp; / PROSERIES - OG" style="text;html=1;strokeColor=none;fillColor=none;align=left;verticalAlign=middle;whiteSpace=wrap;rounded=0;fontSize=16;fontStyle=1" parent="s1-uLHGH1qeWwjEYS3wL-1" vertex="1">
          <mxGeometry x="50" y="5240" width="1124" height="30" as="geometry" />
        </mxCell>
        <mxCell id="tsqTvnH3BOsCTxECm0go-18" value="" style="group" parent="s1-uLHGH1qeWwjEYS3wL-1" vertex="1" connectable="0">
          <mxGeometry x="50" y="5730" width="1124" height="400" as="geometry" />
        </mxCell>
        <mxCell id="tsqTvnH3BOsCTxECm0go-19" value="" style="rounded=0;whiteSpace=wrap;html=1;" parent="tsqTvnH3BOsCTxECm0go-18" vertex="1">
          <mxGeometry width="1124" height="80" as="geometry" />
        </mxCell>
        <mxCell id="tsqTvnH3BOsCTxECm0go-20" value="" style="rounded=0;whiteSpace=wrap;html=1;" parent="tsqTvnH3BOsCTxECm0go-18" vertex="1">
          <mxGeometry y="80" width="1124" height="80" as="geometry" />
        </mxCell>
        <mxCell id="tsqTvnH3BOsCTxECm0go-21" value="" style="rounded=0;whiteSpace=wrap;html=1;" parent="tsqTvnH3BOsCTxECm0go-18" vertex="1">
          <mxGeometry y="160" width="1124" height="80" as="geometry" />
        </mxCell>
        <mxCell id="tsqTvnH3BOsCTxECm0go-22" value="" style="rounded=0;whiteSpace=wrap;html=1;" parent="tsqTvnH3BOsCTxECm0go-18" vertex="1">
          <mxGeometry y="240" width="1124" height="80" as="geometry" />
        </mxCell>
        <mxCell id="tsqTvnH3BOsCTxECm0go-23" value="" style="rounded=0;whiteSpace=wrap;html=1;" parent="tsqTvnH3BOsCTxECm0go-18" vertex="1">
          <mxGeometry y="320" width="1124" height="80" as="geometry" />
        </mxCell>
        <mxCell id="tsqTvnH3BOsCTxECm0go-66" style="edgeStyle=none;rounded=0;orthogonalLoop=1;jettySize=auto;html=1;" parent="tsqTvnH3BOsCTxECm0go-18" source="tsqTvnH3BOsCTxECm0go-51" target="tsqTvnH3BOsCTxECm0go-65" edge="1">
          <mxGeometry relative="1" as="geometry" />
        </mxCell>
        <mxCell id="tsqTvnH3BOsCTxECm0go-70" style="edgeStyle=none;rounded=0;orthogonalLoop=1;jettySize=auto;html=1;entryX=0;entryY=0.25;entryDx=0;entryDy=0;" parent="tsqTvnH3BOsCTxECm0go-18" source="tsqTvnH3BOsCTxECm0go-51" target="tsqTvnH3BOsCTxECm0go-69" edge="1">
          <mxGeometry relative="1" as="geometry" />
        </mxCell>
        <mxCell id="eHTsa13YEd-6tjRE6p7o-3" style="edgeStyle=none;rounded=0;orthogonalLoop=1;jettySize=auto;html=1;" parent="tsqTvnH3BOsCTxECm0go-18" source="tsqTvnH3BOsCTxECm0go-51" target="QayPw9rXNkPnkpLyEU6B-1" edge="1">
          <mxGeometry relative="1" as="geometry" />
        </mxCell>
        <mxCell id="tsqTvnH3BOsCTxECm0go-51" value="" style="shape=image;verticalLabelPosition=bottom;verticalAlign=top;imageAspect=0;aspect=fixed;image=data:image/png,iVBORw0KGgoAAAANSUhEUgAAAEwAAABMCAIAAABI9cZ8AAASLUlEQVR42tVceVyM2xuffWmWNpQlu7iUiFRIZausKVLKkpLKkq7IkvUWEdearWxx0SqEUkgoe2StrvVyuZTSLO/s/Z7pdadpZpqm/f6ef/J555zznu959vM8L2xlZSWmxYnN4S5auY3JoDnYWw007d1WXxePx2Gx2GZ6HbaZQIrEovJyVht9XZW/fispM7Z2Lf9egSXienUzmjDWxsPZYdDAX5oJZdODfPbq9ZmzmadTMizN+506GK5yTHbuI/spAQwaFV4Ox8FD+AQivnePrpMdR7i7OJj+0uM/CrLozfuUtOzEc5lPX74RCgRYPA7k8GHWCZWDt+//IyTsd6YOU/ZEIpGIRGIewiOQCCZ9erpNHu06YaRxj87/FZCxJ1MPnUgteFbE5/HJVAqRSMDhcCKxmEqhFOYm6utpK0/xDtoYF3+JTqMq/wRohUIRH+GRqOQBJr1nuIx1HmfXpVP7Vga5ZPX2XXviaPo6eByueq+VlQiXdz11v43VQOUpTu5BV3PuU6lkZYQ8vpBAwBIJRNiYQCgSIDwagz7EvK+789jJjrYG7fRaB+Sfb/4ys/cE2wgWUvYQlmWxOJvXLFyxeLbyFGunuY+eFlLIJAWEbA6yfX3Q1VsPrmTf0aJS0HUkEkArBBXQ1mYOteg/Y6qjo51lbSat4SBLv5e///jFvH+f2gZM8V5+/nKOgvhxEZ6DvWXaHzsVBosllaY27m8/fCKRiHIIK9lsdsiCWVHrF+c/K7Qc600mE3G4GqcGp8AH5gqFbdrojrAaOMPFabSdhTaD3iiQfL4w527+HwmXL13L5SLI05wz3Yw6qByZfeuh/dQAOlULh6v2AkKRSE+bWZiXRKsJXiSWmAx3e//pC4lIrGZ7BWuu15TDO8PQJyMmzbv76IUCq2WDxWJAKxCLxIYG+mPtLb1cx9kOHUgikTC1kAqQcGC37xacTr1y+ert9x8+Y7BYKoXERfhg31PjttW20NBxPg+evKRSqtUM1JLLQW6mHRpqYaawTzM7r8LX78lVnKxCyHadNDrpSKRsxLqomI1bDzGZ6rhUhVaM8ATwr85Ghk6jhoL7sRliJs9/FSDv5r84nXL5clZu8eu/4CnsmEDAo4EI7JjN4sRFb5jpNk7lK89evO4yexmDSZcFLrAC8GdNiN/GUD+FwSNd/OEcKRQyitBh9LD0MyDV1VJwISNn0oxghjZDkzAIFgH3g/D4MLZnV6OJDjYerg6DzX5RDfLYmQve3iuJekwymYRTWh20n0mnPcyK69TBQOXLBo2e+ezla4ocM3l8gZmJ8b30owojnecsu3jlFhwii821sTS7mryPKKefUpBXbk1yD2LoaARSXnZEImloAV66d88uzk62M1wcOhq2VRTXiB1HwsKj6UyGvHbJiMXmjLKxyEyKVvmOc+k5zp41jh+UB875+e14BUe3MiI6cucxUISBJsY302JpWhSFpdZHxWyoS1zVoZVUoeXx8AQiHKIKnZwfsvnQsSQGU8UpotIVvjpwdfBclatbOXk/KiiUaSZqUfZvW+U/x1V+WML5rOkeQb0H9MtNi9XTZSqvM2y8L2i4SsNTT7QSUFHV1tVj3uozZzPkFUxGoOsCgSgzea+ttbnyxMzsu2OnLaDT6TJBAFUZOsQs++x++WEvCt+M9wzOOXfQqKOh8iK59wtGTPKDk1I2IQ0j1SArMZVTvVekXLjGYNKUcYKmGejrPLx2qq2+ipDN0T0IoMp8JkisBCN5cTO+q5z7EQgEJd8rOhi2Ubkni7GznzwvljfUzQISpalzQ5PPXWVoq+BnBYtjP8z82tkDyrMKnhfDLolEIgRAsDgEoryv33/ftSbY30OTDQUs33LgaCKDQW/C9LKOiMczYM2phIt0JlPBDqHKFuAzfd+W5cqzFoZujT6coEWjcrlI184dgwM8Zk0bp6PNxNRFAcsiD8TG03W0VZq95gL582hj42lMhnxoikEDsQrWjk0hS+Yrsqj8B6uXlQsPEawK9v410ItMJGi4m8jdxzdsiwHmQ+DacpxEadPOo6s37YPUiVhzu2jAcfpgOKR/ClOu3bwPRqVXd6P6bujVn+9mBq5/8OgpjU5XONaGg7zz4KnlIJM6x8WnZvoGh0N8TCGT5Y8YTh0Clctndqk0tg2mVZv2bdtzAoPDghdpPEuxfYZO/XW+57xZznUOvf/4pZvPivcf/6bTaphcPl9Ao2llJe0daNq7CXHezHs8b2lEYfE7Ol2rkb4Ey+xuV1HBch5nvz9qhWE7ffWjv5Z+9/Jfl3k9V0GWOFwEUp78ayc7dzLENB1B6rMkbEfsyXMkEgFSlgazVAoSQj4Oh9NWXy9iZYDvzLpZGrZpX+SuOAIJD9kNVpofSjgc7gIft53hvxLw+CYEidL5jJsLQrd8/PsrnabVMKsrBYmRugQMBHsIgoywHrQjItjctI/6aZCF+SwJ//KlBPwEh4OELfX9bcX8Jocno7LyCv9lkQmpGVSqFlFjW60IEiWwtJDO43D4uTMmbgidZ9BGnfSWfC+fs2jDxdTM5aHzt6xd1HwIZXQi4XJQ2LaychaDrlUv0a0BEiUIxDhcji5Te5Gf29KAmUyGlpr5GdfvONhbtQBClD7/UzJ/2eaMq3nk+lhdFSAxVdILPpDL5rZrr79knsdCHzc4vBZDUifN8A9LPH8VvelqOMh/oVZl3FzEsEPb+V4uAXNcDOoyv01IX0u+v373yXqwqfJPY6YtuJGbr3kErw5kDagIoqur7T7FYYH3tH59urUMzmETfG2tzDeFBSo8Nx/l9aLoLZmkabaJ7WDq9PfnbxQqmYAnqDHQ6B0ZwkPIJLLVYJOY7at71j9kqy8dO5PmPTvEws4q/tCmbl2qMzXzkV4viusDMuvGvUtZty9k3nz99qNELCFTIJyWXl6pVGvQVQThdTYyyL9+iklrdi0ViESmNu5F+S+69Ot559JRQ4OfymI72S/vwbN6iCsaoINA3st/npJ2PfPGnaI3H3gcHoFMIhII0rKhHH8lUr/Py0jcPcbWsrkRopR3/+mKiL1sNhLo7erjORl9uDpi36YdR1ReXKgDKU8A8trNB+nXcvMLij59+Sbm83EkCKqkgIGNE8banD+xvWUQ1kafv5aYjvBAED5woYEgZSQUCl8Vv7ub//xm7uOCl8XvP36pYHEfZcX179erdUECQeonZWZdFwiADo/H16Pg8620vKS07BfjFjKt6ul7WUXf4W4VbA7olHqQIIXNVU6vk+C9WKkhwzY4t5BeEUfsU6+ZEkklnUZtNZBAt+8VWJr3JRDqHXCjxOZye1tNg9hdTcgOllJPh9maIPceSVg4160xK6BleTUlEwhOOxi2xRa/+QCZrqyKpoakAtakXSgByyOjI5c3Juvn8wW9rF2/lZTVtn9wjV07t8eOcgksfP1BH5IOJl1fT5tKoZJIOC0qla5FhcAA3KREJPnB4hh1bLc00KsJEcKZWTrOvXh6Rxs9ncYsszsmPih0a22lIQDZvWtH7PAJvnkPnoJiSAu5lShhfv6R3qRXFdQq2Bsilq5d6tuEGMUicXtTp8QjW2ytBzZmHaFI1Nva9fOXUhJJBTMFQqFZP2PsOI8lWTn31JRWADvCEzzIPD7AxLgJQYqkIB3dJ4/ZE7m8kUvFxKX6/fqbygoVjy+wHzYIO3Vu6Ln0HDVxIBwViHFxXgqF0tgakwLI7hbOYBje3E8lN656BZlDPxu3d399Vg7ZER5/4lgb7OxF608mpitXCGXERXh2Q81rq0k2Zme9rFzfFr89sv83b4+JjVwtLuHS7MB1yuUp2Ly78xhsYOiWA8eS6XIpBaqQ0jqmtEonBH8UEuoXtW5x04IE6mczHcLGbkYdnt06QyE3toY1YKTny6J3CnrH5iB+M52xYZv3h2+LpdG14GjFEgkIJ0ZcSSAR9HW0u3frZDGgr42VGeQc2g0t+qohx+mLIBMQisSB3lP3RIZAvtOY1RLOZU6ft4pBr8FMiPtCF87C7jhwKnjZFl1D/fbt2nbq0Kavcff+Jr0G9DXu2qW9rgZ1qMbQ4pXb9hxJYNC0EAQx6tQe5Arktlf3hvfTWYyZ9eTFn/L2peIHa8v6IOzrdx/ZbG57w7Zt9RvlrxpAqZeyp8xcCvEKRmrexDwuQtGi2FqbL5g7bfyYYQ0IEs6n50yeFSItK1QxEy3+R0etaM2wrqS0HGwPuDL03h32IanqQhIJBD26dfZwcQj299DT1a5tOhgVIgFHJNZQwuHj593NfyZrWYNs++zxra0JEiMt8q49lZzOZNDkH0rr0yIR7/uPyS4OatqjOBxu0KrtURuD5NXqSvYdx+lBNC0qDmI1SSWXz8tOOaARyCaPWmX0vPCN+SivqnsWxRy/qmNSkHvpMBi/2qaH/35k8+5jm1YFTnIc0dWoA7rHMdMW5uTlg5kFJwwe+NaFmDpAgnU6e/G6l+s4PKFp6qHKFLpxz9adx1QGnyw213WCfeLhyNrmlpZV7Ik5Q6fTenTtOH7UMBKZ+PmfkhGT5n/6/BXyL6FQ1N6gze2LsbWC/PKtNPbE+egj8QQ84a8nac2EEKUJM5ZczLhFZ9IV7kSlnSMSyYOs42DzMVUF3x8sVhu9WptAQZ9tJs57+OQV6vYh3BluOeDCye0qQD5+VhR9OOHsxRulZWV4ArFHt46FuUnNChI0cGbg2vjkDDKVIr2tkOvOY1ew/ea4HohagT5Zu/Wgvg4zyE91I4mb74rEc1myix8QBP85U3ZvWlYN8kcF51zGjZgTqXcfPhUKxWCg8HgcRJiG7fSL7ybh8Q3M3zWnP5LTQceKXr8HsyHDCRugUcmFd5J1qxrWf7DY3QY5d+rYbudvS0cOHyQ/ffnGPVG7j8tuQ9D+lCN7NsxxHy8F+aOCvXBl1JXreV//KSVCfEWq7qaFdzDp1Jd5yTrNEPGoJP+QzQePJsuah9C9xuxa6/vvpevZy9ku7osxZPJkJ7staxf27tEFHh44nhywNJLOqC68ox3Aj7LiTH7pKQUJstt90OTS8grlLgQwUKCTRXeS2rVtSPN3w2gYpLj3n8rqaFLVGmJ2Ta5xbZrPyqRzmVg8nkwiLPKdPtSiv7vfarDP8tewoMAGbfRe5SWRyf/e1nn6rzmTmqnc3l/VF859fiseVf2WoS9fvg0YPbO8nIWmYHDQ4GM+PLnI+Hd75T9Y/W09wLQCS+AI8DgsaLKCE+JwEbDM8TGbMbLL5cQLV93mLFe4EZK2I7FYZiZ9slKiG3lJUV+6evO+0/TFRJL03h52yBMIfD0mjbazopCJXB5fIhJHH0289+gFYEP3ryCAUiH/UXE6NtJ9ythqkOUVrF6WrlwuT8ZxYDfCQ2ZNn3Bo+yrN60dNSFujT4au3wU+EG3lBM6AWFUhwGKwGNAslfcdKIEpoVDIRXmJ+lW8qbauILGnU69ATiAN+biIDp2+/bcgb49JLQ9PRjP8w04nX2EwtGRGSPaT+ggMVMx1wsiE2M0/B8tm3rr72GaitMsU4SJ2wwfF7FzTs2unVkSIqTI5Vk7ez1+9Aaei+Sy0XT479aDtMHNFkEBDxsx6+LRwc9ii5Qub9PaxEfSq+J2lkzdkJiSNO1vgaAaYGN/LOCZ7UvNrgofPCETCoP59NFyuZSgl7bqrTygwE69Bhln1EQ03PWGXg721apD/WVojvaOJYWgz60yGIJRzHGV16dQu+Yf/HyCBxnsuuZR5m0Gnq4EJMTAkH48yT/ToVsOaaARSLBJH7Dq2dqlPK4KE2HPgSM+Pn7/VdkVc5dXZ0VErA71dFX7SCKTfrxEnk9I/FaTp6mjXObj5CLy/rbMfDotTrqJXfeTHnjl9fNzeDcoT6waJfg6DweOuJu0bOcKiFUFiflYEwukMmsIHeSwWZ6TN4CsJe/GqugjqALn3cPyildtoWloQcAT7e/y+Mbh1QWKkzfibD0CaIp9SsThDh5hmJUsbyFVOqQOko9uiDMjZ9bRBp427dy64caq1MUpL8JD+594vgDQFbfYfZWeZdmqnmppV3eLqGxx+OO4sRYsqqZTcyzhu9h9o/fj0+evgMbO+lZaLBcLZnpOO7V6nfrxGhudgXErIup3sr2Xr1y9et2xea2OUEqT4LnNXbAlbsMCn7oK8pn7yReHb2QvXlZazXt9Lab7/2qFe9M+37waapfKagoRhX0vKUtKuWVuYDjBpyq8GWoD+Bx2DyBDGVynBAAAAAElFTkSuQmCC" parent="tsqTvnH3BOsCTxECm0go-18" vertex="1">
          <mxGeometry x="500" y="162" width="76" height="76" as="geometry" />
        </mxCell>
        <mxCell id="tsqTvnH3BOsCTxECm0go-65" value="" style="shape=image;verticalLabelPosition=bottom;verticalAlign=top;imageAspect=0;aspect=fixed;image=data:image/png,iVBORw0KGgoAAAANSUhEUgAAADYAAABMCAIAAACpntMtAAAOOUlEQVR42u2aeVxU5RrH33NmHwZnYIbtAjMBCuKCXgFFAjVD0cqtTDOt6zIgiIoEaqUOm6FZertCIoum5ppr1i3LXFPUNDFMARcQZlhHGWD25Zxz3zMDxJYMikX33veP+YjnnOf9vu/zPs/ze895EYIgQO9uyP8Rexni5Rt3ohOzXx7jvzZuVq9DVDSoE9bt2L7ne4BjwGjyHOi5JSUyPHRob0HM3PP9yg27lDV1gMNCURQaJPRGYDJNnTw6I1ns6mT/ZyJeK7gXuSYr/9KvwIaJUCkIgrRcwnECqDU0Lic1btbKhdP+BMR6pXp52q7cvd8CjEBYjBY4aAtpdRtuwoBa6+3XNzMlcuzIwX8c4rYDP8Sv29lQ/QjYsFAKaiEjMAQYUAB/ISMdQ6iEBbvJ7xg2Y/oL6RKxI5/7bBGv3bwfLcm6lvcrYDNaPItDCzpKH3v97ODyoR6K2nrmwctuBXf4gGlEENQCiuM4nE6mPTctflbc/MnPBLFRpVm+flf25ycAlQI7hHwAQQi44GDfNFbQgMqvl53nO+EAA4ACgAGkHu4nORgI9DqyD8iJIKTTURRodAP8+matXRgS4NuTiDsOnY5bt6NeKgc8zraRQwrrGj4uvA9XIeByJjjx5yiMY8fWuIi/I5QqBDc/wAF4YeipD/p/zed83qhU1NYBEzbc3Vni4ZpQKisqqYCsb818cdOqeQK7Pk+LeOP2g6g1W69cKAAwJmgUwmiKDx7iQBDv3ysPF9gta9D4FJQa1RodwuXN4rqtOg50akAHyqvjH0SzGISKYdDW9ffY7+m8vb7ek8FIGug16dRPmMFImlbr2ALehpVzYuZMfEJE2O+KDZ9v+exrgOGWmCUXPoZvDRt+t1E9qbBcVCTVG5QGQCXIAIHTx+27F+MM/p7AXO7MCNPeuUshL2FUgDEBzejmuGOQR4CP++If86sbVE3pE7peoxs6YlB26sLAIX27h7jzyJn4tJ2PpDWAw7bErKXB9cSwYazw85639ztE6G6sqDXBiOBzUReurkjhFOfoOH+7rjiwdPFQoK6kCZ0MPxdTqBSmg72xqup+WFCMUX+/rLp1BiVBdXqIMX92+Mb35vK4Nl0jFhSXRa3JunQu3+xZaptsTBBw4U8Y7BWnNvrLGy6H+Z+Q1kwROve9KxX4ico/OcEYMVi0sezRUd+H/8rn+rvz/T0uSOtkfNsije7d6oZH8rrN7oJ99yvkdY2thw0s8a7S9nHmb3rvHwtmhv0uokqjfX/jvvRtx4ERQ9iM1nDNU2gKHeD5RX/Pz+6Vf2Uw5MM5BiB9iE+pGqN7SBNnnQM0G0CjAz0DMB6cOjt498lh47k2W6VV58sq/Tzc/Vj0FQL+eR5r8bGzCJXazn6z3/UjQoZkpkT8faBne8S6etWgicuqSmSAY9NuiL8NFKYYCspkM3RKLZmtYQaBj1IQYMSBCYwfIVv+yq1+zhqVnrr3oijtWH+goQEWhRQWKAUuaDI9sRgwI2FaPXwWoaAdZ4EEhVdN+N6cd2dNCm2DWFZR+1zIQvhk53wYbmtnS+ewTBjeoGiETkHptBaj5l/IynZzcWxUyhvr9YBlC+gmoNfCsEVotKbsjeECBy6XQ642AhDlMjmGYR0pyTsVyrVJEatiXmuDKK2Si0ZFETjoiGgOZGzXlDEjztzQGI21fp5xisbbxWVk9obPWwqMwRgW4Pu1GltgxxKwWW8/qNaqtfXPuaxqqP+lsOlOwmhMnxDyZp2SPfelis2Hxhi0sgdVqPlSe8QG1fqUhSsXTu0OIgD7AgYGfXuVlzpfuTzz0vTQmXkFAE4khsGcTM4hBQ0d1v/fV+5EjvD2RdH5Ry/ablqsWpObFxYw42oBXNzkIkGRD4OHvn23wubd2RXvZ4d5OFaUVvYk4h7/AaMKy91+2VEinF7g3/dLhz7TYZDyOCvLKgY52EVDucPnDfvmcmywrzdAIn4qEhxJK5+YQEuL/FZWTaXTqULHhh8LRvV15+88wV/9dsXq3HFCfk8jBgwMvf1AT6NTOExe1vK6F2Pt33hRc+R86eQQ3vVie6WGOrSfbs/JFdOe9yZA5NVidOooxa4TjrGvEdfusof350ROLvWaKch4p+qjPc5r5j4bRP+Bo+5IDc72DA9Xp5Vv3hK95LBojlFeLwjyrUrb7bRPYjtuuMxxUsJoP28EiC/cFlYeVZ6+LpvyLnOQB3viSH7MtELhq67p7zzcuN9Z8o+KVbnjRIIeRjwcOGhsYTnvbHqJw8vuu9bIN+yl93enKnVlCyfhWV86XSum+LjTrxQtmxbsgyDivafxUUOxojJFoA8mcrE/eAbtJ0R0OudUcfWKTJdksfT9zBB3vrSkBxExLGLscF82kz5mqB6KRZRCFTmyz+Y3MOkpt0tdHbgRTgIVi8Fl0Hbflzn3YY9hMo16o4aC7Kl+CBOMxNWRXa+uCvUj2AxTkZT2nJP6rmz91VsNdcrOc1x3EZsooTyBUQl/YSDDR+C/WQwyG8OkQ1ogSG0G8w+Zz1tVVMufML1TqFDSkgmcak7jNKgxqJ32ZRViUyHpurXdqMC0j7YSBxjeeojmrpAu7ME9BUqWnC4Q4X0sFgO6lAS1usFyptJo9AYMdkGYmx2PgxBkFbHSAkmGg/pGJVRORKP6sYgabZpE/F70q1pSI1nbWEzG60s2Hjp2DmUxcAzrY8su+j6db2cLS5yVFmhUSqm01jc8FoOkSs1jEVWajWnR7yzo3g4ItlnL/rn/0GmUzYSakmPLqrq0jcNmdstCpVzhFiy2MHSB+NHaqISIKd1FfCN204HDZ5oQOSzZxRyuLbtbFqTVj0QhkSTOfyHipfziBqWGgrZJECYMc3MRDPYWWoMIH8/7uZACZWwrC7BXuOxGBQywYTOeFnHA+KWFV28DBr3NkNXaGXNfOZAebw3i+Su3Ro9bClj0NnkH5jXM9Eterp+P6GkRh01dkX+9GGHQWhMSat1bc8J3bVhiDeKl60XBr8QDNqs1Idmv0XTrVMaAvu5Pi+g/dcX1/GK07Sziau3bs8N3Wo84KR4hEVu/OsP/Cogm0+1TGb5eTYiy6kfC3oeIlV3MFboKLP9T36gWBMzFYOXsJYgWARUyYqAtmwVx4Q5dpzecvXyLfO3RRQH8oxBBawHVxILAoLRCRvyBiL/X/mREcubgKuxUAFkrxp4lIjAXFa4NEyeFJtEODycIlVpjhRh7lohQ5zoIuLdOfMJmMTGsjR6l0SgPZLWDJr6D41jXYuxZImICAa8qL4dKpXb085OLsR5G5PNkF7IY7Sq+ufWK6gIRHQR2tT9ta/t1plch4rgdz/ZQRgKLSYdrEceJQD8vuKnoRYhkdzAa9AaAkxUQYFjBxZwW0dkrEM15EVjSDfnNxtT7lc5fQIz1FOLACbG3fy1B2+44ewDRLLpuns8a5PPUa3HTZ18lpO0kVFryu2nzK5GnQTQLHBMMmgkvBx/cHM+xYXUb8eMPouPFTVt9eBXaLa+QRyfmfPPNBVinELpZLz0pIo7B+qZ17eeeniSeNm54a8/Iasyqu+vqotZuWhcdN28S6NC+OnVtSUpuWVEZnE44B91FBCwm0OgBi7EyalpK3Ew6ldbOvvxRo1PQfJKn8xpdKReOijJ/+sadHOw+kSx44+XnO1KacDw1/Yu1GYfwWsVbkVN2fbTUGsS8n4uenxALUHTchJGfJkf0e86lo+V7ZZVRkpxT5/IRGpVUOsmRcCRtEMsr5aLAeYBGRWg0wmQCWv2YsMCtKZE+nq4dzZVIa95K2OzqZP/FZqv20acv35wS+eG29YtmvBTc0RqGYZJPDqRtOQx0eoTNJHlq6tZ+GLNq0fQ2iLBt3HZ89cZ9OkUD6Ue4rtU6wKYvj5iWumxmp1X/fnm1l9DZGsQ6hRIatOdxOhr58uSVxcnbZffKYadQz5qPpmCTJ4dmpUY6O9i1R4StRl4PV9vBQ2cBjQK3EaQ8Vmmcvdw+TRK/Oj4IPLZ1950OVIdRidnffZMH6GQIkq9M1RoPX48tyZETRv+99Z2dfOz94dLNGEn2nYJ75MgoKJkgDMbx4UFbUsReQpff69J6RAzH1qYfTt1yCGtUA0vGUWsptjarl7wmWTwD7bC/+d1P5h/lHFv9z/2GukbAIcs/0GhhSL4X/Vpq3AwKpRNBaiXiv89cj0nKtqQF8/iNQG98ZXLIp4kRQleHTkked/CgslaxNCX38NFzgNLsd6XWzVsI/T45LLC7iNKqRxDuq+MXAJ3a7FmtyFuUniKe9ELAY5ZE18c3frh4E5pu5XcjMBrDJwZnJok93K0KF1iMUjOOpGQcMDVomjyr0SIc9upFpGepVPTxANYeglm39XDivw4YFaoWv6M2LNiBZOnrlrLWHjEvh8shEU9euBGVmFNy8z7gsJtGaDCNCw/KTBZ7iVys6bobR4lkVXWxH2w70uL35hjMSIp4acwwmCl37z9pQbTtw268sbtarohJyj1yrNU6UWvd+gk3r543LTzIyk67h9js94JFidl3od9bZsVomv1GeI1c8cP5fJRBgxKGx7VZPGfix9uP6x42kLNuybIs+sroV1NjZ8H9aLd6fJIzY/CBdZlHkjbvN9argI15wen0ZGVqOaIFJxiqf5jw4BiMJnh17PgRmcmR3h5/625fT4hoaRXVdUuSc49+eQ5QqZZ3uO1ffEHpr1I7ebqmS8SvTxz5ZL08FaKlnfjxxiJJdumtEvJET/NnUfKgm0YHZzFOPGV9wpv0zurnH4cIfvP7AbPfmeRRBL1hzNiAT1MiB3i5PaXxnkG0NFn1wxhJ7vGjZ+xFLumJC95sPsLSixAt7cyVXwd7iwR2tj1o83/sXPczav8Bk/vzDmc69cEAAAAASUVORK5CYII=" parent="tsqTvnH3BOsCTxECm0go-18" vertex="1">
          <mxGeometry x="280" y="322" width="54" height="76" as="geometry" />
        </mxCell>
        <mxCell id="tsqTvnH3BOsCTxECm0go-69" value="" style="shape=image;verticalLabelPosition=bottom;verticalAlign=top;imageAspect=0;aspect=fixed;image=data:image/png,iVBORw0KGgoAAAANSUhEUgAAAEwAAABMCAIAAABI9cZ8AAAVJElEQVR42uWbB3wU1fbHz53Zmt1NAQKBYACFgCKREqqi0lTkUQQLUhQRREVAKQqCyKOICGIDfSCPIgLKE1FUBEJXQJDeBSG0BNOzm93pc+//3F2EbFASIEHf/93PfjYzs1Pud+6Zc37n3AlhjMH/90b+VyFxA8E/tPBuxZwGT0JIoT1Z+CF4EUIInlC4/DKl3hijhBS+0B9B6gyeOgHZOhUZwZ4IJvJSwAPx2ySKRh+uLJwtoLszmZUxWYJJza3JlYUR3yvHMqjNwC3stQ6OBevl7Gwq4qoPRvWOaJpkw6uPfD3/3AnDYjJDoiPHx8ydkufLoKLJgOlENCtUgSb3uzv1rhiClwL6s103SgGFCNgjgxLdaqN1ksr17N8osU7cxd5uWn980qiVdrsVl2VJnTzzocZNqxc/klk61N4PMqUxQMqLkCpRKyPMpIJO8FqaBjOThLF7DL/MQIdIBod62Qo00nCmxDRKFFbBBlM6O/p+6HeaQDQWyDGGPuwa8ZQ79bT+QNcsq07BzxLihBGjowd1zHQCtTC0GQ0/GigSKI2SnXM3NYyIsKxefrZ31zURwCioBqgU8EhFBskCdMm3fR7oUJffCFlLrv7mmcx8O+BpwAdyyupBre5LLB7yoAT1D3JzHVeFLMmETJVa8DYaVNeIqdG6LuhdWRiz1/DgMCrQNUGY3do2e5c+KkWNxnvpp08lW+2MzVmjeggQlak+s0Udy4IJMTPm+t//wBdpZXIWHTjYk3Pa/PJjnxsYkUAFVeQMSKLlQqD705UnzqnXv8PmdStPWYHqIFtsZkDzi2CaoAUg0CS52pqfB2EXB/RYvGjJzihwBq2f+UFdvXlg85Y3Fw95TIHXzkGSkybayBO/QiShhk5uskILN0gqbVNBWHqabs807QbzS7D8Puu9VcUHlsgHz5l2E+SAuaCHc8IyJT2Dr4LKWMCMcwvr55Tr+GT2qWO6TWdmAf14fuzo/tkFaYagULTjJg/aflqZLysyAV0BJbaKsGRvs3YJ3ymKgmPoiWHrTvRYOn//mKGr7EBxMBs3qbZ6+wtff7G35yML3OCgwCwgIIYC6qY9LyXVr1oMJHcOvzuezkfIei9EAPXKsPQ2oVMlvsM5idVfYyAA1WgFkRx41J6ab965QOFbFFrdRV5tY3t6TsDNiIiPksKIYmIv3nghcthreRaD0gJ2e01Lnz7uYb2zPSJoOUbLjhHTV1RO+TJvWLfjDtA1UGPjhV6vxI8bvMsJZgCkbn1unj6vzejBKbM+2GIHlgPeKW92fG7oPXWi/+mTNOxsUoPKx/dmmYypoG87Mrx2nUrFj2SondfoHfsIPhCMUheDg00EjwXR2VtH6YTDZhRAIECfrilMa26bukOf8qMWSUAqoENaWPPy6GdbtQiKtkoFlQkaFXWoWZEcPWjYKJUy6auvRB3aoab8x+8E4s8xpi+r1Kar+9BOqXvjA04w0HRr1rM7y9GfN6VbwMQHNTbeimc5dTZLBMMHBTWqRO5LG9Wr8ydfrzjgAEtsBdeQsfe8PPibCLDpYGw/NuKWWrElhfzwN/rSKRItQEClj1aAubcKwfFld280juSBnVJ0AmvbW+qXF1ssks/kUKsBumR++ljE8M+kfB/HK2+HupXEzTtUB95kiVl1YIopKDBrZvkX+2apOaaeT6NdZG1GgsUijO9/Ztmc8w4+dPI9D0XvXpfh8wUgOLDob0zumdADa41bxf17WfdVKw4/3XuRG5wKaHMW9cjNloYO+dIDDrS+XedGVomPLinkPYfo3gBxMCjQ6Ld1hdblcDchXWbJGwymAzGow4TtHW2bz5oDUjQPOlqZ3lFBGNDI8synMo6z5qft6lo7NrC+MNUbLRDQmCgzzW82xY3tna8+l1Mt3tIo2db+sYi6DRwL3sxe8HaGDVQd1Igo2r5v+QXvHLOCgasxcUL2bz6k9YJv0IimY99qez7d2yhhim6aNrDgI5J8V8KZEzm/nS8QQLBYyO60URUrekoE+YsMjQ9RO+OhsQKBg8nMKvDweqSAtdhoOCkGT4bPJN4xn8TQGjGS+Xzm4oed/9mlrtnHd/DlmbP7u2+tQtoNyfegC9UAIf055oTRkRtXKj+lyOU9xG3hTij/DEZN1QEGWqYflGlLEj//6NTOzRl4YxBy5AdJkwZtBe5UpXYdqi/8tvuDd87cujXVBdwJqGDEV4osX9F19EAm+nK7w7IvfWR0jKtEkJPSYHwajRJIQId+sfBeTRYSK36d3b7WCKjo0RhaEDN4oMY44fXTxxLFqe3sjab5mUIxPKLv3fZGlADkrgE5egGqAiAStRjso2nlBvbLhgK0Z0okBhIVNR4nMUJiFHl9YULT1lGt4zfgsgpytVqOT39od1eVhQZV8RbUSHR3fiLxn2NWokc1gHpcNrTzkVPuW75w77Ytp0UQIiNte9JedbvtxUNi/2vth5MKD4+GAVuTWPOoiyqJzkuFF/egJmA2kxEDDHzYKH2ytmVaW9u/tmlDliq4r+qnDyVZ5g9Es2H3Pp977BfDYTDVSx+82960nnXsK3lRIhHw+ZTQVBg6zGgPa97F9sw/46rWsL/50i9vv3vYBdQH/pEj6708uWEd+6zzWr4AOoYTDXiYwR67wLL9l1dqJaI8gsRy407m5eJIVrK5jnvHOR224iElA77yArdUAnYGncuDKIRpziP5bNlZdjrfZCbU9ggdq5M65fkOW07SM3mGDW1Th2a3iDUqBjfu189nmCKAqdCGSbbcTHr2lCECw0AlEuZ2i5WqCDclWp1OMXT2TSuzsn9TBAvVdb1t56rlKjhWfX3SlycRgXFVyShXX6YRnxBzTxuubFAvfb10vyxpuOz22Dp2q3+5YV5zFlL4qDLR2aXY/mdTrf937Qr5JBRKKUtukNdguizYjaJJYNlCntfg8ROAGk4w0dGSUD6JfeCrJhEws8MtQddKTJ5tEYPxjxbcwr+ZoGMUIUzHEIoBBlMYHmb4T/iNGxUMP3yVybRCRXHq0rhQvj15SOreH/KsdiOYeWFSoqPQATBMvhzaovHEEqPuH92nQIHa/8XmT/ZrXtKRvPcIbPFzaU4oQUJiEjCxrwSFDnAkvsC7rvMoH/zmH1G7QML1jRpEUri+wyRTCC3LTFCCqxLlC5Ipq+brM2IfGciF2JBOR1d9k27FK13QcWrwW0E2DB6Mf/PlcJ8Hv5scyjBzy66hdzSsWjJIgH0BaHkYbDyjRadNBTOYNHM2xowLC0HIIHkQEi5CapcgsZ+iilkm/wl7LiqAbJiaiJIp4HbJZAXMGcGWn60WGW0Z3//EZ3POOoOQBg+GF74pj5B4mB6CJH9UN8kHafCgeye/37mk5hpqL6TCnAyKsrNMIXGLX9W69veMmV3lgzFnPpx0IoLXWq4OEjOsmKiIPWkj3S7H1UHmaNBgP/WbxMa4uZYdJFMNGbQVqTU3r8x9feBR91VCMmD5IM/48JG+z7W4Csdzsb2fTkfwbKtsR5KoPL1qdn9Ex/6RLz580Mll5VVASqDVvS3ux0PD4M/blSDRrTfcR1Il6mRlC2mCirly68ddKUsy4ILLKREk+psAqN+tf7Zlq1rXCIknWZVLHjpMo4D72MshmUYlCWgIT71AiAshj0o0E90priIw5wx6WkyQbCa1Ii1u/B2SBrMq9KUyoAYN1eYUPVjXwvuEiaWV27B2OWQBKF26JH2y/Em4YitW8dBuB8maXIZpQRFIJMQs4/k6IoZNyiMnf3SJyVU0CS7zWqnJ98SfMKFxWkDymnt26ge2KWqeadXhcsg3l98SEyv6fKqqGPhRNJVSuvyTI1s2nrSAWQQSYwaqhx2pIxKql79eyF8CpMUuJjJqMcMg0axUBZa0trVJICUROht+VN591zdssCf1F/2tUbnRVgHkS5A4gIJNX5PdwOOxFjmwWfy8tPRcEYwikHkgjRzZZuzkfxR76ZJoV/bycTrzLItE9RNurppCE+zkp0cdwp8LMhyKL9aocxYFDu3V7k22LpoXSxn7R9P0zJOYZKIkuARpd+krzzd0eyyFD39t0ObZM3ZF8HmIsGcSw0bFWPees6/a7Zbi+l8iSFpgkPrbmE9lNhoGiYPp88OkZuLABtbLBpPpBvt8nTpnuXz6pO6g6HLoV/PL16rJ90z5VhraPTNSxMf1AiQ6nqhY+m1aA7v10g07fjS37a1LLVweqIUhscdekOcu7PVYr0bFEpYQknPOPccGHoIY4A9YYe9qqsRJ2Y7e9hjHxc4xWWULN2tzV8ppaaYbeJ1OyjWf6OQcOyzq4hn7d/pt92rJRUgIUgElrhr55lT9wjerV9tVG9elOoGFe1dAj5rc6Ka1O4eUhLDkkLzrd241j3rBzsIgQSf+AvrM7eLk1rzo4Fdh/o/a3PXK+QwT3ZLV4CUcw089BFIWVYh0X3x62dGDWs/GaU6TiDqHlEGpfpvli0NJF6+3fuW53h1Wu3jYDAshGDYkUNZtG9S4WY1Sh6Sbc6DDdtPNmGiGxUnKAxss62r/8YQxd6ualc1cjIeKUJzEp86fbUweEtn9HxFFzjjxhewvZ3o9fEqHF7Jub25bsPX2C3cUoM3NK06l5lqD6UhhSAwbPR5vNGtxjxISXhUkv3TPXea3adQd9EAXRlIjqoJbmBZgmsQiKLMYPC+5KAZ0H6sbLy5/v9zlZ/P5aJfqZ9Q8QwA9AEqTto5/pdwW+m32tKPjR/zs5rRhYkAHxWolu86OrFQpsowg6SmJNN9g4CNiNTkkVWlAgs4JQqyVLd5rOA1egC2seJhiynn0P29EJ9e1/mGYWfJ+/tQhmRFByHaPet76nNemcrPV1gmrFFnCZLIIZB74xo9/YNhr7UpOeLWQ/PaPP2xOPYIaCHAARQMmNLT0qC00nasU+KktlDT/DokeUc4zOjWxvVfI31x+wkdqnT7zq18BtVu/mLEf81m3UX33fD7v1wge/cNknQSB+HjnztOviOLV1RCuusYjm6zRaj3Vyxp7yEctLHXLCS9vVOftMTwURD1Mu5oStWp07Tvl4spdSS1s/T7w/IOpJij9R8UOfqPaoT3ebg03YdgAru8uQeKDkQfehV883rlb0tX095og0WgXpcKuHPp2I5EQOJpLW3+mWk1OWFigoxD355mjukU838VZ7BkHtz/93aqM16ZU7fNylR7Nt+/+KdMKZhGB7ofAnfdU+Wrj01dLeG2QECxwhQaH9fxeW3PS9OA5wrMQ00/jPWTD5GihBJZ1+rjaLnH/e4trRERBvw47XXxGOSwL0UBWQVq3r3/dpLjiT1dKkKHGfkinD32juYAPYxikwmSfuWCgq9Ud9hKea9Jzp2s1cHz69qnUYz4LTzjCINFQn+hXb/rHxcvUUobEoNx2hXYog0YwKJJP6n7a+Cbhg75uk2EmeqGyiVcKlaB44Q94+Y9v5NbARCvk5xrThqZu+T7LEvSohSFR1lodxva0Z2LKRVxbV68dMkOiycs0pgXDSTikIdFby5NGCeKClapNY3ZKQyklJpmiSonMBDlYxZP5KsO0EXWTRVHQKsPTZSP4xgeGjQlv3/3s0MbX1s/rgsQheHuPOXG7HiWAoBU1V8ln/vs5d3knGfSWN+2cGYn7qFRUwkuScjAL4bKOJ5MsHC/0rUCgek3XxuO9r5nwOiF5obfZ50p6Pp91Lup4ArRyBPlhahR6xtHvFXy5QnYwajeAD+ll5Y9g1s8PK1LC0kHzQsGi7x5s82BJZWrpQ+JgrvjV7LNKi2JBKRceQnx55thHIwZ05CFkw1b59cm+zDOGRwA+61wyyAKQ7r6/0sJVHa6H8PoheeuyTPnpjInup0ghC8VABIUN70ZFe/jcoz9Ax030frcsgKmTTQ8O6RUhDZDR5aQc73xzzZi/HJIdzKL3LZJtJrGGKx6UdYEc46n7HOP6h95U4Bl9yhp50ui8nFO6B6WEciVINNR+LyaOfafpdRKWzkhi74evURfsNqIZkHCBTlEEBmDNe9EJ8eJFZefz0vHDc1YtCfB82ghBooLTQrW54IKqguyKhE3pndwu2/X1rdQgIVdmzWcFMNWyGlCk7qrk0faNbTNGF363hg/p6uX+d4fl+tIMQTOVC1M6oRkeDClqAKTJ/2rYc0Cta+5S6UNiv2dt10d/r8YQnm0VhsRgqHjp0mkxDS/Ltsb0zfzhi8BTY6NadXGJIqiayfNnEnp7lt1S21NaE/WlONPMWs6UzmTwN+mKVNCVfNrgZsvnM8Ly5gM71T4t0+0ao5Qm3Sn0m1ChSauryIP/Msj1x43H50tRQApXBkLTBOiBPhwXc3/rS7NOvdumH9miRDDCTRoUzCfrJFn7jYu776HYUn/TopTfGeg1X9p4WOeSPRwSk5KbYsiqpRcAvlpSMKZfdpQVCnlXFTkxMNZv4Fi8ranNLv5tIdnxTNpuuh9jSdBtXoJEpRrIMscO8/Tu7g4EzI7NzxecN+36peJyyLvmgb//8KojpiZef1fKDpK3cV9LH6dokWJwSqfQrJbhNyNFsmV9pakTvQve80ZZSOFpAiP4enZ0Jfb9mSY2W2kOY1lAsgKV3T2+wO/lJZ+wqTvZ1PJpu5aOXZv+YMIHzdUL0pRPbunY+1rS4hsMyTk//VF7ZX4gCjWNFjY/Kchg+CimZlY+jRcG6Qe5brLt05/rlTphGUFyzgcm+I6fwnBCSzIJa/Dor3yyIzGpsef6r33jILceMbpP4f8sYNGKh/SB0qGXe+LC6mVBWHaQvD37QcHqLSrmVleGpChXrdpXZxMrVLKU0buIZQfJzmI4GZ4vatxi/wySz5So+gsTY54eHXv9l7zxkLxNXSLN+MwfJZA/gzS9LC6BLE+tRkpSuvx7Qio6a/1sbn5W8B9hLocMmJLPnL48rlUXd9n1ocwhsX21SX5xki/awidbi0Aq2Uby3fZZa+PLtAM3AhLbwy/lHjqgOxgtDAkS03zm4h3xtevZyvrd5xsAyXYf0R97PtcVDCcXIQNZ9NG+rjHvl6G/uZGQvA17w/vNCtkj8sFESOYzXVZYsadKZFTx7278t0CyrBza/rEsw09tejC9/M14dXJMzwFllSX/JZC8fTTPP/2d/GiLoHuNGvGW5Zur3Jjr3lBIw2APdM7KOq3rXjp7YYW77i1+3vK/DxJbylr5qSeyO7e3z/x3xRt20RsNiW34SznPPhdZM7GsZOrfATL0X/hl9c/3fxPIv6b9T0D+H/WAR1ml925BAAAAAElFTkSuQmCC" parent="tsqTvnH3BOsCTxECm0go-18" vertex="1">
          <mxGeometry x="764" y="322" width="76" height="76" as="geometry" />
        </mxCell>
        <mxCell id="QayPw9rXNkPnkpLyEU6B-1" value="" style="shape=image;verticalLabelPosition=bottom;verticalAlign=top;imageAspect=0;aspect=fixed;image=data:image/png,iVBORw0KGgoAAAANSUhEUgAAAC4AAABMCAIAAACd5xIxAAAQ6klEQVR42sVaCVRV1f6+585MF0SLnP0nmmKICKKQOBQOiBOKKIIplpXG02WaFg5Pl0OOqbV6mmb6sl76QB8qoHAZFWRS4ckcKAgKagx3nof3nXPgeEEgpfS/1xLXPWefvb/9/aZv73MIs9nM+hPNZDLW1xZVV1WM8pxibSMiCKLbQxF/Ekrd/YKSgrj8/5YNGOQWvOQzgmD//0Cprsj5rSiBy+EXl91vam4a7Oy6aOlGLpf36qDgCdjhbum1ytJUDofH4XALS++pVVqdVtNvgHPIsi+EQptXAQW94Q5ldxLvV2RxuDw2h9PYIGtokiqUagyl06p7OfUNXbbJTtTj5UJBZzhmScHlB3dvcXgCguA8+b1ZJlfy+ByzkdUsUxj0RqNBZ+/QM2RZpGNPp5fLSkHe1ZL/JvR07MXjch//3iRXqvkcNC6HxzabTb83yFQqjUqltLXruWHzP8DZS4TyoKbi5LGt1lZWQwf3a2yUsbnAQej1RrVGazKYG5uldfW/K5WKyX5zPvzki7+YFdoo9F/6yk8nttdU/+bk1MvewVat1MhkSpVGR9003699rFapWWbTjr2n+/b/v3aD/AWslJeXv/XWW8zPksKs6H8d4QutB/V7/eHjBvgHm83GTGqV5n7tI/jKsBGjN24+zPSvrKx0dnb+C1gpKCj4aOXK5IQEO5GIvmI06P9xZJ1CJrG1tcHjGo3OaDQ2SxVymdJgMGjUqrUb94/2fIcZYZq//5qIiBkBAX8KislkmhMYWHjnzle7doUsXsxcv55yIVUcJbQS2lgL5QqNvb2NrbWwrKLm4cPHTk59vjr0L3arObKys8PCwvr06RN7+bK9vX33oezes+fMmTNwUox1+dIl5rpC1nz0m/UGvYHP5yFwyFxjMlXXPm5uagoNXzNjZgjTc+WqVRkZGVjS1KlTD339dTehYEEfLF9ua2sLP5DL5cd/+GG8jw9z92L00aKC6zy+EHcx092qB3qd3srKev/hX23sWlZfW1s7c9YsHo+HPjKZbP++fbNnz35hKDeysjZ8/rlarebx+fipUqnGjRt3/PvvmQ4PaytPf78Nd8lppIq6Rw16nWbylDnhKzYwffbt33/q5Ek7yi4GvR6YduzYAXpeAMrO3bt/OXPGxtqay+OxqA5GJHW9/uJ//jNo0CCm2z+Pb6t7eJfL5dc+eKRSqZFot+85NWDAYPquRqOZMnWqUqEgBzGZULfg1Eqlcv78+Tt37kTQ/QEUYF/x8cdZmZlwMTPVG/8oX4B/yOC5mzdvZjoXFmTE/Ps7oZX1/Zo6hVw5zGXUF1u/Ye5Gnz8fGRkpEongwuQcVHZCrMHW7u7up0+ftrKy6gpK6JIl+bdu4XlyepOJvkcGA5ut1+v5fH6SWAzvacWtO3pknUopr33wWNIsXbvhKw+vicxQgfPmVVVV8Xk8TA9nAiX4zwytZTIBjZeXF7DyLCpDGyhr1627GhdH5w9MbzKb4SuoIwKBgEURKpFIwMqSsDDmkWvJ59NTo+vqGmxsHfce+pXDaaE979at4PnzbWxsDGaSClRJo15PFgkul54PaGbNnn3CwvmeQvnl11+3/f3vPRwcMKmJasCxdcuW4tLSC9HRNhQTcJfevXvHx8Uxz8ulTd9/s6GopCwoZOXM2aHM9U9WrrwUG2tDmQDjTJs+PTgoKGL1ap1WK8TCKOdDTH21ezeCtA2UJ0+e+Pv7w5rAjSvAAac7fPiwn58f0vacOXOQWgg2aq9ZJpefPHly/DtPk+mFc98mJcbu+fqsyL5Fozx69Gi8ry8606PJFYqos2d9J0zIz89fvHgxkMFqpH0NBp5AkJaW1vuNN55C+fLLLy9dukQ7Aa7AEPv27Zs7d26LA4WFIU3RXoao9h437ty5cwyUe5WF19Pil364kbmyffv2vXv3wuHMFJEuw4dnZmTQt65fv744LAwCg83lIqwUCkVISAid+sjs9PDhw4CZM4GUDjCpVDo/KGjXzp3M0MXFxXFxcQKKWPRHtxUrVlhbW9N3jQaDWqOytRUx/U+dOtXQ0MDFZICi03l7e0+YMIG5e/DAgX0HDtjZ2cEIcCEsPS09vX+/fmSsHzh48McffxQhEcG9jUasXpyYaG3zvPq0nQDoUA/QC2B+wljV1dV8KnnCf9esWfPFxo0EvGThokWS5mbEFbrLJJL1n3++4sMPnxNH99q/o6IiIiLs7eyAGjmib9++MTExRGZmZvgHH4ioQgPsWJM4OdnRweGlQtFotSgjUokEHEJhqFWqSxcvEkePHv360CHEMHKatLl5/PjxMNZLxUG31atXn/n5Z9rhENW7d+8mVq9Zk5qSAkMixhqbmr45cmSxhS55eS02NhZlBM7LohJPcHAwMTcwsLioyETleFyCw44YMeIVQIHbeo0di8QDFhBlnp6exNhx4548eoTUBjRwlxs3brzh9GL7l+41GMVt1CgUaqBB2KLgEx6enrALsKFKId+RUKjc97KbXCYbSUFB+gGUfsgrgNLU0IDcR4dP1quCIgUr7u5KuRxQkNv6DxhAeHh4NDQ1salIhoFeHRSpFAZC4qcNNABQRnt4NAEKVY3BSnZW1quD4u6uoFhB6ejXAqWhgUVBASsvFYpl+geUkW5ubVhxHz0absulWWGx2kG5W1mZnZs7MyCg6y3MH7asrKy6+vr58+ZZskJDoX2lBQrttmCJZCU72xIKygLyL/q9++67oaGhKLB0DXvOBq0THR194cIFiLrFISG//PyzJRTXkSPbQBnl7t5Iuy0qqtmcm5vrZJFXcnJyJk2ezBcIULSAFdE/fdo0YBrj5dXFZhzSCern7Llz+bdvq9RqqAskMewRfzhxog0UV1e5pYEApcVtDQaI8nZQMm7cmDhhggOlMuHUgK/VanF9qLMzJM5nn33Wq1cvSxCXL18+ceJEdk4OxBcQYJdE7usJAj9DFi366aefmJ4yqXSEq2tbVkaNamhsZLe6bU5ubm8LKOi6aOHCq2Kxna0t43HABJLg/NBTM2bMsISC0YqKi1FZLNUJhB+Wd+7s2bFjx7aDArFCszIQUBDctNsaAAUWyc6GkG5H+KbIyIMHDwqsrHg8HoMG6TIuPn6Kn59lTx8fn8KiIlrv0d2Q4D09PKKiopBPLXviusuIEW1YcXNza2psJBhWcnKehYJ2/vz5jz/5BNqbcVuMcjU+/t333rPsBhUCVug+JFy5fEFQEOzCrKEdlKesDBxIQWFSHPYvOTlvdAQFraysLHDu3If19RiXnuZqQsJ7kydb9hnr5YXNClhBB3jV2jVrdu7a1eFogDLcxaUNKwhuMoKoRaDdvHmzixT3/vvvn4uKsqakP0aBopg0aZJlB08vr9KSErCChXEIorSszKmTOk9DacPKyJEjYSBs2rAIOGNRUVEXUBaGhFyMiYH0AugOoaCilf/2G6BgdJi78M6d/v37dzgUyuHw4cPbsII8AwMhJ8uUSijtkpISp871yoLgYCQMK6hAsxlFNSk1daKvr2UH7MvLKypIVoxGCI/CwsJ23voUilQKKHReMUCvkFBcXRHM0G/knpbPL+0SSlBQEDIHDASvwihpKSm+FhscFhXMFYCCLTvKDYcDfQg13xmUt4YNg4H42C4RxAAYCPKx9sEDFlWrsGkrLS3tAkpgYCACmGYF3KanpaEsWHZwdXND2eJRrGCzXlJc3LtPnw6HQtJDxACxtVCInz0cHYmhQ4ciKLjYqJlMXB4PULoQlHPmzr0SH0+yAigq1bX09HcsNs9ob7/99r1792hWMFpxSUmfTjyvWSLx8fY2UrUaBurZowfhPGRIfX097cbwoDJA6dxtZ8+efSUhgYaiVCiwAfaxOJ1DA8f3qqpot0XMl3XOMaB4+/igroE8/HUAK87OzijfsKup9eEuoAQEBCSIxVYUFLVSibqNnMbcxUVkraqqKtpAANQVlOZmQIFXAIreaMRGjBjs7FxfV0fLbFBaXlbWBRT/GTOSEhNpKEq1GurTsqygtru4uFS3njTxhUKM9vrrr3cBhUV5NzpDDxGDBw9+ygqfX1Fe3tnDaNOmT09OThbSrKhU0FleXl5PoZhMw4cNq66p4VEGshIIysvLX3vttc7cFsY1ms1k+TMYSChvDh5Ms0LWIA4HlHaWCdCmTpmSkppqJRQCikqjyc3O9hwzhrmL6QHlPqDweBgd5EE69ezZs8OhGhoaAIXekuFBkUhEvPnmmzQruK1VqZAnEhISOpNq7/n5paWlkaxQx1J5ublIr8xdTD902LAHNTV4HGjsRCJIpw6h4PF5CxYU3LqFvMCmWEFnUq8gJ9LnY2ZKWwBNkljcIRrIyvT0dLBCnhhqtbfy8kaPHm0JxWX48EaJBGxzKb0Cv+7AQGbzvKAgqBEHBLDZDIWv0Wr79+1LQHhCIOr0ej4tMign8PX1TUpKehbNpIkTr2VmCmEgsKJW3759G5meuYsqhjQjlUjY1BEci1LX7VjB1eCgoMwbNxwdHcmQo9QjHjx8+DB50oL0AHWo02oFtM6g9vHgJjkpqZ3OgMzOyMgAFPi4VqfLz88HqZZQYH6JVEqeiKIcstnwa3JKi7Zw4cLrGRmOPXqwqJMpEAkWThw7NnHSpJZjwdTU1Bn+/jqDgeEGi4aqTQQ3FmjG+/oigKEXBZTwxlNI3sxdeI+3tzdd98nfbHZWZqYlFNAPV+vRigNVT63RHDt2bPr06SzLc9uklJQAf3/AhF3MVL7SUYQjehmB6OfnBwFFn89g9XApaAxmJnAJKKhNPCqvwB9hIHLiVhyA3oIMS9UiSFTQ5AGtr6zanGanpKT4+/sjqmECJEFkPCwUnMfGxtKWmjptGrIWTyDAY1K5PFksRmFvB0WlVLLRmTIQoDhQZ2nLli0Ti8WABYi0UTAy9iKzZs1iHm9/xg8OQkJCoKgFVO2mdTLChEYDVioqKwUQlNTJorgjKEroHmzwWCyU2LybN0Hh8uXLL8fFOYhE8DDy/YfRqFGpjh0/Hth6LtwxFDRMELpkiRWfz8Euhroikck83N2Rb8AZSjfNCiAmwkDPQMFfLnVEAlLz8vJW/+1vkPstZsJmymiUK5VHv/tuwYIF7ebt+H1QYmLi0qVLMSWfwyGoDIGJUW4aGxux88NMNFvo1s5XYE2wgkcMOh0yIeILCyAzKe2nBgMq13fffhu8cOGzk3b6liwBaJYsEVpbQ2WaqQ0WMj3GsgfPlMhAEWkHBW6IkgSIwEq+61Wr0dPGxqbl5ZbJBOH37ZEji0NDO5yxq3eHV65cgZnhwqTPUuui333TdwFF3DaCAGXMmDH0OQWLxWo506byKbwV+ubAgQMgu7Pp/uCNKuiF85MBRb25o1+KmKkiIpPL01JTO4RCh5uJ2m6yKPkBqg7u2xfe+r6lO1DQ4uPjsRSkFvr1QctjBIHdQxdQ6L0mDQiKeu+ePSs++qjriZ7rQwBs02lu6JrOat0Mp3YChfxiAjhAIfU+Z9euXatWrfrDWZ73Sw2gCQ8PF8BvqPAhqD0VtItbR1BI/oCDICRNTTt27IiIiHieKV7goxFkuaXh4TbUeQJNe7saZAkFHbDT27Zt29q1a59z/Bf7fgVowpctg96BCbqAAiMCx9atW9etW/f8g7/wpzSxsBTQWFlhymehQNThL/xjy5Yt69evf6GRu/MF2MWLF5FvUNWuXbv2LJSamprIyMhNmza96LDd/C4uJiYGRSQ7O9tS2yLlDxw48NNPP92+fXs3xuwmFFACvxkyZIjlG5snT54gQWOLj2rcjS8Y/wcEuprmLkBr9QAAAABJRU5ErkJggg==" parent="tsqTvnH3BOsCTxECm0go-18" vertex="1">
          <mxGeometry x="300" y="162" width="46" height="76" as="geometry" />
        </mxCell>
        <mxCell id="tsqTvnH3BOsCTxECm0go-32" value="DPC / BISTLER&amp;nbsp; / PROSERIES - TEAM LIQUID" style="text;html=1;strokeColor=none;fillColor=none;align=left;verticalAlign=middle;whiteSpace=wrap;rounded=0;fontSize=16;fontStyle=1" parent="s1-uLHGH1qeWwjEYS3wL-1" vertex="1">
          <mxGeometry x="50" y="5700" width="1124" height="30" as="geometry" />
        </mxCell>
        <mxCell id="tsqTvnH3BOsCTxECm0go-33" value="" style="group" parent="s1-uLHGH1qeWwjEYS3wL-1" vertex="1" connectable="0">
          <mxGeometry x="50" y="6190" width="1124" height="400" as="geometry" />
        </mxCell>
        <mxCell id="tsqTvnH3BOsCTxECm0go-34" value="" style="rounded=0;whiteSpace=wrap;html=1;" parent="tsqTvnH3BOsCTxECm0go-33" vertex="1">
          <mxGeometry width="1124" height="80" as="geometry" />
        </mxCell>
        <mxCell id="tsqTvnH3BOsCTxECm0go-35" value="" style="rounded=0;whiteSpace=wrap;html=1;" parent="tsqTvnH3BOsCTxECm0go-33" vertex="1">
          <mxGeometry y="80" width="1124" height="80" as="geometry" />
        </mxCell>
        <mxCell id="tsqTvnH3BOsCTxECm0go-36" value="" style="rounded=0;whiteSpace=wrap;html=1;" parent="tsqTvnH3BOsCTxECm0go-33" vertex="1">
          <mxGeometry y="160" width="1124" height="80" as="geometry" />
        </mxCell>
        <mxCell id="tsqTvnH3BOsCTxECm0go-37" value="" style="rounded=0;whiteSpace=wrap;html=1;" parent="tsqTvnH3BOsCTxECm0go-33" vertex="1">
          <mxGeometry y="240" width="1124" height="80" as="geometry" />
        </mxCell>
        <mxCell id="tsqTvnH3BOsCTxECm0go-38" value="" style="rounded=0;whiteSpace=wrap;html=1;" parent="tsqTvnH3BOsCTxECm0go-33" vertex="1">
          <mxGeometry y="320" width="1124" height="80" as="geometry" />
        </mxCell>
        <mxCell id="F5bdkneFExj_D_7eus9F-4" style="edgeStyle=none;rounded=0;orthogonalLoop=1;jettySize=auto;html=1;entryX=0.25;entryY=1;entryDx=0;entryDy=0;" parent="tsqTvnH3BOsCTxECm0go-33" source="tsqTvnH3BOsCTxECm0go-54" target="F5bdkneFExj_D_7eus9F-1" edge="1">
          <mxGeometry relative="1" as="geometry" />
        </mxCell>
        <mxCell id="xcof9C4UwFPt_9v_PzUL-1" style="edgeStyle=none;rounded=0;orthogonalLoop=1;jettySize=auto;html=1;entryX=1;entryY=0.5;entryDx=0;entryDy=0;" parent="tsqTvnH3BOsCTxECm0go-33" source="tsqTvnH3BOsCTxECm0go-54" target="xcof9C4UwFPt_9v_PzUL-0" edge="1">
          <mxGeometry relative="1" as="geometry" />
        </mxCell>
        <mxCell id="eHTsa13YEd-6tjRE6p7o-4" style="edgeStyle=none;rounded=0;orthogonalLoop=1;jettySize=auto;html=1;" parent="tsqTvnH3BOsCTxECm0go-33" source="tsqTvnH3BOsCTxECm0go-54" target="tsqTvnH3BOsCTxECm0go-60" edge="1">
          <mxGeometry relative="1" as="geometry" />
        </mxCell>
        <mxCell id="eHTsa13YEd-6tjRE6p7o-5" style="edgeStyle=none;rounded=0;orthogonalLoop=1;jettySize=auto;html=1;entryX=1;entryY=0.5;entryDx=0;entryDy=0;" parent="tsqTvnH3BOsCTxECm0go-33" source="tsqTvnH3BOsCTxECm0go-54" target="2n8HFp7BSJGpS6D9MnFr-0" edge="1">
          <mxGeometry relative="1" as="geometry" />
        </mxCell>
        <mxCell id="tsqTvnH3BOsCTxECm0go-54" value="" style="shape=image;verticalLabelPosition=bottom;verticalAlign=top;imageAspect=0;aspect=fixed;image=data:image/png,iVBORw0KGgoAAAANSUhEUgAAAEwAAAAUCAIAAACoKEzmAAAHTklEQVR42sWXeVBPbxTG+5ooIYqyTdJuKfuaPQmVpTHSgrGGGPtW1DCk1DB2stUUoVUlbZMwYexkF8OYJjP2fS8+OjN3mtvXj8mvcf9ozvft3vc9zznPec55Nd+/f9f5F8+zZ88ePXrUoUOHGjVqVPdZmtLS0j85hlhoNJoqHPCrDz99+hQYGOjv729tbV2tCMvKyjTjxo378OGDsoQ9Z86coqKi7OxsPT09Vr58+WJvb79mzZp79+7NnTuXRZzmtcmTJ48aNer+/fuzZ8/W19d///790qVL+/fvDyo/Pz8SRfjat2+/atUqZfOXL1+GhISkp6fXqlVryJAheXl5zs7O4eHhBQUFvFavXj0lKIMHD546derjx49nzJjBYt26dfft2xcQEHDz5s2aNWuK6/Xr1+fojh075uTkrF+/nnUXFxcbG5tNmzYZGBgoh9auXVtDGvmgInQ+uHDhQlxcnLLSunVrdk9NTR05cqSyOGnSpD179pw7d6579+6ysnDhwoiICJAYGxvLSrdu3c6ePat88uLFCy8vr9zcXPnJ0YaGhux84sQJb29vVQZwY8yYMc2bN8fW1dX9+vVrp06dLl++rHrt9evX8fHxRATb09OzZ8+e8+bNU72jIaLUBicJ6DZt2qxcufLQoUOxsbGswKWGDRtSOTt27Ni1axcpUr708PBITk6+ePFily5dZIVAkv9Lly517txZVvr27QsA5ZP9+/ePHTtW5cHu3bubNGni7u6ODSRbW9v8/HwJ0OHDh5s1a4ZNkt+8eePo6HjmzBk56MqVK0+ePMFOS0t79+6dj48PNpHCWLFiBXA+fvzICnDMzMw0/OBLJycnlmAXH2PAQwBg7N27d+LEieLN4sWLSRRcIgNQsWvXrqSxIiRLS0vYe+DAATmyMkje5H0M4gJZZJGjqYLhw4djw9J169ZRHdjkDWJLJlUgT548GRkZSciwExISvn37JkQYMWIEccEgK1evXsWAyX369NFQA5mZma6uriyx+7Vr1yqC3L59+/Tp08UbXAcAVKQYHjx4QJIpXfiDN/IClfb58+cFCxbANK0gKRgK28jIiNhBBFmMiYlp0KCBgAQwJSrUICJkSStI+BIVFXXw4EHsxMREmCwg2YSawnBwcLh+/brkediwYT9BHj161M3NTSvIbdu2Senz9OvXjxCSfShEpQH11atXZJ7SV2DA/GnTphE1rSDbtWsn+x8/ftzExGTKlCk4PXTo0PHjx4uXfw6SMFFTvwXJTxZ/A5I6xBVxsW3btnAdJtjZ2XEAakbRk0xIrsBISUmhMdy6dUsrSGi5ceNGjEaNGgkAc3NzBBah/pcgqUPsxo0b442pqenTp0/JJwnZvHmz5A2c7ChSiUrT9ygSXtMKkvfZR2zE5vz58/B/0aJFODp69GgBSU0KNf4DJERA2EUak5KSqBFRgSqClGf+/PmcTTNkO94EJ+BZp7gRdzIsOky9weSSkpIWLVrQLRA9FUie6OhoRclgBNJFF6Fd+fr6sjJw4ECIwF9soB45ckQrSBommiQwOPT06dMQ/m9BcjByQi/Bhlp0HQl8RkYGikoXFWFEMJ8/fy4JQZBomJVB8mzYsEFpZVZWVngJ8eif/NQrf8CDDSSy1LRp08oglScsLGzJkiU0IemTVQQZGhoKqjp16lB7VCMrDBmAFDVG4nr16kVnw8ZL1AjVxQYDEs9UpBUkj5I6KWOojvqr3oGNlKtWkCg8EcRzcRg3mEyqDhJfZQCAOWgxBoCZGZjasIOCgiZMmEA2sNEn9ObUqVM65Y0HjYHbKpAPHz5EeGF47969ERioyyLDIK9J1IgX86NOeROHIERWIqgCSa2SPf5iHzt2jAKRGaOKIJUWsnPnTnqDKtjED5wWFhbYM2fOfPv2LU0POysriw0ZGFQgFVrCDlBxCjbCA71pJNjwgjlWef/u3bvUbWWQDIaoK6KFzUzHQX+lrgpIqE/sxT9QLV++XOpwy5YttHjsWbNmQa1ly5aRalyhr7CzCiR7CjAignoxaqpA9ujRo2LV/Qrk/9xCyAzXFAz4IGMUeshAx3DD1qg8lwMRHvLM/AmlkSKAMTNUbiEKSMgMSBl6/j1IXGGRtCB0bM0KL9AzOJW7VcuWLTlDejcZxt1WrVpRb1SLXERUIFkXgeFgQrN27VrhCBe0agepiAo73r59W6d80pWylgcY8F6uOSg+SsNQhvagQARowIABkmpuKlz8yPzWrVvpftIGRIrkuXHjhgzfFR9Kiw4sWYUayuDOc+fOHaKmU95auGTDIPkvhzIMEHepSW68IjzUOV0Ng6/4VqSb6+FPkFxeg4ODmVcYZWhi7MhthfldudEjcfSD4uJiJmmqlNGHizUe85PODiQZEhBYChjSkkBKFB3idkcrg9uyD5usXr2aUVHEmastYWbM4L4mogoMLjpyWZeg0LH4impnHiTzvKlTPgzQrnBbiMAthE2wBw0ahOckFvcKCwvpTPxk8QeFq6f4z9oNGAAAAABJRU5ErkJggg==" parent="tsqTvnH3BOsCTxECm0go-33" vertex="1">
          <mxGeometry x="526" y="190" width="76" height="20" as="geometry" />
        </mxCell>
        <mxCell id="tsqTvnH3BOsCTxECm0go-60" value="" style="shape=image;verticalLabelPosition=bottom;verticalAlign=top;imageAspect=0;aspect=fixed;image=data:image/png,iVBORw0KGgoAAAANSUhEUgAAAEwAAABMCAIAAABI9cZ8AAAVJElEQVR42uWbB3wU1fbHz53Zmt1NAQKBYACFgCKREqqi0lTkUQQLUhQRREVAKQqCyKOICGIDfSCPIgLKE1FUBEJXQJDeBSG0BNOzm93pc+//3F2EbFASIEHf/93PfjYzs1Pud+6Zc37n3AlhjMH/90b+VyFxA8E/tPBuxZwGT0JIoT1Z+CF4EUIInlC4/DKl3hijhBS+0B9B6gyeOgHZOhUZwZ4IJvJSwAPx2ySKRh+uLJwtoLszmZUxWYJJza3JlYUR3yvHMqjNwC3stQ6OBevl7Gwq4qoPRvWOaJpkw6uPfD3/3AnDYjJDoiPHx8ydkufLoKLJgOlENCtUgSb3uzv1rhiClwL6s103SgGFCNgjgxLdaqN1ksr17N8osU7cxd5uWn980qiVdrsVl2VJnTzzocZNqxc/klk61N4PMqUxQMqLkCpRKyPMpIJO8FqaBjOThLF7DL/MQIdIBod62Qo00nCmxDRKFFbBBlM6O/p+6HeaQDQWyDGGPuwa8ZQ79bT+QNcsq07BzxLihBGjowd1zHQCtTC0GQ0/GigSKI2SnXM3NYyIsKxefrZ31zURwCioBqgU8EhFBskCdMm3fR7oUJffCFlLrv7mmcx8O+BpwAdyyupBre5LLB7yoAT1D3JzHVeFLMmETJVa8DYaVNeIqdG6LuhdWRiz1/DgMCrQNUGY3do2e5c+KkWNxnvpp08lW+2MzVmjeggQlak+s0Udy4IJMTPm+t//wBdpZXIWHTjYk3Pa/PJjnxsYkUAFVeQMSKLlQqD705UnzqnXv8PmdStPWYHqIFtsZkDzi2CaoAUg0CS52pqfB2EXB/RYvGjJzihwBq2f+UFdvXlg85Y3Fw95TIHXzkGSkybayBO/QiShhk5uskILN0gqbVNBWHqabs807QbzS7D8Puu9VcUHlsgHz5l2E+SAuaCHc8IyJT2Dr4LKWMCMcwvr55Tr+GT2qWO6TWdmAf14fuzo/tkFaYagULTjJg/aflqZLysyAV0BJbaKsGRvs3YJ3ymKgmPoiWHrTvRYOn//mKGr7EBxMBs3qbZ6+wtff7G35yML3OCgwCwgIIYC6qY9LyXVr1oMJHcOvzuezkfIei9EAPXKsPQ2oVMlvsM5idVfYyAA1WgFkRx41J6ab965QOFbFFrdRV5tY3t6TsDNiIiPksKIYmIv3nghcthreRaD0gJ2e01Lnz7uYb2zPSJoOUbLjhHTV1RO+TJvWLfjDtA1UGPjhV6vxI8bvMsJZgCkbn1unj6vzejBKbM+2GIHlgPeKW92fG7oPXWi/+mTNOxsUoPKx/dmmYypoG87Mrx2nUrFj2SondfoHfsIPhCMUheDg00EjwXR2VtH6YTDZhRAIECfrilMa26bukOf8qMWSUAqoENaWPPy6GdbtQiKtkoFlQkaFXWoWZEcPWjYKJUy6auvRB3aoab8x+8E4s8xpi+r1Kar+9BOqXvjA04w0HRr1rM7y9GfN6VbwMQHNTbeimc5dTZLBMMHBTWqRO5LG9Wr8ydfrzjgAEtsBdeQsfe8PPibCLDpYGw/NuKWWrElhfzwN/rSKRItQEClj1aAubcKwfFld280juSBnVJ0AmvbW+qXF1ssks/kUKsBumR++ljE8M+kfB/HK2+HupXEzTtUB95kiVl1YIopKDBrZvkX+2apOaaeT6NdZG1GgsUijO9/Ztmc8w4+dPI9D0XvXpfh8wUgOLDob0zumdADa41bxf17WfdVKw4/3XuRG5wKaHMW9cjNloYO+dIDDrS+XedGVomPLinkPYfo3gBxMCjQ6Ld1hdblcDchXWbJGwymAzGow4TtHW2bz5oDUjQPOlqZ3lFBGNDI8synMo6z5qft6lo7NrC+MNUbLRDQmCgzzW82xY3tna8+l1Mt3tIo2db+sYi6DRwL3sxe8HaGDVQd1Igo2r5v+QXvHLOCgasxcUL2bz6k9YJv0IimY99qez7d2yhhim6aNrDgI5J8V8KZEzm/nS8QQLBYyO60URUrekoE+YsMjQ9RO+OhsQKBg8nMKvDweqSAtdhoOCkGT4bPJN4xn8TQGjGS+Xzm4oed/9mlrtnHd/DlmbP7u2+tQtoNyfegC9UAIf055oTRkRtXKj+lyOU9xG3hTij/DEZN1QEGWqYflGlLEj//6NTOzRl4YxBy5AdJkwZtBe5UpXYdqi/8tvuDd87cujXVBdwJqGDEV4osX9F19EAm+nK7w7IvfWR0jKtEkJPSYHwajRJIQId+sfBeTRYSK36d3b7WCKjo0RhaEDN4oMY44fXTxxLFqe3sjab5mUIxPKLv3fZGlADkrgE5egGqAiAStRjso2nlBvbLhgK0Z0okBhIVNR4nMUJiFHl9YULT1lGt4zfgsgpytVqOT39od1eVhQZV8RbUSHR3fiLxn2NWokc1gHpcNrTzkVPuW75w77Ytp0UQIiNte9JedbvtxUNi/2vth5MKD4+GAVuTWPOoiyqJzkuFF/egJmA2kxEDDHzYKH2ytmVaW9u/tmlDliq4r+qnDyVZ5g9Es2H3Pp977BfDYTDVSx+82960nnXsK3lRIhHw+ZTQVBg6zGgPa97F9sw/46rWsL/50i9vv3vYBdQH/pEj6708uWEd+6zzWr4AOoYTDXiYwR67wLL9l1dqJaI8gsRy407m5eJIVrK5jnvHOR224iElA77yArdUAnYGncuDKIRpziP5bNlZdjrfZCbU9ggdq5M65fkOW07SM3mGDW1Th2a3iDUqBjfu189nmCKAqdCGSbbcTHr2lCECw0AlEuZ2i5WqCDclWp1OMXT2TSuzsn9TBAvVdb1t56rlKjhWfX3SlycRgXFVyShXX6YRnxBzTxuubFAvfb10vyxpuOz22Dp2q3+5YV5zFlL4qDLR2aXY/mdTrf937Qr5JBRKKUtukNdguizYjaJJYNlCntfg8ROAGk4w0dGSUD6JfeCrJhEws8MtQddKTJ5tEYPxjxbcwr+ZoGMUIUzHEIoBBlMYHmb4T/iNGxUMP3yVybRCRXHq0rhQvj15SOreH/KsdiOYeWFSoqPQATBMvhzaovHEEqPuH92nQIHa/8XmT/ZrXtKRvPcIbPFzaU4oQUJiEjCxrwSFDnAkvsC7rvMoH/zmH1G7QML1jRpEUri+wyRTCC3LTFCCqxLlC5Ipq+brM2IfGciF2JBOR1d9k27FK13QcWrwW0E2DB6Mf/PlcJ8Hv5scyjBzy66hdzSsWjJIgH0BaHkYbDyjRadNBTOYNHM2xowLC0HIIHkQEi5CapcgsZ+iilkm/wl7LiqAbJiaiJIp4HbJZAXMGcGWn60WGW0Z3//EZ3POOoOQBg+GF74pj5B4mB6CJH9UN8kHafCgeye/37mk5hpqL6TCnAyKsrNMIXGLX9W69veMmV3lgzFnPpx0IoLXWq4OEjOsmKiIPWkj3S7H1UHmaNBgP/WbxMa4uZYdJFMNGbQVqTU3r8x9feBR91VCMmD5IM/48JG+z7W4Csdzsb2fTkfwbKtsR5KoPL1qdn9Ex/6RLz580Mll5VVASqDVvS3ux0PD4M/blSDRrTfcR1Il6mRlC2mCirly68ddKUsy4ILLKREk+psAqN+tf7Zlq1rXCIknWZVLHjpMo4D72MshmUYlCWgIT71AiAshj0o0E90priIw5wx6WkyQbCa1Ii1u/B2SBrMq9KUyoAYN1eYUPVjXwvuEiaWV27B2OWQBKF26JH2y/Em4YitW8dBuB8maXIZpQRFIJMQs4/k6IoZNyiMnf3SJyVU0CS7zWqnJ98SfMKFxWkDymnt26ge2KWqeadXhcsg3l98SEyv6fKqqGPhRNJVSuvyTI1s2nrSAWQQSYwaqhx2pIxKql79eyF8CpMUuJjJqMcMg0axUBZa0trVJICUROht+VN591zdssCf1F/2tUbnRVgHkS5A4gIJNX5PdwOOxFjmwWfy8tPRcEYwikHkgjRzZZuzkfxR76ZJoV/bycTrzLItE9RNurppCE+zkp0cdwp8LMhyKL9aocxYFDu3V7k22LpoXSxn7R9P0zJOYZKIkuARpd+krzzd0eyyFD39t0ObZM3ZF8HmIsGcSw0bFWPees6/a7Zbi+l8iSFpgkPrbmE9lNhoGiYPp88OkZuLABtbLBpPpBvt8nTpnuXz6pO6g6HLoV/PL16rJ90z5VhraPTNSxMf1AiQ6nqhY+m1aA7v10g07fjS37a1LLVweqIUhscdekOcu7PVYr0bFEpYQknPOPccGHoIY4A9YYe9qqsRJ2Y7e9hjHxc4xWWULN2tzV8ppaaYbeJ1OyjWf6OQcOyzq4hn7d/pt92rJRUgIUgElrhr55lT9wjerV9tVG9elOoGFe1dAj5rc6Ka1O4eUhLDkkLzrd241j3rBzsIgQSf+AvrM7eLk1rzo4Fdh/o/a3PXK+QwT3ZLV4CUcw089BFIWVYh0X3x62dGDWs/GaU6TiDqHlEGpfpvli0NJF6+3fuW53h1Wu3jYDAshGDYkUNZtG9S4WY1Sh6Sbc6DDdtPNmGiGxUnKAxss62r/8YQxd6ualc1cjIeKUJzEp86fbUweEtn9HxFFzjjxhewvZ3o9fEqHF7Jub25bsPX2C3cUoM3NK06l5lqD6UhhSAwbPR5vNGtxjxISXhUkv3TPXea3adQd9EAXRlIjqoJbmBZgmsQiKLMYPC+5KAZ0H6sbLy5/v9zlZ/P5aJfqZ9Q8QwA9AEqTto5/pdwW+m32tKPjR/zs5rRhYkAHxWolu86OrFQpsowg6SmJNN9g4CNiNTkkVWlAgs4JQqyVLd5rOA1egC2seJhiynn0P29EJ9e1/mGYWfJ+/tQhmRFByHaPet76nNemcrPV1gmrFFnCZLIIZB74xo9/YNhr7UpOeLWQ/PaPP2xOPYIaCHAARQMmNLT0qC00nasU+KktlDT/DokeUc4zOjWxvVfI31x+wkdqnT7zq18BtVu/mLEf81m3UX33fD7v1wge/cNknQSB+HjnztOviOLV1RCuusYjm6zRaj3Vyxp7yEctLHXLCS9vVOftMTwURD1Mu5oStWp07Tvl4spdSS1s/T7w/IOpJij9R8UOfqPaoT3ebg03YdgAru8uQeKDkQfehV883rlb0tX095og0WgXpcKuHPp2I5EQOJpLW3+mWk1OWFigoxD355mjukU838VZ7BkHtz/93aqM16ZU7fNylR7Nt+/+KdMKZhGB7ofAnfdU+Wrj01dLeG2QECxwhQaH9fxeW3PS9OA5wrMQ00/jPWTD5GihBJZ1+rjaLnH/e4trRERBvw47XXxGOSwL0UBWQVq3r3/dpLjiT1dKkKHGfkinD32juYAPYxikwmSfuWCgq9Ud9hKea9Jzp2s1cHz69qnUYz4LTzjCINFQn+hXb/rHxcvUUobEoNx2hXYog0YwKJJP6n7a+Cbhg75uk2EmeqGyiVcKlaB44Q94+Y9v5NbARCvk5xrThqZu+T7LEvSohSFR1lodxva0Z2LKRVxbV68dMkOiycs0pgXDSTikIdFby5NGCeKClapNY3ZKQyklJpmiSonMBDlYxZP5KsO0EXWTRVHQKsPTZSP4xgeGjQlv3/3s0MbX1s/rgsQheHuPOXG7HiWAoBU1V8ln/vs5d3knGfSWN+2cGYn7qFRUwkuScjAL4bKOJ5MsHC/0rUCgek3XxuO9r5nwOiF5obfZ50p6Pp91Lup4ArRyBPlhahR6xtHvFXy5QnYwajeAD+ll5Y9g1s8PK1LC0kHzQsGi7x5s82BJZWrpQ+JgrvjV7LNKi2JBKRceQnx55thHIwZ05CFkw1b59cm+zDOGRwA+61wyyAKQ7r6/0sJVHa6H8PoheeuyTPnpjInup0ghC8VABIUN70ZFe/jcoz9Ax030frcsgKmTTQ8O6RUhDZDR5aQc73xzzZi/HJIdzKL3LZJtJrGGKx6UdYEc46n7HOP6h95U4Bl9yhp50ui8nFO6B6WEciVINNR+LyaOfafpdRKWzkhi74evURfsNqIZkHCBTlEEBmDNe9EJ8eJFZefz0vHDc1YtCfB82ghBooLTQrW54IKqguyKhE3pndwu2/X1rdQgIVdmzWcFMNWyGlCk7qrk0faNbTNGF363hg/p6uX+d4fl+tIMQTOVC1M6oRkeDClqAKTJ/2rYc0Cta+5S6UNiv2dt10d/r8YQnm0VhsRgqHjp0mkxDS/Ltsb0zfzhi8BTY6NadXGJIqiayfNnEnp7lt1S21NaE/WlONPMWs6UzmTwN+mKVNCVfNrgZsvnM8Ly5gM71T4t0+0ao5Qm3Sn0m1ChSauryIP/Msj1x43H50tRQApXBkLTBOiBPhwXc3/rS7NOvdumH9miRDDCTRoUzCfrJFn7jYu776HYUn/TopTfGeg1X9p4WOeSPRwSk5KbYsiqpRcAvlpSMKZfdpQVCnlXFTkxMNZv4Fi8ranNLv5tIdnxTNpuuh9jSdBtXoJEpRrIMscO8/Tu7g4EzI7NzxecN+36peJyyLvmgb//8KojpiZef1fKDpK3cV9LH6dokWJwSqfQrJbhNyNFsmV9pakTvQve80ZZSOFpAiP4enZ0Jfb9mSY2W2kOY1lAsgKV3T2+wO/lJZ+wqTvZ1PJpu5aOXZv+YMIHzdUL0pRPbunY+1rS4hsMyTk//VF7ZX4gCjWNFjY/Kchg+CimZlY+jRcG6Qe5brLt05/rlTphGUFyzgcm+I6fwnBCSzIJa/Dor3yyIzGpsef6r33jILceMbpP4f8sYNGKh/SB0qGXe+LC6mVBWHaQvD37QcHqLSrmVleGpChXrdpXZxMrVLKU0buIZQfJzmI4GZ4vatxi/wySz5So+gsTY54eHXv9l7zxkLxNXSLN+MwfJZA/gzS9LC6BLE+tRkpSuvx7Qio6a/1sbn5W8B9hLocMmJLPnL48rlUXd9n1ocwhsX21SX5xki/awidbi0Aq2Uby3fZZa+PLtAM3AhLbwy/lHjqgOxgtDAkS03zm4h3xtevZyvrd5xsAyXYf0R97PtcVDCcXIQNZ9NG+rjHvl6G/uZGQvA17w/vNCtkj8sFESOYzXVZYsadKZFTx7278t0CyrBza/rEsw09tejC9/M14dXJMzwFllSX/JZC8fTTPP/2d/GiLoHuNGvGW5Zur3Jjr3lBIw2APdM7KOq3rXjp7YYW77i1+3vK/DxJbylr5qSeyO7e3z/x3xRt20RsNiW34SznPPhdZM7GsZOrfATL0X/hl9c/3fxPIv6b9T0D+H/WAR1ml925BAAAAAElFTkSuQmCC" parent="tsqTvnH3BOsCTxECm0go-33" vertex="1">
          <mxGeometry x="264" y="160" width="76" height="76" as="geometry" />
        </mxCell>
        <mxCell id="F5bdkneFExj_D_7eus9F-1" value="" style="shape=image;verticalLabelPosition=bottom;verticalAlign=top;imageAspect=0;aspect=fixed;image=data:image/png,iVBORw0KGgoAAAANSUhEUgAAAEwAAAAXCAIAAAAuvD5IAAAFm0lEQVR42tXYeWwUVRgA8HkzO3t2d3Znt2xRgZbDi0AAqRBBC4EYJOGIQkG0YLFQwB60thQwGiUhtFJoy1EURAGlKiXRogGjaAFFEkBuD44IhcYWmM5enZ3dOX2zu2gp7c5CVxveX5udeTvf733vfe/NAlmWEQSRJcn7ZW3gzEni+Rm6xwYiGhwAgNxvDVpkngueO+OprdEPGUZMfwmgKPwehJGSwF8ZO4K78DtqtRPpM8mc13FnT3jhfoGGQ+Ubr1JV5b66XZLPh/ftn1J/HNXi/yJd27c0Ly/QWKwwpZKfwSwWYkYGuSBf08PZ3fHHxvurka6u8Oz+XGJ8qNEEEyh4Pc63y8h5iyJIkfVfHpMq0S0Ax0P9ZFkSJcaPWW3Ei7PJ7FyNI7G7LZ02vqmJ3lTh2fVpiGcEGBbB8zxqtaYcOI6ZEoAkCPTGtTfLVmAWAmm7DhW9qGTVZrdmzLVl52gIW3eLbmsCdYOurnJ9tkP2elGTkr128Ys+r71wmSOvGAQu/HF12kSZ9QONpoNfClOZViyxhzUzm8xaBAemu3WI4Ha5Nm9wf/yB6HIpPCV7HVQPWRCAXte7dh+4UfpOS0UpZiORKOX0VlY1ST1tcxda52ZjekO38ESmlYa8bVtE6gYK5yHkRQ1bcNFKJlu2bKTWr5YoKpY+cGwU6kO9yXk51leyUA3+//FY1v3Re64PNwnNzUppUQ1VFCSG0Th72vOK4JrkxdZW1+Zq9ydbYxweSBX9jDY5hZyfS8yag+La/5QnBVj3jq301k1C41WFB5dVLJOuR5Itc741cwFqMCjVNVyF75jommhPVqi86PdrU/qRC/OJmbPRW2UtnjyOh/HA+Slca1BGPxYe04omOu2Z2dashbB8hGmRffKfJtAUvbHSVbNd9nkiWY1O5Xklq/0fduQWWabPitfhQZJEz87tdHUl13AZM6llDwYSmpywslgzXoV7HkZY215tjww3/noTvWGNZ1cNzHtkAahSWUb36EBHbrF56rSuUGE43toaakM5d+lCiIer8ZTsAYKwzZxDvlagIe133tMxMkJtvEZVrYanJJkNAJMRoGpUjhMDrGHQYHv+UvNzk+6ahyC+ut3wicHzv2IGk3IyUeWFckCkv0zmFOLOpM7ujIYMT2juyp9UVZl3zxeA54BRnSpxnBxkdUNSHYuXmMdPiFHo3VtHV61mz53GYJ2AlSwmntE8Jd2RX4Q/2Cv6MTsa8jbqpYvUund9e+sQjg9R0ahSWQ4GYWINw1MduUtM456NcrPvm6+p9eXB078AnQHVqvEkUWb8wKA3T5lO5hXpevWJ5S1CHdmWGrh4nq4s9e37ChFFYIiFGpA5Xj90uHNluX7wUHD7DwZOHLu+vCBw9jTQ64FWB1R4kuxnEFxrnvyCI79Ym9w39pekWJFtW+C3sy1ry1r374OPBnqDClUU4T7cZ89+wxNPtkOyp040TBqLqRU2hcf6EQwzT5hMFpToBzxyt++A94IMN/bUcWpNKXPoe4gEOn1nVKnVZ56a/sC6zR1ebSpc5KndiZktnfICLPyQMH6ivbBE//igewv13pHh5j92BFL9hw/CrQzodO2oMI1wy0v+7mc8ue+dYw8fzF1raBg3Eq7DdskM8QIwNtOYcY6CZYYhw7oSZFeREerhQ1RFmf/oTwDDlQV2a3WJXo8tI8u5am2Uvs1vLnFvex9LMIdLjsKDK1mUjE+nQZ5x+IiuhxcfZLgxPx6gKkvZo0fgHgCzikgiNCfXH9U4k6IsIaHl5uW0VJkLwlWnZE8QjKMgr8Q44ql4BRZPZIRav5+qWMWePCYHgo6iNxJL3lLtcnPNSqp0BXz3M44cTS5emjDqmfiGFH+k8ueJ28Uc/IGp/9aeV6ztN0C1Czxv0NUVprTxxtFpqIWI+x+FfwNp5AGyFqFqQwAAAABJRU5ErkJggg==" parent="tsqTvnH3BOsCTxECm0go-33" vertex="1">
          <mxGeometry x="710" y="100" width="76" height="23" as="geometry" />
        </mxCell>
        <mxCell id="xcof9C4UwFPt_9v_PzUL-0" value="" style="shape=image;verticalLabelPosition=bottom;verticalAlign=top;imageAspect=0;aspect=fixed;image=data:image/png,iVBORw0KGgoAAAANSUhEUgAAAFYAAABMCAIAAAB4edddAAAOJ0lEQVR42uWbCXRV1bnHf3dOKEnAB0IYgihDMIAIyAxlnmSQMTEhIQxqa21Ln5RVO9jV9/re0mVrXx9q7QPCdAkkYXhRxkAYyjwbYwgQVEZRqQxhSu7N0PPte5PcwD03hOSaAN9yuY65d+97vt/Z+//t/z5bQ3FxMY9aSMo3KczGmYbzI8MjhEBL1ABF3+BYTf4iCg/IHw08AgjcmefiXItjAc7tmIsI0P5C8S0MDz+C4nycW3DMp2AjhjzJ3MyVCySn8uU53voD5D2sCLSknDtxJOBMxXAVG9o/t78lbQfzF5O2FUc+vXqyexdce5gQuPIoPEr+YgpSKPpKMg+k6Cr/2MOCZXy0ntxrZV8fOID0LQ8HAtdULzyJw05+IkWfu545tzl4hEWJrErlm2+8tHvwEbgzP48zRR57UYY2ybVnjpPsLJYlk5jCl6d9dfDAInDL+2WZ5NpUL9iFCRE5OJtDUipLE8nM0m0dFMT16w8oAnfmt3BuUCK3GZNTRruFf55mzXoWJrJ3n27rgAAGD+LVGTz+OF373IHAULsRuDIvLsC5DcdCKeyG6/LMLVz/mg3pLFjK1h0UOHU76NeX6TGMGU79ZmjjJSeDNp0eCATuzJEFXH6CLOa4JM88AOdl0nezYDEb0rh5U7eDZzsRP4WJz9Oklernlvq3ieM5tOtSyxG4C1sWzqXkJ1F8Gqua6jfYfZCFdv5/Ld99p9u6RQtmxhE5jtZPS8KSeVFJn8iiqBYjcMv7afKXU7BMEFiUvOeTkcHSJJJXc+6cbuvwcG7f4sxZkhYxeao4IK0ucHdatRFBmW9ZIwO+6KAUtgD5++fHSVzJsiROnNRt3aAh40fLVO8+kPg4Fi9l2Tyi4xQCr+EdgbEmELgzv4ZznZL3beJbbDJ0L37Byo9YvJzDR3Rb163LyOHMjGVAb8z1ZaRo4yVqMkkp2OcRU6sRuEVO8y3p4lucmzDcktFu4ep51qYxfyn/2Ine7ZjNDBoomQ8fSN1QlXleyWivX8sRlMn7LvLml/mWAPIusXk785awaTMOh24HtgDe+xPjR/FYcyiQla+InGfUXgSevsWZTPFFV+aF19ixh0XLSF1Hbm7F3Wg6f/qUeuZ69b/WIXDL+wkcK8i3U3RKClsdKVGHlG9ZncrFryvRX7Mwzn4qXd758GsdgjLfsor8hWW+pYATWdhTxLd88YV+ns05f073o7OZ/kNgqjICt7z/E+fHsoYt2Hmnb1lBZqZua62wjRvFtGh69uV3v+ePbz9ACNyZ35BNWK2wFW7G4HD5lkunSd1AwjJfvsVkorCQieNIsStemrwXStvho9i0pZYjKPMt21VJX4ch19O3JCwlXd+3mMwM7MfPfsSJU8z+Na+9wtwP4UrJx1ZuXefpbpwpPyNqDQK3vO8jfwmOVfCtS94dl9m6kwQ7GzZz47pu6+7PiW8ZN5JGLYTX/Pd46af8eCYf/B9c9fheINmZtO9BkUe2NY3A9WFBFgV25Vu+dPuWm+zZz6Ll4lsuXdJtHdGOmCjxLU+2AaMa8Fph/wEffsCPZ3lDoEUIyXYip35vCMw6CMp8SxIFSz19y6efisIl+fQtYc15cTKxk4joKMPbXdJLf6euTwTa7wbzxhze+nONICjnWxZRtL/Mt2SzYjX2ZI4fp8I4e4zm7ZRXdXhzbL4RoMZLAMOeJy1dIQjjXKbqx48Iyt63rFcitxVzodu3fMmqj1mcyKHDFWdeGuey5L51F3MVIkDGzs3rhD/H+fM0acKFk6pkFPoJQeEZmeqOeRRskgfn8i0XxLckLGG7vm/xEWcyCXuiagiQeXcsk4hucvnOH5n9hmx1+gfB1QhBEKB8y3ekbZfCtnEL+Xne+9FKets2HMv2PwJEGlcs5cV4uUxLZcgI2T7yA4LLVqyOAweYO491G7iif0MdOxAbRVwUFy/RqYeA0GbPcW9bGtWGwCAU5vw77/wPgXXIOUTTFqqsVD+CYEevvuzd673hk08SPYkpk2gbIb1omnRwL936y+bsor/R6hmK7pqi94jg1Zm87xsBagvQypDn2bKV9hF8uhuDUVXWakYQ4hg8mPRt5b4f2pgJLzD1Rbp2Vj7vdklhs7L/ID0G0KWzaGTyknI1vFIIfvoK/+u5OtQLKzdyaddNpDEmErtdJelZHaodwYRxvPYSP+yBoV5J5kXlbsiFoHNnDu+XAjZnNu/85X4QNG1C9kGCQlTt9B11+OwoHXrK5V/eYtac8mOnSggsXhCcPU7z1pDrraTfgWCvmpkWho1y1/BKIdCiT092pqtv6hW80ghm+RKip8vltvX0HwKl6/FqR5B9mPDWd803PQS3BIE2ULXqdfZ8pRFo8erLvP83feKloUljEL98nT/9leBgjh8itGmJNFYZgYUQZzkEhwhvUxkExTJQszJkoBarKXPxJI1D7xWBFvPmMvMnFekiShotDB5J+nY6d+LwdrWOLKglCJBHtGKZu4Yv+pCpL+mvZO5CoMWOjfTrp9yE79Ck8Rptn+Orr5gWS0KCSjikliBQA3XOL93SmLGbjl3Up/eGoG8ftn2EyVDRdEBGXMYROvWSy/fe5Sc/l7FwTwiCOZdDWLs7EFirDwHuGu6SxtBQThwgqL43tfdA0Kgxk18gLpqu7dWo1jNCdyWTuJiYGXK5K43eQ/QRGJRVtckfDxzh/XksSfQrAvXpzVzCVQ0f+EPSN3hT+xIEkRNk7sgt3l16fYcy1K/P4t251H+Mb3OYOUteqJUhMODevHWQpbn7FJJWcvpMuT48EZgJKag2BKgarkljd7mc/TNZ24ooeH6nBMFrLzP37/ewNPIaShoHjZDzBcOGEFyPlBT1TnGG+85PnyBpDfYVfHbMewc9erB3l1aJ/IGActK4fBFRMR41nMp4BN9h4Xoubbty8aK8bisoYKWdEYNkUyPBLjepF7YABg/gF6/KGzry/YRA2Ztfvc7bSho/26+2j25XNwJkOpzKpFMf93GLVq1kAubplBWDif59mD6FUUOp10ytKbSbNz/tHwSUszfNm4s0BgaVSKNvBEalDhZ1A3k6nRvUPNcK5Nfs2M3Pf8Xnn/sC1bULU6OZMJrQlkqYpNtAzEOxzcDY0W8IKCeNwwazca367SIdBEaVdgDF19m5Txxks6b8+V21QVDav9Et787LbNslb6LXb/J13CY8nCmTiZ5IS9fmrTYMCw2Y+2OdjmU0xhDXdpk/ESDSeCyDCCWNb8zmv99WC2HPHeR5SsAD5f6OHmXxClau4cJX7tYJHzDtFaUjio52sXO/VLU1Po/bhIURNZHYybTvoMrhLZWLsRu2qVjHY2zs3igsHVL3jUAbXQf3lX9KXsPD3qyyMz5KBoILwS9ek6qWc5TEVSQmcfKUl9ZHd8n2zCd7pbAlr5YBpRcNH5d3c/HR9HxOKLu3rY3tME/B9iKmlndkXg0ItGGWnaF+ybfJ89j5MZo4fpDWz/L3v/KjWbLOr1OHXXt8tW7YkMaNyPxM9wtBwYwY6nHoJE/pnKEFtkjMsZjbu+/Bxw3eNwIt/vAb3vyPezB5HtLYsiVfZLFgofJFVQirjSEDRN6HDqBuI/XAReQaYh2HLR5Tzwoz90RgIqTw/hBokZrEmPHly75Oq1JpjJrE8CHEv3yfyWtuYloMo4fRwHXoRHvmxUGYRyiRG4jBojfg/YVAW2Zk7eOpNvdg8jx2fiKeJutYRd8vH88+Q2w0k0bTrJUqK/Iy2oJ5MNZpWEZi/EFlM682BFq0fkooWAL0NwhKI5gkO1Hxlbi/Nq2IjiRqPG3bqWV/nkve+xAQj2UMxob3nXl1ItBi/BhWpXg7CFX2O6qw1ZGLyEkkr6zgtpo2YdJ44iLlKK2UQ1fmho5S2CwTMYVVPfNqRqDFf77Jb39/lzS6HFuAVI1T2ar4JZOTQ5GOfGq274WRTI+ld3cMQYqptqA0PIktBms0pvBqzNwTgZGQoqoj0GLdSkaOLZFGo1rwGOU0ZUqqvJU88onuTQTW4flhIu+D+mBtUHKm0BiKeQK2aZg6u4/tVXfy1Y8gwCZtn2gvz/zKBdZukndzO3bpvpU0mRjQX0q6Zu+CQ0sLW4hMcpH3fvLaxG+Z+wWBFu0j+K83WbBE3ko68tGLHt2Jj5FDJ48/oVZW2oAvtmEeLr7FNARjwPeQub8Q+I4OEVLYJo+lRWv133mevmUUxnrfZ+ZVQnDgEN37V+I3Wj4hy6G4SYR3UOp421XYusgyTnxLkxrJ3BOBgZDie0Lgkve6ZOwX61JhNGrEhLFyWL5LZ/fpU9VnOLYpSt5b1mzmlUTgOk1p5OxJVqYyfwnZ+sdtQuoxZoRk3q+XDG155i7fYpmELRZTRzfNWhM+EbgKm1lOU36s5H33Xt2OtJXy0EEi75pvCfg3Vc9l9d6gxLf08mthq2YEJ4/S+hm53ZvfymnC+XbSt8rmpPf2BjlooGU+ahj1mpQcltfGvXm0ErkB9+Fbah7BJ3u5dpX3F7B+Izdu6Lbs2kUc2/hRNHZtyMmZQqvkbJ2JZURVfMv3j0C2NDwRaKvUK5d1G4SHy3GbyBd4qp3K8LbK39hbyfvYavEtNY/Aa7QII9JzQ871/sfoF99SuxA0bMC4MbKS69m1ZEPO7VuisU7B1PbBzbwCBKX/F1j/3lhKN+SMjTBPxhaHqWutlff7R9CnL7v3YLHKhtyMOIYPoE4j9cDdvmWs2pxRvuWhC4UgkDd+I+98osbyWFjpaxwbxqEEvuT2LQ9vCALNzBoC1RLQtTlj6a+e+Zia8i01gMC9z2PSfMt0r+9bHu4wFF/rLSsZaxSmpx6pzD0QFF7BEKIyf/SyV/EvSlZazxgUb20AAAAASUVORK5CYII=" parent="tsqTvnH3BOsCTxECm0go-33" vertex="1">
          <mxGeometry x="321" y="244" width="86" height="76" as="geometry" />
        </mxCell>
        <mxCell id="2n8HFp7BSJGpS6D9MnFr-0" value="" style="shape=image;verticalLabelPosition=bottom;verticalAlign=top;imageAspect=0;aspect=fixed;image=data:image/png,iVBORw0KGgoAAAANSUhEUgAAADYAAABMCAIAAACpntMtAAAOOUlEQVR42u2aeVxU5RrH33NmHwZnYIbtAjMBCuKCXgFFAjVD0cqtTDOt6zIgiIoEaqUOm6FZertCIoum5ppr1i3LXFPUNDFMARcQZlhHGWD25Zxz3zMDxJYMikX33veP+YjnnOf9vu/zPs/ze895EYIgQO9uyP8Rexni5Rt3ohOzXx7jvzZuVq9DVDSoE9bt2L7ne4BjwGjyHOi5JSUyPHRob0HM3PP9yg27lDV1gMNCURQaJPRGYDJNnTw6I1ns6mT/ZyJeK7gXuSYr/9KvwIaJUCkIgrRcwnECqDU0Lic1btbKhdP+BMR6pXp52q7cvd8CjEBYjBY4aAtpdRtuwoBa6+3XNzMlcuzIwX8c4rYDP8Sv29lQ/QjYsFAKaiEjMAQYUAB/ISMdQ6iEBbvJ7xg2Y/oL6RKxI5/7bBGv3bwfLcm6lvcrYDNaPItDCzpKH3v97ODyoR6K2nrmwctuBXf4gGlEENQCiuM4nE6mPTctflbc/MnPBLFRpVm+flf25ycAlQI7hHwAQQi44GDfNFbQgMqvl53nO+EAA4ACgAGkHu4nORgI9DqyD8iJIKTTURRodAP8+matXRgS4NuTiDsOnY5bt6NeKgc8zraRQwrrGj4uvA9XIeByJjjx5yiMY8fWuIi/I5QqBDc/wAF4YeipD/p/zed83qhU1NYBEzbc3Vni4ZpQKisqqYCsb818cdOqeQK7Pk+LeOP2g6g1W69cKAAwJmgUwmiKDx7iQBDv3ysPF9gta9D4FJQa1RodwuXN4rqtOg50akAHyqvjH0SzGISKYdDW9ffY7+m8vb7ek8FIGug16dRPmMFImlbr2ALehpVzYuZMfEJE2O+KDZ9v+exrgOGWmCUXPoZvDRt+t1E9qbBcVCTVG5QGQCXIAIHTx+27F+MM/p7AXO7MCNPeuUshL2FUgDEBzejmuGOQR4CP++If86sbVE3pE7peoxs6YlB26sLAIX27h7jzyJn4tJ2PpDWAw7bErKXB9cSwYazw85639ztE6G6sqDXBiOBzUReurkjhFOfoOH+7rjiwdPFQoK6kCZ0MPxdTqBSmg72xqup+WFCMUX+/rLp1BiVBdXqIMX92+Mb35vK4Nl0jFhSXRa3JunQu3+xZaptsTBBw4U8Y7BWnNvrLGy6H+Z+Q1kwROve9KxX4ico/OcEYMVi0sezRUd+H/8rn+rvz/T0uSOtkfNsije7d6oZH8rrN7oJ99yvkdY2thw0s8a7S9nHmb3rvHwtmhv0uokqjfX/jvvRtx4ERQ9iM1nDNU2gKHeD5RX/Pz+6Vf2Uw5MM5BiB9iE+pGqN7SBNnnQM0G0CjAz0DMB6cOjt498lh47k2W6VV58sq/Tzc/Vj0FQL+eR5r8bGzCJXazn6z3/UjQoZkpkT8faBne8S6etWgicuqSmSAY9NuiL8NFKYYCspkM3RKLZmtYQaBj1IQYMSBCYwfIVv+yq1+zhqVnrr3oijtWH+goQEWhRQWKAUuaDI9sRgwI2FaPXwWoaAdZ4EEhVdN+N6cd2dNCm2DWFZR+1zIQvhk53wYbmtnS+ewTBjeoGiETkHptBaj5l/IynZzcWxUyhvr9YBlC+gmoNfCsEVotKbsjeECBy6XQ642AhDlMjmGYR0pyTsVyrVJEatiXmuDKK2Si0ZFETjoiGgOZGzXlDEjztzQGI21fp5xisbbxWVk9obPWwqMwRgW4Pu1GltgxxKwWW8/qNaqtfXPuaxqqP+lsOlOwmhMnxDyZp2SPfelis2Hxhi0sgdVqPlSe8QG1fqUhSsXTu0OIgD7AgYGfXuVlzpfuTzz0vTQmXkFAE4khsGcTM4hBQ0d1v/fV+5EjvD2RdH5Ry/ablqsWpObFxYw42oBXNzkIkGRD4OHvn23wubd2RXvZ4d5OFaUVvYk4h7/AaMKy91+2VEinF7g3/dLhz7TYZDyOCvLKgY52EVDucPnDfvmcmywrzdAIn4qEhxJK5+YQEuL/FZWTaXTqULHhh8LRvV15+88wV/9dsXq3HFCfk8jBgwMvf1AT6NTOExe1vK6F2Pt33hRc+R86eQQ3vVie6WGOrSfbs/JFdOe9yZA5NVidOooxa4TjrGvEdfusof350ROLvWaKch4p+qjPc5r5j4bRP+Bo+5IDc72DA9Xp5Vv3hK95LBojlFeLwjyrUrb7bRPYjtuuMxxUsJoP28EiC/cFlYeVZ6+LpvyLnOQB3viSH7MtELhq67p7zzcuN9Z8o+KVbnjRIIeRjwcOGhsYTnvbHqJw8vuu9bIN+yl93enKnVlCyfhWV86XSum+LjTrxQtmxbsgyDivafxUUOxojJFoA8mcrE/eAbtJ0R0OudUcfWKTJdksfT9zBB3vrSkBxExLGLscF82kz5mqB6KRZRCFTmyz+Y3MOkpt0tdHbgRTgIVi8Fl0Hbflzn3YY9hMo16o4aC7Kl+CBOMxNWRXa+uCvUj2AxTkZT2nJP6rmz91VsNdcrOc1x3EZsooTyBUQl/YSDDR+C/WQwyG8OkQ1ogSG0G8w+Zz1tVVMufML1TqFDSkgmcak7jNKgxqJ32ZRViUyHpurXdqMC0j7YSBxjeeojmrpAu7ME9BUqWnC4Q4X0sFgO6lAS1usFyptJo9AYMdkGYmx2PgxBkFbHSAkmGg/pGJVRORKP6sYgabZpE/F70q1pSI1nbWEzG60s2Hjp2DmUxcAzrY8su+j6db2cLS5yVFmhUSqm01jc8FoOkSs1jEVWajWnR7yzo3g4ItlnL/rn/0GmUzYSakmPLqrq0jcNmdstCpVzhFiy2MHSB+NHaqISIKd1FfCN204HDZ5oQOSzZxRyuLbtbFqTVj0QhkSTOfyHipfziBqWGgrZJECYMc3MRDPYWWoMIH8/7uZACZWwrC7BXuOxGBQywYTOeFnHA+KWFV28DBr3NkNXaGXNfOZAebw3i+Su3Ro9bClj0NnkH5jXM9Eterp+P6GkRh01dkX+9GGHQWhMSat1bc8J3bVhiDeKl60XBr8QDNqs1Idmv0XTrVMaAvu5Pi+g/dcX1/GK07Sziau3bs8N3Wo84KR4hEVu/OsP/Cogm0+1TGb5eTYiy6kfC3oeIlV3MFboKLP9T36gWBMzFYOXsJYgWARUyYqAtmwVx4Q5dpzecvXyLfO3RRQH8oxBBawHVxILAoLRCRvyBiL/X/mREcubgKuxUAFkrxp4lIjAXFa4NEyeFJtEODycIlVpjhRh7lohQ5zoIuLdOfMJmMTGsjR6l0SgPZLWDJr6D41jXYuxZImICAa8qL4dKpXb085OLsR5G5PNkF7IY7Sq+ufWK6gIRHQR2tT9ta/t1plch4rgdz/ZQRgKLSYdrEceJQD8vuKnoRYhkdzAa9AaAkxUQYFjBxZwW0dkrEM15EVjSDfnNxtT7lc5fQIz1FOLACbG3fy1B2+44ewDRLLpuns8a5PPUa3HTZ18lpO0kVFryu2nzK5GnQTQLHBMMmgkvBx/cHM+xYXUb8eMPouPFTVt9eBXaLa+QRyfmfPPNBVinELpZLz0pIo7B+qZ17eeeniSeNm54a8/Iasyqu+vqotZuWhcdN28S6NC+OnVtSUpuWVEZnE44B91FBCwm0OgBi7EyalpK3Ew6ldbOvvxRo1PQfJKn8xpdKReOijJ/+sadHOw+kSx44+XnO1KacDw1/Yu1GYfwWsVbkVN2fbTUGsS8n4uenxALUHTchJGfJkf0e86lo+V7ZZVRkpxT5/IRGpVUOsmRcCRtEMsr5aLAeYBGRWg0wmQCWv2YsMCtKZE+nq4dzZVIa95K2OzqZP/FZqv20acv35wS+eG29YtmvBTc0RqGYZJPDqRtOQx0eoTNJHlq6tZ+GLNq0fQ2iLBt3HZ89cZ9OkUD6Ue4rtU6wKYvj5iWumxmp1X/fnm1l9DZGsQ6hRIatOdxOhr58uSVxcnbZffKYadQz5qPpmCTJ4dmpUY6O9i1R4StRl4PV9vBQ2cBjQK3EaQ8Vmmcvdw+TRK/Oj4IPLZ1950OVIdRidnffZMH6GQIkq9M1RoPX48tyZETRv+99Z2dfOz94dLNGEn2nYJ75MgoKJkgDMbx4UFbUsReQpff69J6RAzH1qYfTt1yCGtUA0vGUWsptjarl7wmWTwD7bC/+d1P5h/lHFv9z/2GukbAIcs/0GhhSL4X/Vpq3AwKpRNBaiXiv89cj0nKtqQF8/iNQG98ZXLIp4kRQleHTkked/CgslaxNCX38NFzgNLsd6XWzVsI/T45LLC7iNKqRxDuq+MXAJ3a7FmtyFuUniKe9ELAY5ZE18c3frh4E5pu5XcjMBrDJwZnJok93K0KF1iMUjOOpGQcMDVomjyr0SIc9upFpGepVPTxANYeglm39XDivw4YFaoWv6M2LNiBZOnrlrLWHjEvh8shEU9euBGVmFNy8z7gsJtGaDCNCw/KTBZ7iVys6bobR4lkVXWxH2w70uL35hjMSIp4acwwmCl37z9pQbTtw268sbtarohJyj1yrNU6UWvd+gk3r543LTzIyk67h9js94JFidl3od9bZsVomv1GeI1c8cP5fJRBgxKGx7VZPGfix9uP6x42kLNuybIs+sroV1NjZ8H9aLd6fJIzY/CBdZlHkjbvN9argI15wen0ZGVqOaIFJxiqf5jw4BiMJnh17PgRmcmR3h5/625fT4hoaRXVdUuSc49+eQ5QqZZ3uO1ffEHpr1I7ebqmS8SvTxz5ZL08FaKlnfjxxiJJdumtEvJET/NnUfKgm0YHZzFOPGV9wpv0zurnH4cIfvP7AbPfmeRRBL1hzNiAT1MiB3i5PaXxnkG0NFn1wxhJ7vGjZ+xFLumJC95sPsLSixAt7cyVXwd7iwR2tj1o83/sXPczav8Bk/vzDmc69cEAAAAASUVORK5CYII=" parent="tsqTvnH3BOsCTxECm0go-33" vertex="1">
          <mxGeometry x="210" y="240" width="54" height="76" as="geometry" />
        </mxCell>
        <mxCell id="tsqTvnH3BOsCTxECm0go-47" value="DPC / BISTLER&amp;nbsp; / PROSERIES - TEAM TSPIRIT" style="text;html=1;strokeColor=none;fillColor=none;align=left;verticalAlign=middle;whiteSpace=wrap;rounded=0;fontSize=16;fontStyle=1" parent="s1-uLHGH1qeWwjEYS3wL-1" vertex="1">
          <mxGeometry x="50" y="6160" width="1124" height="30" as="geometry" />
        </mxCell>
      </root>
    </mxGraphModel>
  </diagram>
</mxfile>
